<svg width="214" height="32" viewBox="0 0 214 32" fill="none" xmlns="http://www.w3.org/2000/svg">
<path d="M40.3345 28.7802V1.53442H45.3166L58.1221 20.7232V1.53442H63.1041V28.7802H58.1221L45.3166 9.63031V28.7802H40.3345Z" fill="#626262"/>
<path d="M75.7035 29.2473C73.7574 29.2473 72.0318 28.8321 70.5268 28.0017C69.0218 27.1714 67.8411 26.0037 66.9848 24.4987C66.1286 22.9937 65.7004 21.2552 65.7004 19.2831C65.7004 17.2851 66.1156 15.5076 66.9459 13.9507C67.8022 12.3938 68.9699 11.1872 70.449 10.3309C71.954 9.44867 73.7184 9.00755 75.7424 9.00755C77.6366 9.00755 79.3103 9.42272 80.7634 10.2531C82.2165 11.0834 83.3453 12.2251 84.1497 13.6783C84.98 15.1054 85.3952 16.7012 85.3952 18.4657C85.3952 18.7512 85.3822 19.0496 85.3563 19.3609C85.3563 19.6723 85.3433 19.9967 85.3174 20.334H70.6436C70.7474 21.839 71.2663 23.0197 72.2005 23.876C73.1606 24.7323 74.3153 25.1604 75.6646 25.1604C76.6766 25.1604 77.5199 24.9398 78.1945 24.4987C78.8951 24.0316 79.4141 23.4348 79.7514 22.7083H84.8114C84.4481 23.9279 83.8383 25.0436 82.982 26.0556C82.1517 27.0417 81.1137 27.8201 79.8682 28.391C78.6486 28.9618 77.2604 29.2473 75.7035 29.2473ZM75.7424 13.0555C74.5228 13.0555 73.446 13.4058 72.5118 14.1064C71.5777 14.7811 70.9809 15.819 70.7214 17.2202H80.3353C80.2574 15.9487 79.7904 14.9367 78.9341 14.1842C78.0778 13.4317 77.0139 13.0555 75.7424 13.0555Z" fill="#626262"/>
<path d="M84.4796 28.7802L91.4857 19.1274L84.4796 9.47462H89.812L94.7162 16.325L99.5815 9.47462H104.953L97.9079 19.1274L104.953 28.7802H99.5815L94.7162 21.9298L89.812 28.7802H84.4796Z" fill="#626262"/>
<path d="M114.783 28.7802C112.759 28.7802 111.137 28.2872 109.917 27.3011C108.698 26.3151 108.088 24.5636 108.088 22.0466V13.6393H104.78V9.47462H108.088L108.672 4.29792H113.07V9.47462H118.286V13.6393H113.07V22.0855C113.07 23.0197 113.265 23.6684 113.654 24.0316C114.069 24.369 114.77 24.5376 115.756 24.5376H118.169V28.7802H114.783Z" fill="#626262"/>
<path d="M120.617 28.7802V9.47462H125.015L125.443 12.0824C126.066 11.1483 126.884 10.4088 127.896 9.86385C128.933 9.29298 130.127 9.00755 131.476 9.00755C134.46 9.00755 136.575 10.1623 137.821 12.4717C138.521 11.4078 139.456 10.5645 140.623 9.94169C141.817 9.31893 143.114 9.00755 144.515 9.00755C147.032 9.00755 148.966 9.76005 150.315 11.2651C151.664 12.7701 152.339 14.9757 152.339 17.8819V28.7802H147.357V18.349C147.357 16.6883 147.032 15.4168 146.384 14.5345C145.761 13.6523 144.788 13.2112 143.465 13.2112C142.115 13.2112 141.025 13.7042 140.195 14.6902C139.391 15.6763 138.988 17.0515 138.988 18.816V28.7802H134.006V18.349C134.006 16.6883 133.682 15.4168 133.033 14.5345C132.385 13.6523 131.386 13.2112 130.036 13.2112C128.713 13.2112 127.636 13.7042 126.806 14.6902C126.001 15.6763 125.599 17.0515 125.599 18.816V28.7802H120.617Z" fill="#626262"/>
<path d="M164.386 29.2473C162.518 29.2473 160.831 28.8191 159.326 27.9628C157.847 27.1065 156.667 25.9259 155.784 24.4209C154.928 22.8899 154.5 21.1254 154.5 19.1274C154.5 17.1294 154.941 15.3779 155.823 13.8729C156.706 12.3419 157.886 11.1483 159.365 10.292C160.87 9.4357 162.557 9.00755 164.425 9.00755C166.268 9.00755 167.928 9.4357 169.407 10.292C170.912 11.1483 172.093 12.3419 172.949 13.8729C173.832 15.3779 174.273 17.1294 174.273 19.1274C174.273 21.1254 173.832 22.8899 172.949 24.4209C172.093 25.9259 170.912 27.1065 169.407 27.9628C167.902 28.8191 166.229 29.2473 164.386 29.2473ZM164.386 24.9269C165.684 24.9269 166.812 24.4468 167.773 23.4867C168.733 22.5007 169.213 21.0476 169.213 19.1274C169.213 17.2072 168.733 15.7671 167.773 14.807C166.812 13.821 165.697 13.328 164.425 13.328C163.102 13.328 161.96 13.821 161 14.807C160.066 15.7671 159.599 17.2072 159.599 19.1274C159.599 21.0476 160.066 22.5007 161 23.4867C161.96 24.4468 163.089 24.9269 164.386 24.9269Z" fill="#626262"/>
<path d="M181.046 28.7802L173.962 9.47462H179.178L184.082 24.0706L188.987 9.47462H194.202L187.079 28.7802H181.046Z" fill="#626262"/>
<path d="M203.829 29.2473C201.882 29.2473 200.157 28.8321 198.652 28.0017C197.147 27.1714 195.966 26.0037 195.11 24.4987C194.254 22.9937 193.825 21.2552 193.825 19.2831C193.825 17.2851 194.241 15.5076 195.071 13.9507C195.927 12.3938 197.095 11.1872 198.574 10.3309C200.079 9.44867 201.843 9.00755 203.867 9.00755C205.762 9.00755 207.435 9.42272 208.888 10.2531C210.342 11.0834 211.47 12.2251 212.275 13.6783C213.105 15.1054 213.52 16.7012 213.52 18.4657C213.52 18.7512 213.507 19.0496 213.481 19.3609C213.481 19.6723 213.468 19.9967 213.442 20.334H198.769C198.872 21.839 199.391 23.0197 200.326 23.876C201.286 24.7323 202.44 25.1604 203.79 25.1604C204.802 25.1604 205.645 24.9398 206.32 24.4987C207.02 24.0316 207.539 23.4348 207.876 22.7083H212.936C212.573 23.9279 211.963 25.0436 211.107 26.0556C210.277 27.0417 209.239 27.8201 207.993 28.391C206.774 28.9618 205.385 29.2473 203.829 29.2473ZM203.867 13.0555C202.648 13.0555 201.571 13.4058 200.637 14.1064C199.703 14.7811 199.106 15.819 198.846 17.2202H208.46C208.382 15.9487 207.915 14.9367 207.059 14.1842C206.203 13.4317 205.139 13.0555 203.867 13.0555Z" fill="#626262"/>
<path d="M15.7679 1.00478V13.3216C15.7679 14.7274 14.6283 15.867 13.2225 15.867L0.905684 15.867L0.905684 10.7762H7.07042L0.593262 4.29899L4.19304 0.699219L10.6771 7.18325L10.6771 1.00478L15.7679 1.00478Z" fill="#626262"/>
<path d="M30.8042 16.0416H18.4873C17.0815 16.0416 15.9419 17.1812 15.9419 18.587V30.9038L21.0328 30.9038L21.0328 24.7385L27.5104 31.2161L31.1102 27.6164L24.6262 21.1324H30.8042V16.0416Z" fill="#626262"/>
</svg>
