<svg width="154" height="40" viewBox="0 0 154 40" fill="none" xmlns="http://www.w3.org/2000/svg">
<path d="M20.5804 0L0.673828 23.8878H18.5897L16.5991 39.8131L36.5056 15.9252H18.5897L20.5804 0Z" fill="#626262"/>
<path d="M64.6886 16.651V24.0198H54.0596V34.1129H45.7083V4.19092H66.9216V11.5598H54.0596V16.651H64.6886Z" fill="#626262"/>
<path d="M78.5688 4.19092V34.1129H70.8873V4.19092H78.5688Z" fill="#626262"/>
<path d="M91.2432 10.6666C92.4341 10.6666 93.5953 10.9345 94.7267 11.4704C95.8878 11.9766 96.8405 12.6316 97.5849 13.4355V11.3365H105.266V34.1129H97.5849V30.3168C97.0192 31.5673 96.1558 32.6242 94.9946 33.4876C93.8335 34.3511 92.4341 34.7828 90.7966 34.7828C89.0995 34.7828 87.5067 34.3511 86.018 33.4876C84.5294 32.6242 83.3087 31.2993 82.3559 29.5129C81.433 27.6968 80.9715 25.4191 80.9715 22.68C80.9715 20.1195 81.433 17.9461 82.3559 16.1597C83.3087 14.3733 84.5592 13.0186 86.1074 12.0957C87.6853 11.1429 89.3973 10.6666 91.2432 10.6666ZM92.851 18.1694C91.7493 18.1694 90.8264 18.616 90.0821 19.5092C89.3675 20.4024 89.0102 21.4593 89.0102 22.68C89.0102 23.9007 89.3824 24.9279 90.1267 25.7615C90.871 26.5952 91.8536 27.012 93.0742 27.012C93.7293 27.012 94.3992 26.8482 95.0839 26.5207C95.7687 26.1635 96.3493 25.6424 96.8257 24.9576C97.3318 24.2431 97.5849 23.335 97.5849 22.2334V20.0451C96.9299 19.5092 96.1855 19.0626 95.3519 18.7053C94.548 18.348 93.7144 18.1694 92.851 18.1694Z" fill="#626262"/>
<path d="M117.182 10.6666C118.67 10.6666 120.04 10.8899 121.29 11.3365C122.57 11.7533 123.598 12.3339 124.372 13.0782V19.1072C123.598 18.6309 122.719 18.1843 121.737 17.7674C120.754 17.3208 119.697 17.0976 118.566 17.0976C117.851 17.0976 117.211 17.2464 116.646 17.5441C116.11 17.8121 115.842 18.2438 115.842 18.8393C115.842 19.2561 116.005 19.5687 116.333 19.7771C116.66 19.9855 117.301 20.2088 118.253 20.447L119.638 20.8043C123.598 21.8166 125.578 23.9454 125.578 27.1906C125.578 28.6793 125.131 30.0042 124.238 31.1653C123.374 32.2967 122.228 33.1899 120.799 33.8449C119.4 34.4701 117.881 34.7828 116.244 34.7828C114.547 34.7828 112.969 34.5446 111.51 34.0682C110.051 33.5621 108.8 32.9517 107.758 32.2372V26.2528C108.83 26.9078 110.036 27.4586 111.376 27.9052C112.745 28.3518 113.966 28.5751 115.038 28.5751C115.901 28.5751 116.527 28.4709 116.914 28.2625C117.33 28.054 117.539 27.6819 117.539 27.146C117.539 26.7291 117.301 26.4165 116.824 26.2081C116.348 25.9699 115.663 25.702 114.77 25.4042L112.492 24.6897C110.825 24.1835 109.604 23.3946 108.83 22.3227C108.056 21.2211 107.669 19.8813 107.669 18.3034C107.669 16.7254 108.086 15.3707 108.919 14.2393C109.753 13.108 110.885 12.2297 112.314 11.6044C113.772 10.9792 115.395 10.6666 117.182 10.6666Z" fill="#626262"/>
<path d="M141.423 10.6666C143.745 10.6666 145.636 11.4556 147.095 13.0335C148.583 14.6115 149.328 16.9487 149.328 20.0451V34.1129H141.646L141.601 21.2509C141.601 20.1195 141.289 19.3305 140.664 18.8839C140.038 18.4076 139.339 18.1694 138.565 18.1694C137.731 18.1694 137.031 18.3927 136.466 18.8393C135.9 19.2561 135.409 19.7622 134.992 20.3577V34.1129H127.31V4.19092H134.992V14.284C135.706 13.3015 136.57 12.4529 137.582 11.7384C138.624 11.0238 139.904 10.6666 141.423 10.6666Z" fill="#626262"/>
<path d="M148.941 4.36521V5.31542H147.797V8.20638H146.711V5.31542H145.567V4.36521H148.941Z" fill="#626262"/>
<path d="M153.399 4.30762V8.22366H152.313V6.32323L151.518 7.21585H151.193L150.397 6.32323V8.22366H149.311V4.30762H149.695L151.355 5.97769L153.016 4.30762H153.399Z" fill="#626262"/>
</svg>
