<svg width="122" height="34" viewBox="0 0 122 34" fill="none" xmlns="http://www.w3.org/2000/svg">
<path d="M68.6829 25.5872V6.0293H72.2265V25.5872H68.6829Z" fill="#626262"/>
<path d="M38.686 6.57032L46.1792 25.5872H49.1007L56.675 6.57032H52.7526L47.6841 19.922L42.6625 6.57032H38.686Z" fill="#626262"/>
<path fill-rule="evenodd" clip-rule="evenodd" d="M57.2041 24.965C58.2682 25.5601 59.4584 25.8577 60.7749 25.8577C62.0914 25.8577 63.2726 25.5601 64.3186 24.965C65.3826 24.3519 66.2212 23.5313 66.8343 22.5034C67.4475 21.4574 67.754 20.2942 67.754 19.0138C67.754 17.7334 67.4475 16.5882 66.8343 15.5783C66.2212 14.5504 65.3826 13.7388 64.3186 13.1437C63.2726 12.5306 62.0823 12.224 60.7478 12.224C59.4494 12.224 58.2682 12.5306 57.2041 13.1437C56.1401 13.7388 55.3016 14.5504 54.6884 15.5783C54.0752 16.5882 53.7687 17.7334 53.7687 19.0138C53.7687 20.2942 54.0752 21.4574 54.6884 22.5034C55.3196 23.5313 56.1582 24.3519 57.2041 24.965ZM62.5061 22.1247C62.0012 22.4132 61.4151 22.5575 60.7478 22.5575C60.0986 22.5575 59.5215 22.4132 59.0166 22.1247C58.5116 21.8181 58.1149 21.4033 57.8263 20.8803C57.5378 20.3393 57.3935 19.7261 57.3935 19.0408C57.3935 18.3555 57.5378 17.7514 57.8263 17.2284C58.1149 16.7054 58.5116 16.2997 59.0166 16.0111C59.5215 15.7045 60.0986 15.5513 60.7478 15.5513C61.4151 15.5513 62.0012 15.7045 62.5061 16.0111C63.0111 16.2997 63.4078 16.7054 63.6964 17.2284C63.9849 17.7514 64.1292 18.3555 64.1292 19.0408C64.1292 19.7261 63.9849 20.3393 63.6964 20.8803C63.4259 21.4033 63.0291 21.8181 62.5061 22.1247Z" fill="#626262"/>
<path d="M76.5025 25.1273C77.4042 25.6142 78.4321 25.8577 79.5863 25.8577C80.7405 25.8577 81.7594 25.6233 82.6431 25.1544C83.5448 24.6674 84.2391 23.9912 84.726 23.1255C85.231 22.2599 85.4834 21.25 85.4834 20.0958V12.5215H81.9398V20.0147C81.9398 20.8262 81.7324 21.4574 81.3176 21.9082C80.9028 22.3591 80.3257 22.5845 79.5863 22.5845C79.0994 22.5845 78.6756 22.4853 78.3149 22.287C77.9542 22.0886 77.6837 21.8 77.5034 21.4213C77.3231 21.0246 77.2329 20.5557 77.2329 20.0147V12.5215H73.6622V20.0958C73.6622 21.232 73.9146 22.2329 74.4196 23.0985C74.9245 23.9641 75.6188 24.6404 76.5025 25.1273Z" fill="#626262"/>
<path d="M86.9529 25.5872V12.5215H90.4966V13.6551C90.8135 13.3457 91.1742 13.085 91.5786 12.8732C92.336 12.4584 93.1926 12.251 94.1484 12.251C95.0501 12.251 95.8707 12.4584 96.6101 12.8732C97.2297 13.2057 97.7417 13.6585 98.146 14.2316C98.5831 13.6738 99.1171 13.23 99.748 12.9003C100.541 12.4674 101.425 12.251 102.399 12.251C103.373 12.251 104.247 12.4584 105.023 12.8732C105.798 13.27 106.412 13.847 106.862 14.6045C107.313 15.3619 107.539 16.2636 107.539 17.3096V25.5872H103.995V17.8776C103.995 17.1202 103.752 16.5341 103.265 16.1193C102.796 15.6865 102.21 15.4701 101.506 15.4701C101.055 15.4701 100.632 15.5693 100.235 15.7677C99.8562 15.948 99.5586 16.2185 99.3422 16.5792C99.1258 16.9399 99.0176 17.3727 99.0176 17.8776V25.5872H95.4739V17.8776C95.4739 17.1202 95.2305 16.5341 94.7436 16.1193C94.2747 15.6865 93.6886 15.4701 92.9852 15.4701C92.5164 15.4701 92.0926 15.5693 91.7138 15.7677C91.3351 15.948 91.0376 16.2185 90.8212 16.5792C90.6048 16.9399 90.4966 17.3727 90.4966 17.8776V25.5872H86.9529Z" fill="#626262"/>
<path fill-rule="evenodd" clip-rule="evenodd" d="M111.656 24.9921C112.72 25.5691 113.937 25.8577 115.307 25.8577C116.371 25.8577 117.354 25.6683 118.256 25.2896C119.176 24.9109 119.951 24.3519 120.582 23.6125L118.499 21.5295C118.103 21.9804 117.634 22.323 117.093 22.5575C116.552 22.7739 115.948 22.8821 115.28 22.8821C114.541 22.8821 113.892 22.7288 113.333 22.4222C112.774 22.0976 112.341 21.6468 112.034 21.0697C111.919 20.8319 111.827 20.5782 111.757 20.3087L121.313 20.2852C121.385 19.9786 121.43 19.7081 121.448 19.4737C121.484 19.2212 121.502 18.9777 121.502 18.7433C121.502 17.4989 121.223 16.3898 120.664 15.416C120.122 14.4241 119.365 13.6487 118.391 13.0896C117.435 12.5125 116.326 12.224 115.064 12.224C113.784 12.224 112.62 12.5306 111.574 13.1437C110.528 13.7388 109.699 14.5504 109.086 15.5783C108.491 16.5882 108.193 17.7424 108.193 19.0408C108.193 20.3573 108.5 21.5295 109.113 22.5575C109.744 23.5854 110.592 24.3969 111.656 24.9921ZM111.761 17.6571C111.824 17.4179 111.906 17.1939 112.007 16.985C112.296 16.4079 112.701 15.966 113.224 15.6595C113.747 15.3348 114.361 15.1725 115.064 15.1725C115.731 15.1725 116.29 15.3168 116.741 15.6054C117.21 15.8759 117.562 16.2726 117.796 16.7956C117.918 17.0474 118.014 17.3284 118.086 17.6388L111.761 17.6571Z" fill="#626262"/>
<path fill-rule="evenodd" clip-rule="evenodd" d="M16.9072 33.4432C25.9974 33.4432 33.3666 26.0741 33.3666 16.9838C33.3666 7.89354 25.9974 0.524414 16.9072 0.524414C7.81688 0.524414 0.447754 7.89354 0.447754 16.9838C0.447754 26.0741 7.81688 33.4432 16.9072 33.4432ZM23.7237 6.90941C23.9192 7.07462 24.0316 7.31746 24.0316 7.5733L24.0312 10.8801L24.0316 11.0977L24.0312 11.1237V22.1932C24.0312 24.1157 22.4728 25.6741 20.5504 25.6741C18.6279 25.6741 17.0695 24.1157 17.0695 22.1932C17.0695 20.2708 18.6279 18.7122 20.5504 18.7122C21.1844 18.7122 21.7787 18.8818 22.2908 19.178V12.1249L13.5883 13.5757V23.9337C13.5883 25.8561 12.0299 27.4145 10.1075 27.4145C8.18501 27.4145 6.62663 25.8561 6.62663 23.9337C6.62663 22.0112 8.18501 20.4526 10.1075 20.4526C10.7415 20.4526 11.3362 20.6222 11.8479 20.9184L11.8483 12.8382L11.8479 12.6206L11.8483 12.5946V9.31372C11.8483 8.88846 12.1557 8.52535 12.5756 8.45537L23.0182 6.71495C23.2706 6.67288 23.5287 6.74401 23.7237 6.90941Z" fill="#626262"/>
</svg>
