<svg width="152" height="38" viewBox="0 0 152 38" fill="none" xmlns="http://www.w3.org/2000/svg">
<path fill-rule="evenodd" clip-rule="evenodd" d="M38.3069 17.5134C39.0477 21.0471 38.705 24.3339 37.5078 27.0749L37.5713 27.0739C36.545 29.8826 33.1313 35.7594 25.0939 37.4446C24.7881 37.5087 24.4828 37.5595 24.1781 37.5977C23.4113 37.7105 22.6159 37.7687 21.7948 37.7687C12.2763 37.7687 2.9175 29.9334 0.89126 20.2681C-0.0738962 15.6642 0.798729 11.4755 3.00604 8.35111C4.03131 6.37753 9.41023 1.59116 13.751 0.661093C13.8685 0.635918 13.9815 0.616185 14.0901 0.601673C15.2373 0.322288 16.461 0.174805 17.7493 0.174805C27.0954 0.174805 36.2994 7.93756 38.3069 17.5134ZM35.0351 16.7032C36.611 24.2207 31.938 30.3148 24.5975 30.3148C17.257 30.3148 10.0288 24.2207 8.4528 16.7032C6.87683 9.1857 11.5499 3.09157 18.8904 3.09157C26.2309 3.09157 33.4591 9.1857 35.0351 16.7032ZM24.1497 26.1017C29.5829 26.1017 33.0643 21.6984 31.9255 16.2667C30.7868 10.835 25.4593 6.43168 20.0261 6.43168C14.5929 6.43168 11.1115 10.835 12.2502 16.2667C13.3889 21.6984 18.7165 26.1017 24.1497 26.1017ZM28.9895 15.8591C29.7038 19.2665 27.4606 22.0288 23.9791 22.0288C20.4976 22.0288 17.0962 19.2665 16.3818 15.8591C15.6675 12.4517 17.9107 9.68937 21.3922 9.68937C24.8738 9.68937 28.2752 12.4517 28.9895 15.8591ZM25.7971 15.8592C26.1497 17.5409 25.0425 18.9042 23.3243 18.9042C21.606 18.9042 19.9273 17.5409 19.5747 15.8592C19.2222 14.1775 20.3293 12.8142 22.0476 12.8142C23.7658 12.8142 25.4446 14.1775 25.7971 15.8592Z" fill="#626262"/>
<path d="M63.4923 27.5869C63.4923 27.8032 63.6676 27.9785 63.8839 27.9785H66.8608C67.077 27.9785 67.2524 27.8032 67.2524 27.5869V13.2898H63.8839C63.6676 13.2898 63.4923 13.4651 63.4923 13.6814V27.5869Z" fill="#626262"/>
<path d="M63.6134 10.9634C63.974 11.3421 64.5241 11.5315 65.2635 11.5315C66.0029 11.5315 66.5439 11.3421 66.8865 10.9634C67.2292 10.5667 67.4005 10.0797 67.4005 9.50266C67.4005 8.8895 67.2292 8.39356 66.8865 8.01485C66.5439 7.63613 66.0029 7.44678 65.2635 7.44678C64.5241 7.44678 63.974 7.63613 63.6134 8.01485C63.2707 8.39356 63.0994 8.8895 63.0994 9.50266C63.0994 10.0797 63.2707 10.5667 63.6134 10.9634Z" fill="#626262"/>
<path fill-rule="evenodd" clip-rule="evenodd" d="M57.5651 21.1075C56.411 21.6486 55.0043 21.9191 53.3452 21.9191H50.3696V27.5869C50.3696 27.8032 50.1942 27.9785 49.978 27.9785H46.9199C46.7036 27.9785 46.5283 27.8032 46.5283 27.5869V8.48761C46.5283 8.27133 46.7036 8.096 46.9199 8.096H49.978C50.0202 8.096 50.0609 8.1027 50.0991 8.11509C50.1372 8.1027 50.1779 8.096 50.2201 8.096H53.3452C55.0043 8.096 56.411 8.36651 57.5651 8.90753C58.7373 9.44855 59.63 10.224 60.2432 11.2339C60.8563 12.2258 61.1629 13.407 61.1629 14.7776V15.2104C61.1629 16.581 60.8563 17.7712 60.2432 18.7812C59.63 19.773 58.7373 20.5485 57.5651 21.1075ZM55.6175 11.8831C55.0945 11.5766 54.4453 11.4233 53.6698 11.4233H50.3696V18.5918H53.6698C54.4453 18.5918 55.0945 18.4385 55.6175 18.1319C56.1585 17.8254 56.5642 17.4016 56.8348 16.8605C57.1233 16.3195 57.2676 15.6973 57.2676 14.994C57.2676 14.2907 57.1233 13.6685 56.8348 13.1275C56.5642 12.5865 56.1585 12.1717 55.6175 11.8831Z" fill="#626262"/>
<path d="M70.6249 27.9785C70.4086 27.9785 70.2332 27.8032 70.2332 27.5869V13.6814C70.2332 13.4651 70.4086 13.2898 70.6249 13.2898H72.8173C73.0335 13.2898 73.2089 13.4651 73.2089 13.6814V16.9095C73.296 16.5327 73.4042 16.1828 73.5335 15.8596C73.9302 14.8497 74.5163 14.0923 75.2918 13.5874C76.0853 13.0824 77.0681 12.8299 78.2404 12.8299H78.4027C80.152 12.8299 81.4775 13.398 82.3792 14.5341C83.2809 15.6523 83.7317 17.3294 83.7317 19.5656V27.5869C83.7317 27.8032 83.5564 27.9785 83.3401 27.9785H80.3632C80.1469 27.9785 79.9716 27.8032 79.9716 27.5869V19.241C79.9716 18.3393 79.7101 17.6089 79.1871 17.0499C78.6822 16.4908 77.9789 16.2113 77.0772 16.2113C76.1574 16.2113 75.409 16.4999 74.8319 17.0769C74.2729 17.636 73.9933 18.3934 73.9933 19.3492V27.5869C73.9933 27.8032 73.818 27.9785 73.6017 27.9785H70.6249Z" fill="#626262"/>
<path fill-rule="evenodd" clip-rule="evenodd" d="M97.756 21.1075C96.6018 21.6486 95.1951 21.9191 93.536 21.9191H90.5604V27.5869C90.5604 27.8032 90.3851 27.9785 90.1688 27.9785H87.1108C86.8945 27.9785 86.7192 27.8032 86.7192 27.5869V8.48761C86.7192 8.27133 86.8945 8.096 87.1108 8.096H90.1688C90.2111 8.096 90.2518 8.1027 90.2899 8.11508C90.328 8.1027 90.3687 8.096 90.411 8.096H93.536C95.1951 8.096 96.6018 8.36651 97.756 8.90753C98.9282 9.44855 99.8209 10.224 100.434 11.2339C101.047 12.2258 101.354 13.407 101.354 14.7776V15.2104C101.354 16.581 101.047 17.7712 100.434 18.7812C99.8209 19.773 98.9282 20.5485 97.756 21.1075ZM95.8083 11.8831C95.2853 11.5766 94.6361 11.4233 93.8606 11.4233H90.5604V18.5918H93.8606C94.6361 18.5918 95.2853 18.4385 95.8083 18.1319C96.3493 17.8254 96.7551 17.4016 97.0256 16.8605C97.3141 16.3195 97.4584 15.6973 97.4584 14.994C97.4584 14.2907 97.3141 13.6685 97.0256 13.1275C96.7551 12.5865 96.3493 12.1717 95.8083 11.8831Z" fill="#626262"/>
<path fill-rule="evenodd" clip-rule="evenodd" d="M109.723 28.4925C108.425 28.4925 107.279 28.2851 106.288 27.8703C105.296 27.4555 104.457 26.8965 103.772 26.1931C103.087 25.4718 102.564 24.6602 102.203 23.7585C101.86 22.8568 101.689 21.9191 101.689 20.9452V20.3772C101.689 19.3673 101.869 18.4115 102.23 17.5098C102.609 16.59 103.141 15.7785 103.826 15.0752C104.529 14.3538 105.377 13.7947 106.369 13.398C107.361 12.9832 108.479 12.7758 109.723 12.7758C110.967 12.7758 112.086 12.9832 113.077 13.398C114.069 13.7947 114.908 14.3538 115.593 15.0752C116.296 15.7785 116.828 16.59 117.189 17.5098C117.55 18.4115 117.73 19.3673 117.73 20.3772V20.9452C117.73 21.9191 117.55 22.8568 117.189 23.7585C116.847 24.6602 116.333 25.4718 115.647 26.1931C114.962 26.8965 114.123 27.4555 113.132 27.8703C112.14 28.2851 111.003 28.4925 109.723 28.4925ZM109.723 25.2734C110.643 25.2734 111.418 25.075 112.049 24.6783C112.681 24.2635 113.159 23.7135 113.483 23.0282C113.808 22.3248 113.97 21.5313 113.97 20.6477C113.97 19.746 113.799 18.9525 113.456 18.2672C113.132 17.5639 112.645 17.0138 111.995 16.6171C111.364 16.2023 110.607 15.9949 109.723 15.9949C108.839 15.9949 108.073 16.2023 107.424 16.6171C106.793 17.0138 106.306 17.5639 105.963 18.2672C105.62 18.9525 105.449 19.746 105.449 20.6477C105.449 21.5313 105.611 22.3248 105.936 23.0282C106.279 23.7135 106.766 24.2635 107.397 24.6783C108.028 25.075 108.803 25.2734 109.723 25.2734Z" fill="#626262"/>
<path d="M120.373 27.5869C120.373 27.8032 120.549 27.9785 120.765 27.9785H123.742C123.958 27.9785 124.133 27.8032 124.133 27.5869V13.2898H120.765C120.549 13.2898 120.373 13.4651 120.373 13.6814V27.5869Z" fill="#626262"/>
<path d="M120.494 10.9634C120.855 11.3421 121.405 11.5315 122.145 11.5315C122.884 11.5315 123.425 11.3421 123.768 10.9634C124.11 10.5667 124.282 10.0797 124.282 9.50266C124.282 8.8895 124.11 8.39356 123.768 8.01485C123.425 7.63613 122.884 7.44678 122.145 7.44678C121.405 7.44678 120.855 7.63613 120.494 8.01485C120.152 8.39356 119.98 8.8895 119.98 9.50266C119.98 10.0797 120.152 10.5667 120.494 10.9634Z" fill="#626262"/>
<path d="M127.506 27.9785C127.29 27.9785 127.114 27.8032 127.114 27.5869V13.6814C127.114 13.4651 127.29 13.2898 127.506 13.2898H129.698C129.915 13.2898 130.09 13.4651 130.09 13.6814V16.9095C130.177 16.5327 130.285 16.1828 130.415 15.8596C130.811 14.8497 131.397 14.0923 132.173 13.5874C132.966 13.0824 133.949 12.8299 135.121 12.8299H135.284C137.033 12.8299 138.359 13.398 139.26 14.5341C140.162 15.6523 140.613 17.3294 140.613 19.5656V27.5869C140.613 27.8032 140.437 27.9785 140.221 27.9785H137.244C137.028 27.9785 136.853 27.8032 136.853 27.5869V19.241C136.853 18.3393 136.591 17.6089 136.068 17.0499C135.563 16.4908 134.86 16.2113 133.958 16.2113C133.039 16.2113 132.29 16.4999 131.713 17.0769C131.154 17.636 130.874 18.3934 130.874 19.3492V27.5869C130.874 27.8032 130.699 27.9785 130.483 27.9785H127.506Z" fill="#626262"/>
<path d="M146.332 27.6539C147.216 27.9965 148.334 28.1679 149.687 28.1679H151.405C151.621 28.1679 151.797 27.9925 151.797 27.7763V25.3404C151.797 25.1241 151.621 24.9488 151.405 24.9488H149.497C148.776 24.9488 148.217 24.7594 147.82 24.3807C147.442 23.984 147.252 23.4249 147.252 22.7036L147.265 16.049H151.405C151.621 16.049 151.797 15.8737 151.797 15.6574V13.6814C151.797 13.4651 151.621 13.2898 151.405 13.2898H147.271L147.278 9.54338C147.279 9.3268 147.103 9.15099 146.887 9.15099H144.153C143.937 9.15099 143.762 9.32583 143.762 9.5418L143.754 13.2898H141.801C141.584 13.2898 141.409 13.4651 141.409 13.6814V15.6574C141.409 15.8737 141.584 16.049 141.801 16.049H143.749L143.736 22.4601C143.736 23.8848 143.952 25.0209 144.385 25.8685C144.818 26.6981 145.467 27.2932 146.332 27.6539Z" fill="#626262"/>
</svg>
