<svg width="166" height="35" viewBox="0 0 166 35" fill="none" xmlns="http://www.w3.org/2000/svg">
<path d="M134.674 1.69922V32.2443H139.144V1.69922H134.674Z" fill="#626262"/>
<path fill-rule="evenodd" clip-rule="evenodd" d="M94.2504 32.7373C92.4863 32.7373 91.0126 32.3265 89.8293 31.5047C89.6998 31.4148 89.5738 31.3213 89.4513 31.2243V32.2443H85.5068V2.19228H90.0101V15.0665C91.1148 14.3562 92.4515 14.001 94.0203 14.001C95.7186 14.001 97.1978 14.4064 98.4579 15.2173C99.7179 16.0281 100.693 17.1402 101.383 18.5536C102.085 19.9561 102.435 21.5613 102.435 23.3692C102.435 25.1442 102.09 26.7384 101.4 28.1519C100.72 29.5653 99.7672 30.6829 98.54 31.5047C97.3129 32.3265 95.883 32.7373 94.2504 32.7373ZM89.8457 20.5423C89.5828 21.3531 89.4513 22.2954 89.4513 23.3692C89.4513 24.443 89.5828 25.3853 89.8457 26.1961C90.1087 27.0069 90.536 27.6369 91.1277 28.0861C91.7303 28.5354 92.5302 28.76 93.5273 28.76C94.4915 28.76 95.2804 28.5189 95.8939 28.0368C96.5075 27.5547 96.9622 26.9083 97.2581 26.0975C97.5539 25.2757 97.7018 24.3663 97.7018 23.3692C97.7018 22.3831 97.5484 21.4846 97.2417 20.6738C96.9349 19.852 96.4582 19.2001 95.8118 18.718C95.1763 18.2249 94.36 17.9784 93.3629 17.9784C92.4316 17.9784 91.6755 18.203 91.0948 18.6523C90.525 19.1015 90.1087 19.7315 89.8457 20.5423Z" fill="#626262"/>
<path d="M78.439 21.7585V32.2443H82.9095V20.5752C82.9095 18.6358 82.389 17.069 81.3481 15.8747C80.3181 14.6694 78.7897 14.0668 76.7626 14.0668C75.5793 14.0668 74.5 14.3297 73.5249 14.8557C72.632 15.3325 71.9036 15.9878 71.3396 16.8217C70.9191 16.0649 70.3381 15.4425 69.5968 14.9543C68.7093 14.3626 67.5698 14.0668 66.1782 14.0668C64.962 14.0668 63.8608 14.3352 62.8747 14.8721C62.1295 15.2824 61.4995 15.8046 60.9846 16.4389V14.4941H57.0401V32.2443H61.5434V21.4956C61.5434 20.4766 61.8228 19.6493 62.3816 19.0138C62.9514 18.3674 63.702 18.0441 64.6333 18.0441C65.6085 18.0441 66.37 18.3729 66.9178 19.0303C67.4766 19.6767 67.756 20.5861 67.756 21.7585V32.2443H72.2264V21.4956C72.2264 20.8162 72.3525 20.2191 72.6045 19.7041C72.8674 19.1782 73.229 18.7728 73.6892 18.4879C74.1494 18.1921 74.6918 18.0441 75.3163 18.0441C76.2915 18.0441 77.053 18.3729 77.6008 19.0303C78.1596 19.6767 78.439 20.5861 78.439 21.7585Z" fill="#626262"/>
<path d="M41.0241 32.0635C41.9006 32.5346 43.0347 32.7702 44.4262 32.7702C46.1684 32.7702 47.6092 32.3922 48.7487 31.6362C49.2895 31.2808 49.7661 30.8734 50.1786 30.4139V32.2443H54.1231V14.4941H49.6198V23.5007C49.6198 24.5964 49.4938 25.4839 49.2418 26.1632C49.0007 26.8316 48.6885 27.3411 48.305 27.6917C47.9215 28.0313 47.5106 28.2614 47.0723 28.382C46.634 28.5025 46.2232 28.5628 45.8397 28.5628C44.8864 28.5628 44.1468 28.3491 43.6209 27.9218C43.1059 27.4945 42.7334 26.9631 42.5033 26.3276C42.2732 25.692 42.1362 25.062 42.0924 24.4375C42.0486 23.802 42.0267 23.2816 42.0267 22.8762V14.4941H37.4905V24.4539C37.4905 24.7498 37.5124 25.2209 37.5562 25.8674C37.6 26.5138 37.7261 27.2315 37.9342 28.0204C38.1424 28.7983 38.4876 29.5489 38.9697 30.272C39.4627 30.9952 40.1475 31.5923 41.0241 32.0635Z" fill="#626262"/>
<path d="M104.408 14.4941V32.2443H108.912V23.172C108.912 22.4927 109.005 21.8845 109.191 21.3477C109.377 20.7998 109.651 20.3287 110.013 19.9342C110.374 19.5288 110.818 19.2056 111.344 18.9645C111.87 18.7125 112.456 18.5646 113.103 18.5208C113.76 18.466 114.335 18.5153 114.828 18.6687V14.4941C114.291 14.4284 113.755 14.4174 113.218 14.4612C112.681 14.4941 112.16 14.5872 111.656 14.7406C111.152 14.8831 110.687 15.0858 110.259 15.3487C109.7 15.6774 109.229 16.0938 108.846 16.5978C108.664 16.8364 108.5 17.0873 108.353 17.3505V14.4941H104.408Z" fill="#626262"/>
<path fill-rule="evenodd" clip-rule="evenodd" d="M124.241 32.7373C122.422 32.7373 120.817 32.3484 119.425 31.5704C118.045 30.7815 116.96 29.7023 116.171 28.3327C115.393 26.9521 115.004 25.3743 115.004 23.5993C115.004 21.6599 115.387 19.9726 116.154 18.5372C116.921 17.1018 117.979 15.9897 119.326 15.2008C120.674 14.401 122.225 14.001 123.978 14.001C125.84 14.001 127.424 14.4393 128.728 15.3159C130.031 16.1924 130.996 17.4251 131.62 19.0138C132.245 20.6026 132.464 22.4707 132.278 24.6183H119.814C119.954 25.6836 120.284 26.5492 120.806 27.2151C121.529 28.1135 122.586 28.5628 123.978 28.5628C124.854 28.5628 125.605 28.371 126.229 27.9875C126.854 27.604 127.331 27.0507 127.659 26.3276L132.13 27.6095C131.461 29.2311 130.404 30.4912 128.958 31.3896C127.522 32.2881 125.95 32.7373 124.241 32.7373ZM126.985 19.0796C127.367 19.5986 127.624 20.3382 127.755 21.2984H119.932C120.106 20.4785 120.397 19.8047 120.806 19.2768C121.529 18.3455 122.652 17.8798 124.175 17.8798C125.479 17.8798 126.416 18.2797 126.985 19.0796Z" fill="#626262"/>
<path d="M142.757 32.2443V1.69922H147.227V32.2443H142.757Z" fill="#626262"/>
<path fill-rule="evenodd" clip-rule="evenodd" d="M152.204 32.0142C153.091 32.4963 154.17 32.7373 155.441 32.7373C156.975 32.7373 158.241 32.4744 159.238 31.9485C160.033 31.5251 160.783 30.8974 161.49 30.0654V32.2443H165.401V21.397C165.401 20.5862 165.368 19.852 165.303 19.1946C165.237 18.5372 165.029 17.8798 164.678 17.2224C164.054 16.039 163.133 15.2063 161.917 14.7242C160.701 14.2421 159.309 14.001 157.742 14.001C155.606 14.001 153.918 14.4612 152.68 15.3816C151.442 16.302 150.599 17.4963 150.149 18.9645L154.192 20.2465C154.477 19.4357 154.976 18.8714 155.688 18.5536C156.4 18.2359 157.085 18.077 157.742 18.077C158.926 18.077 159.769 18.3235 160.273 18.8166C160.669 19.2038 160.91 19.7633 160.995 20.4951C160.238 20.6097 159.521 20.7185 158.844 20.8217C157.693 20.9861 156.663 21.1614 155.754 21.3477C154.844 21.5339 154.061 21.7476 153.403 21.9886C152.45 22.3393 151.689 22.7775 151.119 23.3035C150.56 23.8184 150.155 24.4156 149.903 25.0949C149.651 25.7742 149.525 26.5248 149.525 27.3465C149.525 28.3327 149.749 29.2366 150.199 30.0584C150.659 30.8692 151.327 31.5211 152.204 32.0142ZM158.466 28.7929C157.907 29.0777 157.216 29.2202 156.395 29.2202C155.88 29.2202 155.436 29.1435 155.063 28.9901C154.691 28.8367 154.401 28.6175 154.192 28.3327C153.995 28.0368 153.897 27.6862 153.897 27.2808C153.897 26.985 153.957 26.7165 154.077 26.4755C154.209 26.2344 154.406 26.0153 154.669 25.8181C154.943 25.6099 155.299 25.4181 155.737 25.2428C156.121 25.1004 156.565 24.9689 157.069 24.8484C157.573 24.7278 158.235 24.5964 159.057 24.4539C159.585 24.3554 160.218 24.2432 160.954 24.1175C160.943 24.43 160.925 24.7832 160.898 25.1771C160.865 25.8126 160.734 26.3714 160.504 26.8535C160.383 27.1055 160.153 27.4178 159.813 27.7903C159.485 28.1628 159.035 28.497 158.466 28.7929Z" fill="#626262"/>
<path fill-rule="evenodd" clip-rule="evenodd" d="M12.8194 14.6222H0.679688V19.9088C0.679688 27.8029 7.07913 34.2024 14.9732 34.2024C22.8673 34.2024 29.2668 27.8029 29.2668 19.9088V14.6222H16.7354L16.7355 6.20268C16.7355 2.85038 14.0179 0.132813 10.6656 0.132813C7.3133 0.132812 4.59573 2.85038 4.59573 6.20267L8.51177 6.20267C8.51177 5.01315 9.47607 4.04885 10.6656 4.04885C11.8551 4.04885 12.8194 5.01315 12.8194 6.20267L12.8194 14.6222ZM12.8194 18.5382L12.8194 25.9787L16.7354 25.9787L16.7354 18.5382H25.3507V19.9088C25.3507 25.6402 20.7046 30.2863 14.9732 30.2863C9.2419 30.2863 4.59573 25.6402 4.59573 19.9088V18.5382H12.8194Z" fill="#626262"/>
</svg>
