<svg width="199" height="36" viewBox="0 0 199 36" fill="none" xmlns="http://www.w3.org/2000/svg">
<path d="M34.5708 24.4977C41.947 20.3593 51.2797 22.9218 55.5086 30.2464L49.1444 33.9208C41.7343 38.199 32.2571 35.6067 28.0563 28.1525L34.5708 24.4977Z" fill="#626262"/>
<path d="M31.8724 21.5966C36.0861 14.2981 45.4187 11.7975 52.7171 16.0113L48.9023 22.6188C44.6885 29.9173 35.356 32.4179 28.0575 28.2041L31.8724 21.5966Z" fill="#575757" fill-opacity="0.8"/>
<path d="M27.7274 20.8896C27.7274 12.038 34.9031 4.8623 43.7547 4.8623V12.3417C43.7547 21.1933 36.5791 28.369 27.7274 28.369V20.8896Z" fill="#575757" fill-opacity="0.8"/>
<path d="M23.9462 21.1944C19.7324 13.8959 22.2331 4.56339 29.5316 0.349609L33.3464 6.95713C37.5602 14.2556 35.0595 23.5881 27.7611 27.8019L23.9462 21.1944Z" fill="#575757" fill-opacity="0.8"/>
<path d="M27.7276 19.8211C27.7276 11.5596 21.0303 4.8623 12.7688 4.8623V13.4102C12.7688 21.6717 19.4661 28.369 27.7276 28.369V19.8211Z" fill="#575757" fill-opacity="0.8"/>
<path d="M24.5076 21.5966C20.2938 14.2981 10.9613 11.7975 3.66284 16.0113L7.4777 22.6188C11.6915 29.9173 21.024 32.4179 28.3225 28.2041L24.5076 21.5966Z" fill="#575757" fill-opacity="0.8"/>
<path d="M21.809 24.4977C14.4328 20.3593 5.10012 22.9218 0.871216 30.2464L7.23542 33.9208C14.6455 38.199 24.1227 35.6067 28.3235 28.1525L21.809 24.4977Z" fill="#626262"/>
<path d="M82.7059 10.6142V27.1789H79.3834V16.4047L74.9456 27.1789H72.43L67.9684 16.4047V27.1789H64.646V10.6142H68.4193L73.6878 22.9309L78.9562 10.6142H82.7059Z" fill="#626262"/>
<path d="M86.7263 12.4652C86.141 12.4652 85.6505 12.2833 85.255 11.9194C84.8753 11.5397 84.6854 11.073 84.6854 10.5192C84.6854 9.9655 84.8753 9.50669 85.255 9.1428C85.6505 8.7631 86.141 8.57324 86.7263 8.57324C87.3117 8.57324 87.7943 8.7631 88.174 9.1428C88.5695 9.50669 88.7673 9.9655 88.7673 10.5192C88.7673 11.073 88.5695 11.5397 88.174 11.9194C87.7943 12.2833 87.3117 12.4652 86.7263 12.4652ZM88.3638 14.0315V27.1789H85.0414V14.0315H88.3638Z" fill="#626262"/>
<path d="M97.9828 13.8417C99.5491 13.8417 100.815 14.3401 101.78 15.3368C102.745 16.3177 103.227 17.6941 103.227 19.4661V27.1789H99.9051V19.917C99.9051 18.8728 99.644 18.0738 99.1219 17.5201C98.5998 16.9505 97.8879 16.6658 96.986 16.6658C96.0684 16.6658 95.3407 16.9505 94.8027 17.5201C94.2806 18.0738 94.0196 18.8728 94.0196 19.917V27.1789H90.6971V14.0315H94.0196V15.669C94.4626 15.0995 95.0242 14.6565 95.7045 14.3401C96.4007 14.0078 97.1601 13.8417 97.9828 13.8417Z" fill="#626262"/>
<path d="M104.583 20.5578C104.583 19.2288 104.844 18.0501 105.367 17.0217C105.904 15.9934 106.632 15.2023 107.55 14.6486C108.467 14.0948 109.488 13.818 110.611 13.818C111.466 13.818 112.28 14.0078 113.056 14.3875C113.831 14.7514 114.448 15.2419 114.907 15.8589V9.61744H118.277V27.1789H114.907V25.2329C114.495 25.8816 113.918 26.4037 113.174 26.7992C112.431 27.1947 111.568 27.3925 110.587 27.3925C109.48 27.3925 108.467 27.1077 107.55 26.5382C106.632 25.9686 105.904 25.1696 105.367 24.1413C104.844 23.0971 104.583 21.9026 104.583 20.5578ZM114.93 20.6052C114.93 19.7984 114.772 19.1101 114.456 18.5406C114.139 17.9552 113.712 17.5122 113.174 17.2116C112.636 16.8952 112.059 16.737 111.442 16.737C110.825 16.737 110.255 16.8873 109.733 17.1879C109.211 17.4885 108.784 17.9315 108.452 18.5168C108.135 19.0864 107.977 19.7667 107.977 20.5578C107.977 21.3488 108.135 22.045 108.452 22.6462C108.784 23.2315 109.211 23.6825 109.733 23.9989C110.271 24.3153 110.841 24.4735 111.442 24.4735C112.059 24.4735 112.636 24.3232 113.174 24.0226C113.712 23.7062 114.139 23.2632 114.456 22.6936C114.772 22.1082 114.93 21.4121 114.93 20.6052Z" fill="#626262"/>
<path d="M126.6 16.7607H124.298V27.1789H120.928V16.7607H119.433V14.0315H120.928V13.3671C120.928 11.7533 121.387 10.5667 122.305 9.80729C123.222 9.04788 124.607 8.6919 126.458 8.73936V11.5397C125.651 11.5239 125.089 11.6584 124.773 11.9432C124.456 12.2279 124.298 12.7421 124.298 13.4857V14.0315H126.6V16.7607Z" fill="#626262"/>
<path d="M140.216 14.0315V27.1789H136.869V25.5177C136.442 26.0873 135.881 26.5382 135.185 26.8704C134.504 27.1868 133.761 27.345 132.954 27.345C131.925 27.345 131.016 27.1315 130.225 26.7043C129.434 26.2613 128.809 25.6205 128.35 24.782C127.907 23.9277 127.685 22.9151 127.685 21.7444V14.0315H131.008V21.2697C131.008 22.3139 131.269 23.1208 131.791 23.6904C132.313 24.2441 133.025 24.521 133.927 24.521C134.844 24.521 135.564 24.2441 136.086 23.6904C136.608 23.1208 136.869 22.3139 136.869 21.2697V14.0315H140.216Z" fill="#626262"/>
<path d="M145.867 9.61744V27.1789H142.545V9.61744H145.867Z" fill="#626262"/>
<path d="M155.486 13.8417C157.052 13.8417 158.318 14.3401 159.283 15.3368C160.248 16.3177 160.731 17.6941 160.731 19.4661V27.1789H157.408V19.917C157.408 18.8728 157.147 18.0738 156.625 17.5201C156.103 16.9505 155.391 16.6658 154.489 16.6658C153.572 16.6658 152.844 16.9505 152.306 17.5201C151.784 18.0738 151.523 18.8728 151.523 19.917V27.1789H148.2V14.0315H151.523V15.669C151.966 15.0995 152.527 14.6565 153.208 14.3401C153.904 14.0078 154.663 13.8417 155.486 13.8417Z" fill="#626262"/>
<path d="M175.163 20.3205C175.163 20.7951 175.131 21.2223 175.068 21.602H165.456C165.535 22.5512 165.868 23.2948 166.453 23.8328C167.039 24.3707 167.758 24.6396 168.613 24.6396C169.847 24.6396 170.725 24.1096 171.247 23.0496H174.83C174.451 24.3153 173.723 25.3595 172.647 26.1822C171.571 26.9891 170.25 27.3925 168.684 27.3925C167.418 27.3925 166.279 27.1156 165.267 26.5619C164.27 25.9923 163.487 25.1934 162.917 24.165C162.363 23.1366 162.086 21.95 162.086 20.6052C162.086 19.2446 162.363 18.0501 162.917 17.0217C163.471 15.9934 164.246 15.2023 165.243 14.6486C166.24 14.0948 167.387 13.818 168.684 13.818C169.934 13.818 171.049 14.0869 172.03 14.6248C173.027 15.1628 173.794 15.9301 174.332 16.9268C174.886 17.9077 175.163 19.0389 175.163 20.3205ZM171.722 19.3712C171.706 18.5168 171.397 17.8365 170.796 17.3303C170.195 16.8082 169.459 16.5471 168.589 16.5471C167.766 16.5471 167.07 16.8002 166.501 17.3065C165.947 17.797 165.607 18.4852 165.48 19.3712H171.722Z" fill="#626262"/>
<path d="M181.67 27.3925C180.594 27.3925 179.629 27.2027 178.774 26.823C177.92 26.4274 177.24 25.8974 176.733 25.2329C176.243 24.5684 175.974 23.8328 175.927 23.0259H179.273C179.336 23.5321 179.581 23.9514 180.008 24.2837C180.451 24.6159 180.997 24.782 181.646 24.782C182.279 24.782 182.769 24.6555 183.117 24.4023C183.481 24.1492 183.663 23.8248 183.663 23.4293C183.663 23.0021 183.442 22.6857 182.999 22.48C182.571 22.2585 181.883 22.0212 180.934 21.7681C179.953 21.5308 179.146 21.2855 178.513 21.0324C177.896 20.7793 177.358 20.3916 176.9 19.8696C176.457 19.3475 176.235 18.6434 176.235 17.7574C176.235 17.0297 176.441 16.3652 176.852 15.764C177.279 15.1628 177.88 14.6881 178.656 14.3401C179.447 13.992 180.372 13.818 181.432 13.818C182.999 13.818 184.248 14.2135 185.182 15.0045C186.115 15.7798 186.63 16.8319 186.724 18.1609H183.544C183.497 17.6388 183.275 17.2274 182.88 16.9268C182.5 16.6104 181.986 16.4522 181.337 16.4522C180.736 16.4522 180.269 16.5629 179.937 16.7844C179.621 17.0059 179.463 17.3144 179.463 17.71C179.463 18.153 179.684 18.4931 180.127 18.7304C180.57 18.9519 181.258 19.1813 182.192 19.4186C183.141 19.656 183.924 19.9012 184.541 20.1543C185.158 20.4075 185.688 20.803 186.131 21.3409C186.59 21.863 186.827 22.5591 186.843 23.4293C186.843 24.1887 186.63 24.869 186.202 25.4702C185.791 26.0714 185.19 26.5461 184.399 26.8941C183.624 27.2264 182.714 27.3925 181.67 27.3925Z" fill="#626262"/>
<path d="M193.652 27.3925C192.576 27.3925 191.611 27.2027 190.757 26.823C189.903 26.4274 189.222 25.8974 188.716 25.2329C188.226 24.5684 187.957 23.8328 187.909 23.0259H191.255C191.319 23.5321 191.564 23.9514 191.991 24.2837C192.434 24.6159 192.98 24.782 193.629 24.782C194.261 24.782 194.752 24.6555 195.1 24.4023C195.464 24.1492 195.646 23.8248 195.646 23.4293C195.646 23.0021 195.424 22.6857 194.981 22.48C194.554 22.2585 193.866 22.0212 192.917 21.7681C191.936 21.5308 191.129 21.2855 190.496 21.0324C189.879 20.7793 189.341 20.3916 188.882 19.8696C188.439 19.3475 188.218 18.6434 188.218 17.7574C188.218 17.0297 188.423 16.3652 188.835 15.764C189.262 15.1628 189.863 14.6881 190.638 14.3401C191.429 13.992 192.355 13.818 193.415 13.818C194.981 13.818 196.231 14.2135 197.165 15.0045C198.098 15.7798 198.612 16.8319 198.707 18.1609H195.527C195.48 17.6388 195.258 17.2274 194.863 16.9268C194.483 16.6104 193.969 16.4522 193.32 16.4522C192.719 16.4522 192.252 16.5629 191.92 16.7844C191.603 17.0059 191.445 17.3144 191.445 17.71C191.445 18.153 191.667 18.4931 192.11 18.7304C192.553 18.9519 193.241 19.1813 194.174 19.4186C195.124 19.656 195.907 19.9012 196.524 20.1543C197.141 20.4075 197.671 20.803 198.114 21.3409C198.573 21.863 198.81 22.5591 198.826 23.4293C198.826 24.1887 198.612 24.869 198.185 25.4702C197.774 26.0714 197.172 26.5461 196.381 26.8941C195.606 27.2264 194.696 27.3925 193.652 27.3925Z" fill="#626262"/>
</svg>
