<svg width="135" height="35" viewBox="0 0 135 35" fill="none" xmlns="http://www.w3.org/2000/svg">
<path fill-rule="evenodd" clip-rule="evenodd" d="M16.1375 7.23782H0V0.391602H22.9837V23.3753H16.1375V7.23782Z" fill="#626262"/>
<path d="M33.7422 33.9864V5.26294H44.3699C46.6678 5.26294 48.569 5.64592 50.0735 6.41188C51.5781 7.17784 52.6997 8.23103 53.4383 9.57146C54.1769 10.9119 54.5462 12.4165 54.5462 14.0852C54.5462 15.6718 54.1906 17.1353 53.4793 18.4757C52.7681 19.7888 51.6602 20.8557 50.1556 21.6764C48.651 22.4697 46.7225 22.8663 44.3699 22.8663H38.9945V33.9864H33.7422ZM38.9945 18.5988H44.0416C45.8744 18.5988 47.1875 18.2022 47.9808 17.4089C48.8015 16.5882 49.2118 15.4803 49.2118 14.0852C49.2118 12.6627 48.8015 11.5548 47.9808 10.7614C47.1875 9.94077 45.8744 9.53043 44.0416 9.53043H38.9945V18.5988Z" fill="#626262"/>
<path d="M65.3393 34.4788C63.2876 34.4788 61.4685 34.0411 59.8818 33.1658C58.2952 32.2904 57.0505 31.0594 56.1478 29.4727C55.2451 27.8861 54.7937 26.0533 54.7937 23.9742C54.7937 21.8679 55.2314 19.994 56.1068 18.3526C57.0095 16.7113 58.2405 15.4393 59.7998 14.5365C61.3864 13.6064 63.2466 13.1414 65.3803 13.1414C67.3773 13.1414 69.1418 13.5791 70.6737 14.4545C72.2056 15.3298 73.3956 16.5335 74.2436 18.0654C75.119 19.57 75.5567 21.2523 75.5567 23.1125C75.5567 23.4135 75.543 23.728 75.5156 24.0563C75.5156 24.3846 75.502 24.7265 75.4746 25.0821H60.0049C60.1144 26.6688 60.6615 27.9135 61.6463 28.8162C62.6585 29.7189 63.8758 30.1703 65.2983 30.1703C66.3651 30.1703 67.2542 29.9378 67.9655 29.4727C68.7041 28.9803 69.2512 28.3512 69.6068 27.5852H74.9412C74.5582 28.8709 73.9153 30.0472 73.0126 31.1141C72.1372 32.1536 71.043 32.9743 69.7299 33.5761C68.4442 34.1779 66.9807 34.4788 65.3393 34.4788ZM65.3803 17.4089C64.0946 17.4089 62.9594 17.7782 61.9746 18.5168C60.9898 19.228 60.3606 20.3223 60.087 21.7995H70.2223C70.1402 20.459 69.6478 19.3922 68.7451 18.5988C67.8424 17.8055 66.7208 17.4089 65.3803 17.4089Z" fill="#626262"/>
<path d="M77.9225 33.9864V13.6338H82.5593L82.9696 17.0806C83.5988 15.877 84.5016 14.9195 85.6779 14.2083C86.8815 13.497 88.2903 13.1414 89.9043 13.1414C92.421 13.1414 94.377 13.9347 95.7721 15.5213C97.1672 17.108 97.8648 19.4332 97.8648 22.497V33.9864H92.6125V22.9894C92.6125 21.2387 92.2569 19.8982 91.5456 18.9681C90.8344 18.0381 89.7265 17.573 88.2219 17.573C86.7447 17.573 85.5274 18.0928 84.5699 19.1323C83.6398 20.1718 83.1748 21.6217 83.1748 23.4818V33.9864H77.9225Z" fill="#626262"/>
<path d="M109.904 33.9864C107.77 33.9864 106.061 33.4667 104.775 32.4272C103.489 31.3876 102.846 29.5411 102.846 26.8876V18.0244H99.3584V13.6338H102.846L103.462 8.17632H108.099V13.6338H113.597V18.0244H108.099V26.9287C108.099 27.9135 108.304 28.5974 108.714 28.9803C109.152 29.336 109.89 29.5138 110.93 29.5138H113.474V33.9864H109.904Z" fill="#626262"/>
<path d="M123.072 34.4788C121.321 34.4788 119.885 34.2053 118.763 33.6582C117.642 33.0837 116.807 32.3314 116.26 31.4013C115.713 30.4712 115.439 29.4454 115.439 28.3238C115.439 26.4363 116.178 24.9043 117.655 23.728C119.132 22.5517 121.348 21.9636 124.303 21.9636H129.473V21.4712C129.473 20.0761 129.076 19.0502 128.283 18.3937C127.49 17.7371 126.505 17.4089 125.328 17.4089C124.262 17.4089 123.331 17.6688 122.538 18.1885C121.745 18.6809 121.252 19.4195 121.061 20.4043H115.932C116.069 18.9271 116.561 17.6414 117.409 16.5472C118.284 15.4529 119.406 14.6186 120.774 14.0441C122.142 13.4423 123.673 13.1414 125.369 13.1414C128.269 13.1414 130.553 13.8663 132.222 15.3162C133.891 16.766 134.725 18.8177 134.725 21.4712V33.9864H130.252L129.76 30.7037C129.158 31.798 128.31 32.7007 127.216 33.412C126.149 34.1232 124.768 34.4788 123.072 34.4788ZM124.262 30.3755C125.766 30.3755 126.929 29.8831 127.749 28.8983C128.597 27.9135 129.131 26.6961 129.35 25.2463H124.877C123.482 25.2463 122.483 25.5062 121.882 26.0259C121.28 26.5183 120.979 27.1338 120.979 27.8724C120.979 28.6657 121.28 29.2813 121.882 29.7189C122.483 30.1566 123.277 30.3755 124.262 30.3755Z" fill="#626262"/>
</svg>
