<svg width="249" height="134" viewBox="0 0 249 134" fill="none" xmlns="http://www.w3.org/2000/svg">
<path d="M111.124 98.0582L36.0774 100.99L36.0051 99.1938L111.057 96.2626L111.124 98.0582Z" fill="#17191D"/>
<path d="M126.457 133.567C59.812 133.567 5.78748 130.367 5.78748 126.419C5.78748 122.473 59.812 119.271 126.457 119.271C151.094 119.271 174.008 119.709 193.104 120.46C198.801 124.236 205.633 126.435 212.982 126.435C218.76 126.435 224.221 125.074 229.06 122.656C240.512 123.749 247.124 125.039 247.124 126.419C247.124 130.367 193.099 133.567 126.457 133.567Z" fill="#E5E5E3"/>
<path d="M152.166 21.5122H140.696V18.2052L152.166 17.4858V21.5122Z" fill="#2D313B"/>
<path d="M152.242 17.5051L140.653 18.2148C140.487 18.2249 140.346 18.0898 140.346 17.9184V16.4567C140.346 16.3043 140.463 16.1741 140.615 16.1636L152.213 15.4561C152.381 15.4423 152.521 15.5815 152.521 15.7526V17.2072C152.521 17.3666 152.401 17.495 152.242 17.5051Z" fill="#ABCBC0"/>
<path d="M123.441 98.3355H108.594V99.9993H112.414V100.99H113.86V99.9993H115.842V100.99H117.289V99.9993H123.441V100.99H128.434V98.3355H123.441Z" fill="#17191D"/>
<path d="M169.521 84.7546C169.308 81.1706 167.002 77.7232 164.655 76.397C163.201 75.5645 160.841 75.078 159.172 74.9803L153.966 74.6666L154.939 79.3339C157.639 79.171 160.736 79.9814 160.736 79.9814C162.325 80.8277 163.274 82.0528 163.827 83.3378C164.999 86.0501 164.439 89.1958 162.523 91.4349L150.782 103.855C146.415 109.523 138.316 108.195 138.316 108.195L94.6829 103.469C86.9628 102.82 82.5939 98.6171 82.5939 98.6171L68.6696 84.4035C66.2504 82.0016 64.688 80.9033 63.3244 80.5878C61.9912 80.2711 60.595 80.9475 60.0859 82.219C58.8009 85.4796 62.9595 89.2264 62.9595 89.2264L75.8245 101.482C81.2969 107.933 88.4604 108.455 88.4604 108.455C88.4604 108.455 128.507 113.756 137.194 114.359C140.338 114.578 143.576 114.395 146.605 113.473C149.381 112.636 151.466 110.929 153.568 108.962C157.176 105.575 160.075 101.439 163.187 97.5997C170.382 88.7672 169.521 84.7546 169.521 84.7546Z" fill="#5D7E7A"/>
<path d="M40.6428 109.565L38.9113 107.643L40.0623 104.826L40.9415 105.688L40.6428 109.565ZM41.2155 102.011L40.9895 105.028L40.2663 104.319L41.2155 102.011ZM41.7654 101.381L41.2635 101.341L41.2155 101.989L40.7548 101.799L39.8864 103.932L38.5291 102.584L38.1694 102.947L39.6786 104.441L38.5359 107.23L34.8029 103.089L34.4237 103.428L38.3218 107.744L35.1128 115.596L35.5837 115.788L38.6968 108.164L40.5934 110.263L40.1518 116.206L40.6533 116.244L41.0647 110.782L44.4121 114.495L44.7894 114.157L41.1164 110.084L41.4109 106.156L48.7489 113.441L49.1105 113.083L41.4637 105.499L41.7654 101.381Z" fill="#17191D"/>
<path d="M16.7784 94.637L18.7042 92.9032L21.5228 94.0564L20.6488 94.9319L16.7784 94.637ZM24.3391 95.2127L21.3135 94.9817L22.0281 94.2687L24.3391 95.2127ZM24.9645 95.7678L25.0024 95.2639L24.3582 95.2194L24.5449 94.7519L22.4204 93.8798L23.7619 92.5244L23.407 92.1665L21.9098 93.6724L19.1223 92.5296L23.2603 88.7996L22.9223 88.4212L18.5983 92.3122L10.7578 89.0927L10.5674 89.5587L18.1869 92.6906L16.0848 94.5823L10.1412 94.1317L10.1053 94.6336L15.5604 95.0483L11.8441 98.3928L12.1816 98.7697L16.2592 95.1067L20.1846 95.4047L12.891 102.733L13.2544 103.089L20.8475 95.456L24.9645 95.7678Z" fill="#17191D"/>
<path d="M31.0728 78.2938L31.263 75.4479L31.9397 76.1381L31.0728 78.2938ZM31.5733 70.9023L33.2899 72.7716L32.14 75.6227L31.3075 74.7708L31.5733 70.9023ZM32.5338 76.0217L33.6735 73.1878L37.3002 77.1304L37.6738 76.7894L33.8805 72.6634L36.9783 64.9571L36.5108 64.7689L33.4969 72.2524L31.6193 70.2068L32.0438 63.8144L31.5418 63.7818L31.1432 69.6944L27.5809 65.8222L27.204 66.165L31.0949 70.3917L30.8344 74.2812L24.1287 67.4021L23.7618 67.7566L30.7899 74.9613L30.5417 78.6516L31.0485 78.6857V78.6415L31.4172 78.7871L32.3234 76.5338L34.1702 78.4255L34.5371 78.0759L32.5338 76.0217Z" fill="#17191D"/>
<path d="M19.3297 79.7086L21.814 79.822L22.9347 82.5238H21.7934L19.3297 79.7086ZM23.9828 85.0201L22.2336 83.0325H23.1507L23.9828 85.0201ZM24.0569 85.8765L24.4405 85.5459L24.4334 85.5392L24.6973 85.4277L23.7002 83.0325H26.0804V82.5238H23.4898L22.3777 79.8475L28.0028 80.1042L28.0264 79.5974L22.1618 79.3336L18.97 71.6699L18.4969 71.8653L21.6014 79.3096L18.8648 79.1827L14.6183 74.329L14.2324 74.6663L18.1645 79.1535L13.1308 78.9222L13.1085 79.4312L18.629 79.6813L21.1201 82.5238H11.1726V83.0325H21.567L24.0569 85.8765Z" fill="#17191D"/>
<path d="M43.0212 76.859L41.0048 77.6353L43.047 75.9442L43.0212 76.859ZM46.4409 73.1256L46.2631 75.6084L43.5385 76.6603L43.5628 75.5141L46.4409 73.1256ZM40.4736 78.0755L40.5781 78.3428L43.0043 77.4055L42.9373 79.7839L43.4479 79.7973L43.5198 77.2105L46.22 76.165L45.8143 81.7883L46.3196 81.8242L46.7426 75.9667L54.4885 72.9853L54.3017 72.5107L46.7871 75.4112L46.981 72.6787L51.9443 68.5598L51.6273 68.1694L47.0323 71.9776L47.3942 66.9578L46.8904 66.9185L46.4925 72.4268L43.5782 74.8407L43.8507 64.8935L43.3435 64.8796L43.0609 75.2742L40.1517 77.6885L40.4736 78.0755Z" fill="#17191D"/>
<path d="M53.4622 87.3674L50.644 86.2793L51.9956 84.9602L55.8727 85.1983L53.4622 87.3674ZM62.733 85.6336L62.7622 85.1261L57.1049 84.7682L60.729 81.5181L60.3891 81.1412L56.3971 84.7237L52.4822 84.4823L59.5327 77.5568L59.1779 77.1937L51.8036 84.4377L47.8872 84.1925L47.8531 84.6964L51.3155 84.9157L50.1282 86.0772L48.1597 85.3128L47.9763 85.786L49.7389 86.4695L48.5434 87.6381L48.8982 87.9978L50.257 86.6667L53.0426 87.7477L49.3025 91.1075L49.6416 91.4863L53.5685 87.9551L61.8695 91.176L62.0529 90.7014L53.9933 87.5729L56.5824 85.2447L62.733 85.6336Z" fill="#17191D"/>
<path d="M28.9996 103.142L31.6313 102.023L29.0063 104.242L28.9996 103.142ZM25.7734 106.978L25.8625 104.468L28.4976 103.354L28.5062 104.663L25.7734 106.978ZM32.0801 101.641L31.9551 101.336L28.9876 102.592L28.955 99.3107L28.4449 99.3174L28.4842 102.804L25.8865 103.909L26.1298 97.2L25.6207 97.1828L25.3707 104.128L17.8527 107.314L18.0518 107.778L25.3467 104.687L25.2528 107.413L21.6085 110.495L21.9341 110.886L25.2303 108.102L25.0244 113.824L25.5267 113.847L25.7513 107.658L28.5115 105.319L28.6054 114.222L29.116 114.216L29.0116 104.896L32.4125 102.028L32.0801 101.641Z" fill="#17191D"/>
<path d="M53.2121 100.799L50.711 100.599L49.7168 97.9245L51.0228 97.9709L53.2121 100.799ZM48.5194 94.7309L50.6234 97.4517L49.5252 97.4139L48.5194 94.7309ZM48.5591 93.9545L48.1597 94.2633L47.8531 94.3779L48.9768 97.3952L45.696 97.2889L45.6803 97.7942L49.1621 97.9091L50.1592 100.556L43.4617 100.018L43.4254 100.525L50.3494 101.08L53.2121 108.729L53.6834 108.549L50.9097 101.123L53.6354 101.341L56.5532 105.117L56.9499 104.807L54.3141 101.395L60.0271 101.851L60.0619 101.345L53.8978 100.854L51.6782 97.993L60.5807 98.286L60.595 97.7755L51.2777 97.4738L48.5591 93.9545Z" fill="#17191D"/>
<path d="M36.0201 115.52C22.1535 115.52 10.9208 104.279 10.9208 90.418C10.9208 76.5554 22.1535 65.3146 36.0201 65.3146C49.8849 65.3146 61.1239 76.5554 61.1239 90.418C61.1239 104.279 49.8849 115.52 36.0201 115.52ZM36.0201 54.3956C16.1293 54.3956 0 70.5231 0 90.418C0 110.309 16.1293 126.434 36.0201 126.434C55.9124 126.434 72.0451 110.309 72.0451 90.418C72.0451 70.5231 55.9124 54.3956 36.0201 54.3956Z" fill="#30302D"/>
<path d="M36.0395 124.559C17.1916 124.559 1.90001 109.271 1.90001 90.418C1.90001 71.5644 17.1916 56.2784 36.0395 56.2784C54.9017 56.2784 70.1825 71.5644 70.1825 90.418C70.1825 109.271 54.9017 124.559 36.0395 124.559ZM36.0395 54.3956C16.1514 54.3956 0.0291748 70.5231 0.0291748 90.418C0.0291748 110.309 16.1514 126.434 36.0395 126.434C55.9397 126.434 72.06 110.309 72.06 90.418C72.06 70.5231 55.9397 54.3956 36.0395 54.3956Z" fill="#404044"/>
<path d="M36.0396 115.521C22.1842 115.521 10.9464 104.279 10.9464 90.4187C10.9464 76.5561 22.1842 65.3153 36.0396 65.3153C49.9085 65.3153 61.1464 76.5561 61.1464 90.4187C61.1464 104.279 49.9085 115.521 36.0396 115.521ZM36.0396 62.7366C20.7532 62.7366 8.36279 75.1308 8.36279 90.4187C8.36279 105.708 20.7532 118.103 36.0396 118.103C51.3328 118.103 63.7288 105.708 63.7288 90.4187C63.7288 75.1308 51.3328 62.7366 36.0396 62.7366Z" fill="#404044"/>
<path d="M36.0396 122.285C41.6494 122.285 47.1435 120.82 51.9563 118.036L51.2998 117.373C46.6707 119.997 41.3989 121.382 36.0396 121.382C18.97 121.382 5.07979 107.493 5.07979 90.4186C5.07979 85.0645 6.46781 79.7961 9.09089 75.1614L8.42754 74.5019C5.6471 79.3264 4.17371 84.816 4.17371 90.4186C4.17371 107.989 18.468 122.285 36.0396 122.285Z" fill="#404044"/>
<path d="M217.167 107.516L215.611 105.797L216.642 103.273L217.425 104.051L217.167 107.516ZM217.675 100.754L217.468 103.455L216.827 102.819L217.675 100.754ZM218.169 100.191L217.72 100.153L217.675 100.731L217.262 100.565L216.481 102.471L215.261 101.267L214.946 101.592L216.294 102.929L215.273 105.424L211.93 101.724L211.598 102.028L215.088 105.89L212.212 112.921L212.63 113.091L215.419 106.265L217.115 108.144L216.717 113.467L217.173 113.5L217.535 108.609L220.538 111.934L220.878 111.627L217.586 107.983L217.85 104.467L224.424 110.99L224.741 110.666L217.895 103.875L218.169 100.191Z" fill="#17191D"/>
<path d="M195.793 94.152L197.518 92.5997L200.044 93.638L199.259 94.4174L195.793 94.152ZM202.557 94.6708L199.859 94.4656L200.501 93.8229L202.557 94.6708ZM203.123 95.1678L203.158 94.7157L202.578 94.6708L202.747 94.2564L200.845 93.4767L202.046 92.2587L201.729 91.9435L200.388 93.2851L197.895 92.264L201.605 88.9281L201.303 88.5886L197.433 92.0734L190.403 89.1868L190.232 89.6064L197.056 92.4092L195.171 94.1003L189.848 93.6979L189.819 94.1486L194.707 94.5218L191.377 97.5185L191.676 97.8561L195.329 94.5701L198.839 94.8407L192.311 101.403L192.636 101.725L199.437 94.8834L203.123 95.1678Z" fill="#17191D"/>
<path d="M208.588 79.5164L208.766 76.9704L209.374 77.5872L208.588 79.5164ZM209.038 72.9046L210.579 74.5752L209.548 77.128L208.802 76.3636L209.038 72.9046ZM209.902 77.4858L210.92 74.9469L214.925 79.2507L215.258 78.9422L211.113 74.479L213.885 67.5745L213.464 67.4098L210.764 74.1092L209.083 72.2792L209.467 66.5534L209.018 66.5208L208.656 71.8203L205.471 68.3504L205.13 68.6588L208.619 72.442L208.384 75.9268L202.374 69.7676L202.046 70.0812L208.338 76.5332L208.117 79.8368L208.567 79.8709L208.574 79.8245L208.9 79.9585L209.719 77.9451L211.369 79.6377L211.694 79.3192L209.902 77.4858Z" fill="#17191D"/>
<path d="M198.08 80.7912L200.299 80.8908L201.31 83.3114H200.285L198.08 80.7912ZM202.245 85.5472L200.685 83.7602H201.5L202.245 85.5472ZM202.312 86.3115L202.655 86.0117V86.005L202.886 85.9125L201.988 83.7602H204.119V83.3114H201.805L200.799 80.9095L205.848 81.1408L205.869 80.6883L200.605 80.4502L197.753 73.5903L197.335 73.7651L200.116 80.4248L197.665 80.3166L193.852 75.9701L193.517 76.2699L197.032 80.2878L192.534 80.0838L192.512 80.5344L197.455 80.7605L199.678 83.3114H190.769V83.7602H200.076L202.312 86.3115Z" fill="#17191D"/>
<path d="M219.291 78.2334L217.483 78.9274L219.313 77.4163L219.291 78.2334ZM222.351 74.8927L222.188 77.1199L219.75 78.0571L219.777 77.0323L222.351 74.8927ZM216.873 79.4346L217.012 79.3197L217.101 79.5615L219.277 78.7253L219.221 80.8513L219.675 80.8637L219.735 78.5486L222.152 77.6151L221.767 82.9108L222.219 82.9434L222.624 77.4317L229.557 74.764L229.396 74.341L222.661 76.9383L222.837 74.49L227.285 70.803L226.994 70.4568L222.884 73.8664L223.207 69.3705L222.759 69.3361L222.394 74.2654L219.791 76.424L220.036 67.5237L219.577 67.5117L219.325 76.8114L216.586 79.0902L216.873 79.4346Z" fill="#17191D"/>
<path d="M228.633 87.6447L226.122 86.6666L227.322 85.486L230.794 85.7035L228.633 87.6447ZM236.942 86.0891L236.971 85.6403L231.905 85.318L235.137 82.4073L234.846 82.0678L231.276 85.2805L227.763 85.0612L234.079 78.8589L233.762 78.5317L227.153 85.0181L223.382 84.7696L223.355 85.2274L226.72 85.4467L225.654 86.4933L223.891 85.8064L223.721 86.2313L225.303 86.838L224.232 87.8831L224.547 88.2121L225.767 87.0196L228.267 87.9842L224.397 91.4656L224.695 91.8081L228.731 88.1691L236.172 91.0543L236.337 90.6328L229.112 87.8281L231.428 85.7413L236.942 86.0891Z" fill="#17191D"/>
<path d="M206.731 101.766L209.092 100.764L206.744 102.751L206.731 101.766ZM203.846 105.202L203.926 102.959L206.282 101.956L206.295 103.132L203.846 105.202ZM209.496 100.423L209.385 100.152L206.731 101.28L206.694 98.3398L206.244 98.3432L206.271 101.472L203.948 102.455L204.164 96.4466L203.713 96.4327L203.484 102.652L196.759 105.505L196.934 105.923L203.468 103.153L203.381 105.594L200.116 108.354L200.411 108.706L203.364 106.211L203.174 111.334L203.626 111.35L203.825 105.811L206.304 103.719L206.385 111.69L206.844 111.686L206.754 103.339L209.791 100.772L209.496 100.423Z" fill="#17191D"/>
<path d="M228.415 99.6721L226.18 99.4921L225.288 97.1006L226.452 97.1362L228.415 99.6721ZM224.217 94.239L226.098 96.672L225.12 96.6413L224.217 94.239ZM224.248 93.5417L223.891 93.8194L223.612 93.9257L224.625 96.6256L221.686 96.5279L221.672 96.9805L224.792 97.0849L225.678 99.4528L219.688 98.9748L219.654 99.4254L225.855 99.9222L228.415 106.771L228.843 106.609L226.356 99.9633L228.791 100.152L231.407 103.541L231.762 103.26L229.401 100.205L234.513 100.611L234.551 100.162L229.026 99.7181L227.042 97.1553L235.005 97.4173L235.021 96.9632L226.687 96.6892L224.248 93.5417Z" fill="#17191D"/>
<path d="M212.982 112.477C200.799 112.477 190.921 102.603 190.921 90.4181C190.921 78.2329 200.799 68.359 212.982 68.359C225.161 68.359 235.036 78.2329 235.036 90.4181C235.036 102.603 225.161 112.477 212.982 112.477ZM212.982 65.3147C199.118 65.3147 187.876 76.5556 187.876 90.4181C187.876 104.279 199.118 115.52 212.982 115.52C226.845 115.52 238.083 104.279 238.083 90.4181C238.083 76.5556 226.845 65.3147 212.982 65.3147Z" fill="#24272F"/>
<path d="M212.982 115.52C199.118 115.52 187.876 104.279 187.876 90.418C187.876 76.5554 199.118 65.3146 212.982 65.3146C226.845 65.3146 238.083 76.5554 238.083 90.418C238.083 104.279 226.845 115.52 212.982 115.52ZM212.982 54.3956C193.084 54.3956 176.963 70.5231 176.963 90.418C176.963 110.309 193.084 126.434 212.982 126.434C232.875 126.434 249 110.309 249 90.418C249 70.5231 232.875 54.3956 212.982 54.3956Z" fill="#30302D"/>
<path d="M212.982 124.559C194.127 124.559 178.836 109.271 178.836 90.418C178.836 71.5644 194.127 56.2784 212.982 56.2784C231.838 56.2784 247.124 71.5644 247.124 90.418C247.124 109.271 231.838 124.559 212.982 124.559ZM212.982 54.3956C193.084 54.3956 176.963 70.5231 176.963 90.418C176.963 110.309 193.084 126.434 212.982 126.434C232.875 126.434 249 110.309 249 90.418C249 70.5231 232.875 54.3956 212.982 54.3956Z" fill="#404044"/>
<path d="M212.982 115.521C199.118 115.521 187.876 104.279 187.876 90.4187C187.876 76.5561 199.118 65.3153 212.982 65.3153C226.845 65.3153 238.083 76.5561 238.083 90.4187C238.083 104.279 226.845 115.521 212.982 115.521ZM212.982 62.7366C197.688 62.7366 185.299 75.1308 185.299 90.4187C185.299 105.708 197.688 118.103 212.982 118.103C228.267 118.103 240.664 105.708 240.664 90.4187C240.664 75.1308 228.267 62.7366 212.982 62.7366Z" fill="#404044"/>
<path d="M92.4794 48.3359H101.05V43.9344H92.4794V48.3359Z" fill="#17191D"/>
<path d="M36.0201 112.477C23.8356 112.477 13.9601 102.603 13.9601 90.4181C13.9601 78.2329 23.8356 68.359 36.0201 68.359C48.2058 68.359 58.0782 78.2329 58.0782 90.4181C58.0782 102.603 48.2058 112.477 36.0201 112.477ZM36.0201 65.3147C22.1535 65.3147 10.9208 76.5556 10.9208 90.4181C10.9208 104.279 22.1535 115.52 36.0201 115.52C49.8849 115.52 61.1239 104.279 61.1239 90.4181C61.1239 76.5556 49.8849 65.3147 36.0201 65.3147Z" fill="#24272F"/>
<path d="M54.6513 74.3118H46.8163V75.4804H54.6513C55.6896 75.4804 56.5378 76.3248 56.5378 77.3699V81.1167H57.7046V77.3699C57.7046 75.6806 56.332 74.3118 54.6513 74.3118Z" fill="#7C2225"/>
<path d="M180.909 12.6392L173.746 15.8089L174.229 16.8798L181.38 13.7098C182.331 13.292 183.456 13.7202 183.875 14.6747L185.391 18.103L186.455 17.6318L184.942 14.1982C184.259 12.6598 182.451 11.9625 180.909 12.6392Z" fill="#7C2225"/>
<path d="M110.961 82.2304L35.9161 79.2973L35.8495 81.091L110.888 84.0244L110.961 82.2304Z" fill="#17191D"/>
<path d="M42.4598 89.9546C42.3602 88.5802 41.8324 87.3176 40.9962 86.3152L41.7194 85.5924C42.7337 86.7812 43.3779 88.2961 43.4824 89.9546H42.4598ZM40.8936 94.6402C41.7433 93.6723 42.3052 92.4471 42.4425 91.1023H43.4618C43.3128 92.7268 42.6428 94.2053 41.6168 95.3615L40.8936 94.6402ZM36.5434 96.8539C37.8797 96.7427 39.0943 96.2318 40.0747 95.4386L40.7974 96.1618C39.6236 97.1365 38.1571 97.7601 36.5434 97.8769V96.8539ZM31.9125 95.396C32.8786 96.1962 34.0865 96.7203 35.4007 96.8453V97.863C33.8072 97.7328 32.3456 97.1009 31.1893 96.1206L31.9125 95.396ZM29.6045 91.1023C29.7434 92.4251 30.2827 93.6296 31.1036 94.5942L30.3789 95.3117C29.3833 94.1589 28.7256 92.7058 28.5766 91.1023H29.6045ZM31.0059 86.3616C30.1922 87.3622 29.6782 88.6011 29.582 89.9546H28.5662C28.6582 88.3219 29.2946 86.8258 30.2827 85.6403L31.0059 86.3616ZM35.4007 83.9923C34.0262 84.124 32.7809 84.6862 31.7957 85.5393L31.0729 84.8232C32.2516 83.7815 33.747 83.1063 35.4007 82.9693V83.9923ZM40.1963 85.5015C39.1909 84.6484 37.9396 84.0948 36.5434 83.9799V82.9588C38.2099 83.0823 39.7284 83.7452 40.9191 84.7787L40.1963 85.5015ZM39.1303 89.9546C39.0603 89.4868 38.8892 89.0499 38.6373 88.673L39.4425 87.8679C39.889 88.4656 40.1858 89.1798 40.2663 89.9546H39.1303ZM38.543 92.2914C38.8102 91.9437 38.9918 91.5391 39.0842 91.1023H40.2424C40.114 91.846 39.804 92.5295 39.3511 93.0947L38.543 92.2914ZM36.5434 93.5214C36.9701 93.4443 37.3617 93.292 37.7102 93.0711L38.5205 93.8815C37.9501 94.2925 37.2819 94.5669 36.5434 94.6574V93.5214ZM34.2796 93.0348C34.6109 93.2613 34.9945 93.4237 35.4007 93.5061V94.6473C34.6861 94.5358 34.0262 94.2566 33.4662 93.8403L34.2796 93.0348ZM32.9474 91.1023C33.0399 91.5189 33.2158 91.9007 33.4513 92.2368L32.6472 93.0419C32.2243 92.4865 31.926 91.8202 31.8062 91.1023H32.9474ZM33.3637 88.731C33.1353 89.096 32.9748 89.5088 32.9149 89.9546H31.7717C31.8507 89.2023 32.1333 88.5049 32.5597 87.9225L33.3637 88.731ZM35.4007 87.333C34.9433 87.4239 34.5165 87.6174 34.1531 87.8933L33.3517 87.0882C33.9236 86.6222 34.6315 86.3051 35.4007 86.1883V87.333ZM37.8404 87.8506C37.4668 87.5867 37.0229 87.4 36.5434 87.3176V86.1801C37.3332 86.2778 38.0564 86.5862 38.6455 87.0504L37.8404 87.8506ZM36.0201 79.1244C29.7946 79.1244 24.7295 84.1944 24.7295 90.4188C24.7295 96.6432 29.7946 101.706 36.0201 101.706C42.2434 101.706 47.3149 96.6432 47.3149 90.4188C47.3149 84.1944 42.2434 79.1244 36.0201 79.1244Z" fill="#17191D"/>
<path d="M222.256 100.21C221.35 99.3069 220.183 97.9773 218.847 98.7604C218.282 99.0894 218.16 99.7576 218.273 100.373C218.398 101.085 218.737 101.791 219.047 102.469C217.218 103.395 215.16 103.916 212.982 103.916C210.433 103.916 208.048 103.208 206.014 101.978C206.698 100.893 207.695 99.4899 206.659 98.3696C206.205 97.8901 205.527 97.9223 204.954 98.1641C204.246 98.4621 203.595 98.9951 202.968 99.466C200.799 97.0708 199.482 93.8925 199.482 90.4182C199.482 89.954 199.504 89.491 199.555 89.0441C200.751 89.2069 202.175 89.3319 202.689 88.0642C202.939 87.4525 202.631 86.8529 202.175 86.4363C201.693 85.9841 201.073 85.6585 200.479 85.3414C202.129 81.2895 205.682 78.221 210.025 77.2463C210.241 78.048 210.409 78.9303 210.81 79.6516C211.113 80.1951 211.614 80.6439 212.27 80.5443C213.906 80.3029 213.877 78.2962 214.055 77.0134L214.06 76.9651C219.148 77.3713 223.458 80.6113 225.382 85.1019C224.671 85.5028 223.864 85.8759 223.263 86.4363C222.808 86.8529 222.491 87.4525 222.74 88.0642C223.341 89.5221 225.126 89.1347 226.4 88.967C226.452 89.4465 226.483 89.9282 226.483 90.4182C226.483 94.2713 224.854 97.7479 222.256 100.21ZM212.982 72.3701C203.026 72.3701 194.929 80.4653 194.929 90.4182C194.929 100.373 203.026 108.464 212.982 108.464C222.933 108.464 231.024 100.373 231.024 90.4182C231.024 80.4653 222.933 72.3701 212.982 72.3701Z" fill="#80A79E"/>
<path d="M212.982 107.298C203.669 107.298 196.098 99.7246 196.098 90.4182C196.098 81.1114 203.669 73.5384 212.982 73.5384C222.293 73.5384 229.86 81.1114 229.86 90.4182C229.86 99.7246 222.293 107.298 212.982 107.298ZM212.982 72.3701C203.026 72.3701 194.929 80.4653 194.929 90.4182C194.929 100.373 203.026 108.464 212.982 108.464C222.933 108.464 231.024 100.373 231.024 90.4182C231.024 80.4653 222.933 72.3701 212.982 72.3701Z" fill="#A3BBAE"/>
<path d="M219.798 89.9287C219.697 88.467 219.137 87.1341 218.258 86.067L219.027 85.2974C220.094 86.5655 220.78 88.1725 220.884 89.9287H219.798ZM218.146 94.8973C219.041 93.8676 219.637 92.5687 219.784 91.1419H220.86C220.713 92.867 219.999 94.4294 218.914 95.6579L218.146 94.8973ZM213.538 97.236C214.946 97.1211 216.234 96.5798 217.276 95.7369L218.044 96.5042C216.806 97.5425 215.24 98.1987 213.538 98.317V97.236ZM208.627 95.6923C209.652 96.5454 210.925 97.099 212.328 97.2289V98.3103C210.63 98.1733 209.092 97.498 207.856 96.46L208.627 95.6923ZM206.179 91.1419C206.326 92.5399 206.9 93.823 207.764 94.8441L207.005 95.6066C205.941 94.3867 205.247 92.8412 205.093 91.1419H206.179ZM207.661 86.1201C206.804 87.1753 206.26 88.4929 206.155 89.9287H205.077C205.182 88.193 205.848 86.6097 206.891 85.3558L207.661 86.1201ZM212.328 83.6081C210.875 83.7489 209.547 84.3433 208.499 85.2499L207.741 84.4837C208.985 83.3854 210.575 82.6709 212.328 82.5253V83.6081ZM217.401 85.2049C216.348 84.3055 215.008 83.7178 213.538 83.5977V82.52C215.299 82.6402 216.908 83.3461 218.169 84.4391L217.401 85.2049ZM216.276 89.9287C216.2 89.4298 216.025 88.9675 215.751 88.57L216.606 87.7132C217.081 88.3473 217.394 89.1045 217.483 89.9287H216.276ZM215.654 92.4025C215.928 92.0346 216.133 91.6041 216.234 91.1419H217.446C217.321 91.9298 216.99 92.6529 216.51 93.2541L215.654 92.4025ZM213.538 93.7048C213.988 93.6258 214.399 93.4648 214.768 93.2301L215.625 94.0869C215.022 94.5219 214.312 94.8131 213.538 94.9093V93.7048ZM211.132 93.1923C211.487 93.4323 211.893 93.6037 212.328 93.6894V94.8973C211.564 94.7843 210.867 94.4878 210.279 94.0472L211.132 93.1923ZM209.724 91.1419C209.823 91.5805 210.005 91.9915 210.264 92.3479L209.409 93.1976C208.951 92.6133 208.634 91.9096 208.517 91.1419H209.724ZM210.168 88.6299C209.918 89.0173 209.753 89.456 209.686 89.9287H208.481C208.567 89.1284 208.862 88.3952 209.311 87.7697L210.168 88.6299ZM212.328 87.1499C211.834 87.249 211.384 87.453 210.993 87.7424L210.145 86.889C210.759 86.3941 211.509 86.0599 212.328 85.9401V87.1499ZM214.91 87.7012C214.504 87.4134 214.04 87.218 213.538 87.1341V85.921C214.37 86.0292 215.131 86.3578 215.755 86.8482L214.91 87.7012ZM212.982 78.4528C206.385 78.4528 201.017 83.8208 201.017 90.4187C201.017 97.0185 206.385 102.381 212.982 102.381C219.577 102.381 224.947 97.0185 224.947 90.4187C224.947 83.8208 219.577 78.4528 212.982 78.4528Z" fill="#24272F"/>
<path d="M226.225 54.6823C201.797 48.3602 185.849 63.2434 181.728 67.722C181.329 68.1454 181.683 68.8259 182.257 68.7637L187.69 68.1607C191.367 65.3066 197.659 61.8233 197.659 61.8233C198.705 61.4018 199.612 61.1619 200.402 61.0421C202.557 60.7232 204.657 61.8458 205.603 63.8042L212.098 80.6956C212.328 81.1871 212.926 81.3911 213.414 81.1478L214.999 80.3598C215.465 80.1334 215.669 79.5768 215.47 79.1003L209.569 61.4206C209.455 60.3414 209.808 59.601 210.257 59.1025C210.781 58.5268 211.529 58.2169 212.314 58.1704C215.734 57.9874 219.394 58.4122 221.067 58.6518C221.686 58.7428 222.305 58.5833 222.803 58.2168L226.392 55.551C226.72 55.3025 226.615 54.7919 226.225 54.6823Z" fill="#34455D"/>
<path d="M215.36 78.7645L214.321 79.2803C213.827 79.5236 213.232 79.3181 213 78.8278L206.511 61.9345C205.559 59.9817 203.456 58.8558 201.31 59.1762C200.521 59.2911 199.608 59.5344 198.558 59.9593C198.558 59.9593 192.272 63.4407 188.595 66.2918L183.159 66.8982C182.96 66.9188 182.789 66.8503 182.665 66.7369C182.302 67.1003 181.992 67.4327 181.728 67.722C181.329 68.1454 181.683 68.8259 182.257 68.7637L187.69 68.1607C191.367 65.3066 197.659 61.8233 197.659 61.8233C198.705 61.4018 199.612 61.1619 200.402 61.0421C202.557 60.7232 204.657 61.8458 205.603 63.8042L212.098 80.6956C212.328 81.1871 212.926 81.3911 213.414 81.1478L214.999 80.3598C215.465 80.1334 215.669 79.5768 215.47 79.1003L215.36 78.7645Z" fill="#293747"/>
<path d="M226.225 54.6908C215.321 51.8636 206.115 53.2635 198.889 56.0783C205.595 54.026 213.745 53.3133 223.158 55.7478C223.552 55.8523 223.651 56.3714 223.324 56.6162L220.657 58.5971C220.804 58.6158 220.941 58.633 221.068 58.6517C221.686 58.7427 222.305 58.5832 222.803 58.2168L226.392 55.5509C226.72 55.3024 226.616 54.7918 226.225 54.6908Z" fill="#40566A"/>
<path d="M147.977 73.1364L155.06 78.4336L167.795 61.4257L160.716 56.13L147.977 73.1364Z" fill="#2D313B"/>
<path d="M169.949 59.2718L162.227 53.4932C161.946 53.2821 161.549 53.3405 161.343 53.6182L159.772 55.7185C159.559 55.9962 159.618 56.3956 159.895 56.6045L167.619 62.3868C167.893 62.6009 168.296 62.5376 168.503 62.2603L170.074 60.1612C170.288 59.8785 170.232 59.4859 169.949 59.2718Z" fill="#3A414F"/>
<path d="M156.354 77.2691L148.73 71.5586C148.637 71.4834 148.471 71.5261 148.375 71.6582L148.185 71.9082C148.089 72.0366 148.096 72.2047 148.199 72.2799L155.819 77.9922C155.921 78.0622 156.08 78.0229 156.181 77.8893L156.364 77.6408C156.46 77.5109 156.46 77.3395 156.354 77.2691Z" fill="#3A414F"/>
<path d="M157.3 76.0026L149.682 70.294C149.578 70.2202 149.417 70.2618 149.319 70.395L149.127 70.6436C149.031 70.7738 149.042 70.94 149.143 71.0171L156.76 76.7276C156.865 76.8028 157.029 76.7601 157.123 76.6299L157.317 76.378C157.411 76.2477 157.406 76.0815 157.3 76.0026Z" fill="#3A414F"/>
<path d="M158.252 74.7396L150.626 69.0359C150.522 68.9554 150.359 68.9999 150.271 69.1287L150.078 69.3821C149.982 69.5157 149.982 69.6786 150.087 69.7504L157.716 75.4628C157.81 75.5399 157.969 75.4968 158.067 75.3651L158.259 75.1147C158.356 74.9848 158.356 74.8186 158.252 74.7396Z" fill="#3A414F"/>
<path d="M159.197 73.4785L151.57 67.768C151.475 67.6943 151.312 67.7388 151.207 67.8657L151.024 68.1176C150.93 68.2479 150.93 68.4141 151.032 68.4912L158.658 74.1983C158.753 74.2769 158.917 74.2323 159.013 74.104L159.203 73.8487C159.301 73.7203 159.301 73.5537 159.197 73.4785Z" fill="#3A414F"/>
<path d="M160.139 72.2148L152.513 66.5077C152.417 66.4272 152.256 66.4718 152.163 66.602L151.968 66.8592C151.87 66.9876 151.881 67.1504 151.973 67.2309L159.604 72.9398C159.705 73.0117 159.858 72.9739 159.962 72.8384L160.147 72.5865C160.243 72.46 160.243 72.2938 160.139 72.2148Z" fill="#3A414F"/>
<path d="M161.086 70.9535L153.469 65.245C153.363 65.1694 153.201 65.2158 153.104 65.3408L152.912 65.5927C152.816 65.7196 152.823 65.8925 152.92 65.9663L160.546 71.6715C160.651 71.752 160.812 71.7059 160.91 71.5775L161.097 71.3271C161.196 71.1935 161.187 71.0292 161.086 70.9535Z" fill="#3A414F"/>
<path d="M162.035 69.692L154.41 63.98C154.307 63.9048 154.144 63.9508 154.046 64.0777L153.863 64.3296C153.767 64.4595 153.767 64.6276 153.869 64.7047L161.489 70.4118C161.591 70.4907 161.755 70.4443 161.852 70.3193L162.044 70.0622C162.14 69.9323 162.14 69.7676 162.035 69.692Z" fill="#3A414F"/>
<path d="M162.978 68.4295L155.352 62.7172C155.259 62.6401 155.088 62.6865 155.001 62.8149L154.809 63.0653C154.712 63.1955 154.712 63.3599 154.816 63.4385L162.436 69.1527C162.537 69.2226 162.7 69.1819 162.793 69.0516L162.986 68.7978C163.084 68.6709 163.084 68.5014 162.978 68.4295Z" fill="#3A414F"/>
<path d="M163.924 67.1628L156.299 61.4524C156.2 61.3805 156.038 61.4217 155.943 61.5486L155.752 61.8057C155.655 61.9337 155.665 62.1003 155.759 62.1755L163.385 67.8879C163.481 67.9612 163.642 67.9171 163.748 67.7902L163.932 67.5364C164.027 67.408 164.027 67.2399 163.924 67.1628Z" fill="#3A414F"/>
<path d="M164.865 65.9012L157.25 60.196C157.145 60.117 156.984 60.1616 156.887 60.2885L156.697 60.5453C156.599 60.6721 156.609 60.8383 156.702 60.914L164.326 66.6244C164.432 66.6996 164.595 66.6532 164.689 66.5267L164.883 66.2767C164.969 66.1445 164.969 65.9802 164.865 65.9012Z" fill="#3A414F"/>
<path d="M165.82 64.638L158.192 58.929C158.09 58.8501 157.928 58.8946 157.833 59.0301L157.649 59.2805C157.55 59.407 157.55 59.5714 157.654 59.6503L165.273 65.3608C165.378 65.4364 165.539 65.3952 165.633 65.2631L165.829 65.0164C165.916 64.8794 165.916 64.7114 165.82 64.638Z" fill="#3A414F"/>
<path d="M166.762 63.3777L159.135 57.6687C159.039 57.5916 158.872 57.6346 158.773 57.763L158.59 58.0198C158.494 58.1486 158.494 58.3148 158.6 58.3885L166.224 64.1008C166.319 64.1708 166.481 64.1281 166.579 63.9994L166.771 63.7509C166.867 63.6206 166.867 63.4548 166.762 63.3777Z" fill="#3A414F"/>
<path d="M64.9227 53.7295H85.3046V50.3595H64.9227V53.7295Z" fill="#24272F"/>
<path d="M147.124 65.8325H129.907V61.5407H147.124V65.8325Z" fill="#24272F"/>
<path d="M142.104 82.0557H150.734V48.3357H142.104V82.0557Z" fill="#17191D"/>
<path d="M162.542 29.1348H173.945V20.6229H162.542V29.1348Z" fill="#17191D"/>
<path d="M180.267 40.222L164.323 44.7983L163.017 40.2355L178.956 35.6592L180.267 40.222Z" fill="#17191D"/>
<path d="M130.661 82.0557H139.289V48.3357H130.661V82.0557Z" fill="#17191D"/>
<path d="M134.053 67.2817H93.8707C93.0539 67.2817 92.3375 66.721 92.1387 65.9245L89.3086 54.4246H134.053V67.2817Z" fill="#24272F"/>
<path d="M134.053 94.0439H92.4794V71.1108C92.4794 70.2473 93.1718 69.5537 94.0354 69.5537H134.053V94.0439Z" fill="#24272F"/>
<path d="M166.423 32.334H184.259V30.6496H166.423V32.334Z" fill="#7C2225"/>
<path d="M166.423 35.3833H184.259V33.7011H166.423V35.3833Z" fill="#7C2225"/>
<path d="M159.654 58.4722H137.97V56.7915H159.654V58.4722Z" fill="#7C2225"/>
<path d="M82.33 79.1003L94.815 56.5238L96.2849 57.3342L83.7946 79.9106L82.33 79.1003Z" fill="#7C2225"/>
<path d="M44.1486 98.9949C43.3502 98.2014 42.3339 97.0399 41.1691 97.7253C40.6656 98.0131 40.5631 98.6008 40.6533 99.1353C40.7648 99.766 41.0647 100.383 41.33 100.975C39.737 101.782 37.9276 102.24 36.0201 102.24C33.7933 102.24 31.7047 101.62 29.9215 100.544C30.5174 99.598 31.3925 98.3646 30.48 97.3828C30.0839 96.9628 29.4929 96.9954 28.9876 97.2028C28.364 97.4648 27.8036 97.9308 27.2523 98.3421C25.3572 96.2434 24.1972 93.4642 24.1972 90.418C24.1972 90.0119 24.2193 89.6058 24.2571 89.2116C25.3107 89.3558 26.5478 89.4635 27.0067 88.3552C27.2261 87.8241 26.9558 87.2963 26.5478 86.9299C26.1365 86.5391 25.59 86.2475 25.0693 85.9668C26.5134 82.4221 29.6318 79.7319 33.4314 78.8841C33.6238 79.5829 33.7713 80.3555 34.1186 80.9881C34.3825 81.4623 34.8264 81.8617 35.4006 81.7711C36.8309 81.5585 36.8088 79.797 36.9667 78.6767V78.6355C41.4229 78.9885 45.1937 81.8239 46.8904 85.7631C46.256 86.1157 45.55 86.4414 45.0241 86.9299C44.6285 87.2963 44.3545 87.8241 44.5663 88.3552C45.0993 89.6316 46.6553 89.294 47.7741 89.1484C47.8206 89.5684 47.8423 89.988 47.8423 90.418C47.8423 93.7932 46.4206 96.8393 44.1486 98.9949ZM36.0201 74.611C27.3032 74.611 20.2063 81.6989 20.2063 90.418C20.2063 99.1353 27.3032 106.225 36.0201 106.225C44.7381 106.225 51.8313 99.1353 51.8313 90.418C51.8313 81.6989 44.7381 74.611 36.0201 74.611Z" fill="#80A79E"/>
<path d="M36.0201 105.045C27.9594 105.045 21.394 98.4825 21.394 90.418C21.394 82.3517 27.9594 75.7897 36.0201 75.7897C44.0887 75.7897 50.644 82.3517 50.644 90.418C50.644 98.4825 44.0887 105.045 36.0201 105.045ZM36.0201 74.611C27.3032 74.611 20.2063 81.6989 20.2063 90.418C20.2063 99.1353 27.3032 106.225 36.0201 106.225C44.7381 106.225 51.8313 99.1353 51.8313 90.418C51.8313 81.6989 44.7381 74.611 36.0201 74.611Z" fill="#A3BBAE"/>
<path d="M41.6767 90.0128C41.5959 88.7996 41.1246 87.6947 40.3932 86.8057L41.0355 86.1802C41.9215 87.2253 42.4886 88.5563 42.5758 90.0128H41.6767ZM40.3041 94.1317C41.0512 93.2767 41.5356 92.1972 41.661 91.0152H42.5657C42.4268 92.4473 41.841 93.7443 40.9416 94.7639L40.3041 94.1317ZM36.4832 96.0713C37.6499 95.9751 38.7193 95.5245 39.5795 94.8305L40.2184 95.4646C39.1909 96.3232 37.9037 96.8694 36.4832 96.9689V96.0713ZM32.4126 94.7946C33.2592 95.4938 34.3249 95.9512 35.4759 96.0642V96.9637C34.0707 96.8454 32.7981 96.2888 31.7803 95.4253L32.4126 94.7946ZM30.3789 91.0152C30.4998 92.18 30.9752 93.2408 31.6984 94.0871L31.0624 94.7175C30.1884 93.7083 29.6097 92.4267 29.4828 91.0152H30.3789ZM31.607 86.8566C30.8992 87.7306 30.4504 88.8221 30.3632 90.0128H29.4656C29.5495 88.5735 30.1061 87.2612 30.9752 86.2176L31.607 86.8566ZM35.4759 84.7683C34.2718 84.8847 33.1803 85.38 32.3078 86.1338L31.674 85.5016C32.709 84.5849 34.0262 83.9939 35.4759 83.8741V84.7683ZM39.6925 86.096C38.8102 85.3492 37.6997 84.8626 36.4832 84.7649V83.8655C37.943 83.9699 39.2793 84.5524 40.3281 85.4623L39.6925 86.096ZM38.7552 90.0128C38.6882 89.5984 38.543 89.2177 38.3218 88.8838L39.0296 88.176C39.42 88.7019 39.6786 89.3259 39.7524 90.0128H38.7552ZM38.2394 92.0621C38.4678 91.7552 38.6373 91.4041 38.7193 91.0152H39.7232C39.6188 91.6713 39.3466 92.2743 38.9469 92.7677L38.2394 92.0621ZM36.4832 93.1465C36.8534 93.078 37.1996 92.9444 37.5013 92.7508L38.2173 93.4602C37.7154 93.8232 37.1259 94.0647 36.4832 94.1436V93.1465ZM34.4859 92.7201C34.7804 92.917 35.1226 93.0574 35.4759 93.1274V94.1332C34.8489 94.0407 34.2646 93.7907 33.7762 93.4291L34.4859 92.7201ZM33.3206 91.0152C33.4026 91.3835 33.5568 91.7192 33.7627 92.0138L33.0635 92.7213C32.6779 92.2369 32.4212 91.6522 32.3167 91.0152H33.3206ZM33.6923 88.937C33.4835 89.2574 33.3517 89.6205 33.2899 90.0128H32.2838C32.3613 89.348 32.6061 88.7382 32.9834 88.2239L33.6923 88.937ZM35.4759 87.7085C35.0769 87.7871 34.6981 87.9619 34.3762 88.1981L33.6684 87.4959C34.1823 87.0797 34.8029 86.8057 35.4759 86.7061V87.7085ZM37.6211 88.1659C37.2868 87.9294 36.8998 87.7665 36.4832 87.6947V86.6923C37.1723 86.7795 37.8056 87.0505 38.3285 87.4566L37.6211 88.1659ZM36.0201 80.4986C30.5549 80.4986 26.1006 84.9499 26.1006 90.4189C26.1006 95.8861 30.5549 100.335 36.0201 100.335C41.491 100.335 45.9408 95.8861 45.9408 90.4189C45.9408 84.9499 41.491 80.4986 36.0201 80.4986Z" fill="#24272F"/>
<path d="M80.5295 87.2852L74.6356 86.4168L80.4179 47.1353L86.3118 48.0074L80.5295 87.2852Z" fill="#17191D"/>
<path d="M85.1399 59.6093L78.1976 58.5867C77.7642 58.5264 77.3663 58.8266 77.3 59.2582L77.2431 59.6696C77.1746 60.1064 77.4756 60.5073 77.9064 60.5687L84.8453 61.5916C85.2821 61.6568 85.683 61.3603 85.7515 60.9201L85.8114 60.5088C85.8679 60.0805 85.5749 59.671 85.1399 59.6093Z" fill="#ABCBC0"/>
<path d="M84.6088 63.2074L77.6695 62.1844C77.233 62.1207 76.8352 62.4206 76.7689 62.8525L76.7086 63.2639C76.6435 63.6988 76.9467 64.1016 77.382 64.1648L84.321 65.1859C84.751 65.253 85.1553 64.9531 85.2204 64.5178L85.2822 64.1031C85.3492 63.6696 85.0423 63.2687 84.6088 63.2074Z" fill="#ABCBC0"/>
<path d="M84.0758 66.8041L77.1387 65.783C76.7086 65.7164 76.3029 66.0162 76.2374 66.4496L76.179 66.861C76.1124 67.2959 76.4155 67.7002 76.8505 67.762L83.7913 68.7864C84.2281 68.8482 84.6256 68.545 84.6893 68.1149L84.751 67.7039C84.8143 67.2653 84.513 66.8659 84.0758 66.8041Z" fill="#ABCBC0"/>
<path d="M83.5536 70.3999L76.6146 69.3788C76.1789 69.3118 75.7747 69.6082 75.7081 70.0436L75.6482 70.4564C75.5879 70.8932 75.884 71.2922 76.3182 71.3592L83.2586 72.3807C83.6939 72.4421 84.0911 72.1404 84.1577 71.7107L84.2198 71.2979C84.285 70.8573 83.9866 70.4598 83.5536 70.3999Z" fill="#ABCBC0"/>
<path d="M83.0239 73.9917L76.0816 72.9739C75.6482 72.9069 75.2417 73.2034 75.1837 73.6368L75.1238 74.0515C75.0586 74.485 75.3585 74.8892 75.7885 74.9548L82.7275 75.974C83.1628 76.0373 83.5671 75.7374 83.6269 75.3073L83.6939 74.893C83.752 74.4577 83.4589 74.0568 83.0239 73.9917Z" fill="#ABCBC0"/>
<path d="M82.4909 77.5877L75.5523 76.5629C75.1151 76.5011 74.7176 76.7976 74.6525 77.2344L74.5907 77.6491C74.5289 78.0792 74.8291 78.4805 75.2573 78.5486L82.203 79.5682C82.6316 79.6314 83.0377 79.3335 83.1029 78.9034L83.1627 78.4887C83.2245 78.0537 82.9262 77.651 82.4909 77.5877Z" fill="#ABCBC0"/>
<path d="M81.9617 81.18L75.0212 80.157C74.5859 80.0937 74.1899 80.3936 74.1214 80.8304L74.0615 81.2432C73.9945 81.6752 74.2981 82.0794 74.733 82.1449L81.672 83.1642C82.1006 83.2241 82.5082 82.9276 82.5718 82.4942L82.6317 82.0832C82.6987 81.6494 82.3951 81.2451 81.9617 81.18Z" fill="#ABCBC0"/>
<path d="M193.632 12.6855V35.6538C193.632 35.6538 179.323 34.6825 179.323 22.513C179.323 22.513 178.836 13.0744 193.632 12.6855Z" fill="#2D313B"/>
<path d="M193.632 12.6855C193.632 12.6855 196.847 13.9993 197.335 15.7986V32.7825C197.335 32.7825 196.413 35.1695 193.632 35.6538V12.6855Z" fill="#3A414F"/>
<path d="M193.632 15.7896V32.5459C193.632 32.5459 179.323 31.8362 179.323 22.9632C179.323 22.9632 178.836 16.0737 193.632 15.7896Z" fill="#1E2128"/>
<path d="M193.632 19.9585H197.335V17.125L193.632 15.7063V19.9585Z" fill="#4D5563"/>
<path d="M193.632 27.9355H197.335V26.332H193.632V27.9355Z" fill="#4D5563"/>
<path d="M193.632 33.1084L197.335 31.6845V28.8559H193.632V33.1084Z" fill="#4D5563"/>
<path d="M193.632 20.6232V27.7148C193.632 27.7148 179.323 27.4113 179.323 23.6626C179.323 23.6626 178.836 20.7482 193.632 20.6232Z" fill="#2D313B"/>
<path d="M85.5595 80.0839L84.0911 86.2585H80.9132V94.1912L92.9779 95.2295L102.326 96.6792C102.938 96.7732 103.496 96.3536 103.581 95.745L105.704 80.0839H85.5595Z" fill="#17191D"/>
<path d="M106.632 86.368L104.686 98.6304H134.622L137.173 86.368H106.632Z" fill="#17191D"/>
<path d="M139.661 99.7871L95.2174 89.9855L95.9593 86.5774L140.408 96.388L139.661 99.7871Z" fill="#2D313B"/>
<path d="M81.9617 50.349L121.916 63.8447L130.125 62.4864L148.877 49.4716L81.9617 50.349Z" fill="#C5D3C0"/>
<path d="M139.374 55.1436L86.6623 50.821L85.2545 50.3558C85.2553 50.3539 85.2564 50.3516 85.2571 50.3494L146.329 50.3565L139.374 55.1436Z" fill="#ADBAA8"/>
<path d="M133.036 102.148L152.188 105.417L157.26 75.6874L138.107 72.4163L133.036 102.148Z" fill="#2D313B"/>
<path d="M153.347 103.145L132.695 99.6226C132.426 99.5747 132.174 99.7203 132.136 99.9483L132.063 100.39C132.016 100.613 132.208 100.836 132.482 100.885L153.124 104.404C153.398 104.452 153.655 104.307 153.697 104.083L153.767 103.639C153.813 103.414 153.62 103.193 153.347 103.145Z" fill="#3A414F"/>
<path d="M153.714 100.936L133.08 97.4138C132.797 97.3693 132.549 97.5116 132.513 97.7376L132.431 98.1831C132.395 98.411 132.587 98.6304 132.861 98.6783L153.503 102.196C153.781 102.245 154.031 102.103 154.07 101.874L154.144 101.428C154.192 101.205 153.996 100.983 153.714 100.936Z" fill="#3A414F"/>
<path d="M154.099 98.7301L133.447 95.2112C133.174 95.1595 132.924 95.3051 132.885 95.5331L132.815 95.9751C132.77 96.2012 132.966 96.4224 133.233 96.4704L153.885 99.993C154.152 100.038 154.41 99.8919 154.445 99.6654L154.52 99.2253C154.565 98.9958 154.375 98.7746 154.099 98.7301Z" fill="#3A414F"/>
<path d="M154.476 96.5228L133.834 93.0002C133.553 92.9523 133.301 93.0994 133.263 93.3239L133.193 93.766C133.151 93.9921 133.339 94.2133 133.618 94.2579L154.253 97.782C154.536 97.8299 154.786 97.6824 154.821 97.4582L154.903 97.018C154.939 96.7882 154.749 96.5707 154.476 96.5228Z" fill="#3A414F"/>
<path d="M154.853 94.3147L134.211 90.7902C133.937 90.7442 133.677 90.8913 133.642 91.1125L133.563 91.556C133.522 91.7855 133.712 92.0067 133.986 92.0512L154.639 95.5754C154.914 95.6218 155.165 95.4762 155.197 95.2467L155.273 94.808C155.315 94.582 155.122 94.3607 154.853 94.3147Z" fill="#3A414F"/>
<path d="M155.227 92.1064L134.581 88.5853C134.305 88.5373 134.053 88.6848 134.018 88.9128L133.942 89.3496C133.904 89.5775 134.088 89.7965 134.37 89.85L155.014 93.3674C155.287 93.4135 155.538 93.2694 155.576 93.0418L155.655 92.6012C155.693 92.3718 155.499 92.1509 155.227 92.1064Z" fill="#3A414F"/>
<path d="M155.604 89.8975L134.96 86.3768C134.687 86.327 134.43 86.4763 134.394 86.7039L134.319 87.1445C134.276 87.3672 134.477 87.5884 134.746 87.6378L155.393 91.1589C155.665 91.205 155.912 91.0608 155.958 90.8366L156.033 90.3912C156.071 90.1685 155.876 89.9424 155.604 89.8975Z" fill="#3A414F"/>
<path d="M155.982 87.6888L135.336 84.1699C135.063 84.1167 134.806 84.2672 134.766 84.4899L134.694 84.9357C134.66 85.1652 134.848 85.3864 135.121 85.4272L155.766 88.9498C156.039 88.9996 156.299 88.8521 156.327 88.6245L156.41 88.1806C156.445 87.9612 156.254 87.7352 155.982 87.6888Z" fill="#3A414F"/>
<path d="M156.354 85.4857L135.715 81.9631C135.44 81.9152 135.182 82.0555 135.143 82.2854L135.071 82.7289C135.035 82.9554 135.225 83.1758 135.498 83.2208L156.142 86.7449C156.415 86.7913 156.666 86.6438 156.71 86.4192L156.782 85.9809C156.822 85.7529 156.628 85.5269 156.354 85.4857Z" fill="#3A414F"/>
<path d="M156.733 83.2777L136.09 79.7532C135.816 79.7072 135.557 79.8542 135.52 80.0788L135.45 80.5209C135.408 80.747 135.602 80.9663 135.876 81.0142L156.52 84.5369C156.794 84.5848 157.051 84.4377 157.087 84.2078L157.159 83.7692C157.2 83.5449 157.007 83.3222 156.733 83.2777Z" fill="#3A414F"/>
<path d="M157.109 81.0669L136.467 77.5428C136.193 77.4964 135.943 77.6454 135.898 77.8681L135.825 78.3101C135.786 78.5415 135.977 78.7593 136.252 78.8053L156.893 82.3298C157.168 82.3744 157.425 82.2303 157.464 82.0008L157.536 81.564C157.572 81.3357 157.384 81.1133 157.109 81.0669Z" fill="#3A414F"/>
<path d="M157.486 78.8605L136.841 75.3379C136.568 75.2915 136.31 75.439 136.277 75.6632L136.197 76.1037C136.161 76.3313 136.356 76.5507 136.628 76.6004L157.27 80.1197C157.545 80.1676 157.8 80.0239 157.841 79.7959L157.913 79.3554C157.949 79.124 157.755 78.9066 157.486 78.8605Z" fill="#3A414F"/>
<path d="M170.266 20.8577L160.43 23.4229L159.544 20.0559L169.382 17.4859L170.266 20.8577Z" fill="#2D313B"/>
<path d="M176.682 29.8252L156.327 50.3594L153.858 47.9058L174.205 27.3716L176.682 29.8252Z" fill="#2D313B"/>
<path d="M152.729 50.1798L96.9617 88.5581L94.9895 85.6935L150.759 47.3081L152.729 50.1798Z" fill="#2D313B"/>
<path d="M96.0106 90.3037L77.7589 48.6136L80.9525 47.2174L99.1997 88.9042L96.0106 90.3037Z" fill="#2D313B"/>
<path d="M126.678 67.7104L79.7858 52.2152L80.8769 48.91L127.772 64.4019L126.678 67.7104Z" fill="#2D313B"/>
<path d="M169.839 50.3594L81.9617 50.3489V46.8689L169.839 46.8742V50.3594Z" fill="#2D313B"/>
<mask id="mask0_128_84" style="mask-type:luminance" maskUnits="userSpaceOnUse" x="85" y="48" width="83" height="3">
<path d="M165.227 50.3589L156.328 50.3578H156.325L152.47 50.3574L146.329 50.3566L85.2571 50.3495C85.4712 49.8131 85.5891 49.2277 85.5891 48.615C85.5891 48.6146 85.5891 48.6142 85.5891 48.6139L167.188 48.6202L165.227 50.3589Z" fill="white"/>
</mask>
<g mask="url(#mask0_128_84)">
<path d="M85.2571 50.3589H167.188V48.6138H85.2571V50.3589Z" fill="#272A31"/>
</g>
<path d="M25.9598 43.0073L25.84 44.8029C25.782 45.7349 26.4809 46.5352 27.4046 46.5936L77.7848 49.9238L78.0093 46.4495L25.9598 43.0073Z" fill="#2D313B"/>
<path d="M182.909 39.3276L154.476 64.5459L152.166 61.94L180.603 36.7269L182.909 39.3276Z" fill="#2D313B"/>
<path d="M183.662 40.9894L154.088 67.2153L153.323 66.357L182.893 40.1326L183.662 40.9894Z" fill="#17191D"/>
<path d="M157.133 48.3017L152.508 63.8535L149.167 62.8631L153.796 47.3079L157.133 48.3017Z" fill="#2D313B"/>
<path d="M181.543 28.6215L176.198 31.1436L174.602 27.7699L179.952 25.2478L181.543 28.6215Z" fill="#2D313B"/>
<path d="M184.927 6.59304L182.436 1.30742C182.146 0.702541 181.426 0.445759 180.812 0.729859L172.089 4.84876C171.479 5.13847 171.225 5.86125 171.503 6.46801L174.006 11.7465C174.285 12.3566 175.007 12.6172 175.62 12.3274L184.348 8.20854C184.951 7.92257 185.216 7.19942 184.927 6.59304Z" fill="#2D313B"/>
<path d="M183.181 1.73051L171.35 7.31445L170.54 5.58552L182.369 7.70802e-05L183.181 1.73051Z" fill="#3A414F"/>
<path d="M185.711 37.0278L179.13 40.1323L176.963 35.5272L183.536 32.4242L185.711 37.0278Z" fill="#2D313B"/>
<path d="M175.613 16.9463L169.991 19.5986L168.642 16.7269L174.259 14.0697L175.613 16.9463Z" fill="#2D313B"/>
<path d="M177.671 19.886L172.33 22.4062L170.597 18.738L175.939 16.2126L177.671 19.886Z" fill="#17191D"/>
<path d="M195.101 56.9199L191.347 58.6948L181.947 38.8014L185.712 37.028L195.101 56.9199Z" fill="#2D313B"/>
<path d="M178.646 9.95597L172.495 12.8599L170.569 8.77017L176.712 5.86965L178.646 9.95597Z" fill="#3A414F"/>
<path d="M178.151 11.4821L173.991 13.4424L173.496 12.3868L177.649 10.4269L178.151 11.4821Z" fill="#17191D"/>
<path d="M199.296 52.1003L197.556 48.4268C197.504 48.3123 197.366 48.2658 197.253 48.3156L190.292 51.5998C190.18 51.6582 190.128 51.7937 190.18 51.912L191.916 55.5817C191.972 55.6962 192.102 55.7427 192.222 55.6895L199.177 52.4049C199.296 52.3522 199.349 52.2152 199.296 52.1003Z" fill="#ABCBC0"/>
<path d="M201.949 61.1222L197.192 63.3699L206.201 82.4395L210.947 80.1951L201.949 61.1222Z" fill="#ABCBC0"/>
<path d="M206.201 82.4395L208.64 81.2858L208.641 81.2881L206.201 82.4395Z" fill="#202329"/>
<path d="M197.192 63.3706L199.632 62.2159L199.633 62.2174L197.192 63.3706Z" fill="#2B2A28"/>
<path d="M206.201 82.4395L205.545 81.0508L203.406 76.522L202.9 75.4526L199.859 69.0141L198.751 66.6679L197.192 63.3699L199.633 62.2167L208.64 81.2858L206.201 82.4395Z" fill="#96B3AA"/>
<path d="M198.683 52.64L192.717 55.4586L196.586 63.6533L202.557 60.8366L198.683 52.64Z" fill="#3A414F"/>
<path d="M214.483 93.955L214.576 93.9071C216.2 93.1465 216.897 91.2053 216.128 89.5894L211.564 79.9094L205.588 82.7276L210.164 92.4065C210.925 94.0291 212.859 94.7208 214.483 93.955Z" fill="#3A414F"/>
<path d="M85.589 48.6146C85.589 51.197 83.4967 53.292 80.9132 53.292C78.3331 53.292 76.2373 51.197 76.2373 48.6146C76.2373 46.0297 78.3331 43.9339 80.9132 43.9339C83.4967 43.9339 85.589 46.0297 85.589 48.6146Z" fill="#2D313B"/>
<path d="M80.9132 51.9849C79.0541 51.9849 77.543 50.4771 77.543 48.6146C77.543 46.7543 79.0541 45.2379 80.9132 45.2379C82.7739 45.2379 84.285 46.7543 84.285 48.6146C84.285 50.4771 82.7739 51.9849 80.9132 51.9849Z" fill="#272A31"/>
<path d="M154.831 65.3837C154.831 67.7066 152.946 69.5879 150.626 69.5879C148.303 69.5879 146.42 67.7066 146.42 65.3837C146.42 63.0603 148.303 61.1738 150.626 61.1738C152.946 61.1738 154.831 63.0603 154.831 65.3837Z" fill="#2D313B"/>
<path d="M129.163 59.2068H126.988C126.463 59.2068 126.036 59.6354 126.036 60.1613V67.5251C126.036 68.0547 126.463 68.4829 126.988 68.4829H129.163C129.692 68.4829 130.125 68.0547 130.125 67.5251V60.1613C130.125 59.6354 129.692 59.2068 129.163 59.2068Z" fill="#3A414F"/>
<path d="M122.999 59.2068H120.83C120.301 59.2068 119.87 59.6354 119.87 60.1613V67.5251C119.87 68.0547 120.301 68.4829 120.83 68.4829H122.999C123.53 68.4829 123.957 68.0547 123.957 67.5251V60.1613C123.957 59.6354 123.53 59.2068 122.999 59.2068Z" fill="#3A414F"/>
<path d="M108.482 75.1918L123.739 78.7642L125.86 69.7313L110.6 66.1559L108.482 75.1918Z" fill="#3A414F"/>
<path d="M125.033 73.2563L125.497 71.2785L125.499 71.2789L125.033 73.2563Z" fill="#1F2227"/>
<path d="M109.803 69.5537H109.802L110.019 68.6318L109.803 69.5537Z" fill="#DBDAD9"/>
<path d="M109.621 70.3306L109.618 70.3298L109.802 69.5539H109.803L109.621 70.3306Z" fill="#1F2227"/>
<path d="M124.88 73.9023L109.621 70.3307L109.803 69.554L110.019 68.6321L110.238 67.7068L125.497 71.2788L125.033 73.2567L124.88 73.9023Z" fill="#323742"/>
<path d="M123.739 78.7642L124.352 76.1537L124.356 76.1549L123.739 78.7642Z" fill="#1F2227"/>
<path d="M123.739 78.7642L114.378 76.5722L109.799 75.5002L108.482 75.1918L109.094 72.581L124.352 76.1537L123.739 78.7642Z" fill="#323742"/>
<path d="M123.957 68.4829H126.037V60.5655H123.957V68.4829Z" fill="#2D313B"/>
<path d="M116.396 83.9644H107.804C107.478 83.9644 107.214 84.2283 107.214 84.5539V88.1795C107.214 88.5047 107.478 88.7705 107.804 88.7705H116.396C116.73 88.7705 116.987 88.5047 116.987 88.1795V84.5539C116.987 84.2283 116.73 83.9644 116.396 83.9644Z" fill="#3A414F"/>
<path d="M123.272 83.9644H118.574C118.246 83.9644 117.981 84.2283 117.981 84.5539V88.1795C117.981 88.5047 118.246 88.7705 118.574 88.7705H123.272C123.593 88.7705 123.861 88.5047 123.861 88.1795V84.5539C123.861 84.2283 123.593 83.9644 123.272 83.9644Z" fill="#3A414F"/>
<path d="M85.589 57.8262L86.2549 57.2662C86.7108 56.8754 87.3052 56.692 87.9019 56.7538L96.0244 57.578L83.7021 53.5037L85.589 57.8262Z" fill="#17191D"/>
<path d="M108.379 75.9448L95.7605 72.119L97.8184 63.237L110.798 65.4608L108.379 75.9448Z" fill="#644B5D"/>
<path d="M196.149 48.8395L191.389 51.082L173.696 13.5894L178.445 11.345L196.149 48.8395Z" fill="#3A414F"/>
<path d="M196.149 48.8397L193.771 49.9619L176.069 12.4674L178.445 11.3452L196.149 48.8397Z" fill="#4B5363"/>
<path d="M198.683 52.6399L195.856 53.9728L199.732 62.1709L202.557 60.8365L198.683 52.6399Z" fill="#4B5363"/>
<path d="M83.6422 94.1914H28.9995V86.2673H83.6422V94.1914Z" fill="#17191D"/>
<path d="M83.6422 92.457H28.9995V88.0249H83.6422V92.457Z" fill="#2D313B"/>
<path d="M93.4443 84.3994H41.0048V77.1932H90.2964L93.4443 84.3994Z" fill="#17191D"/>
<path d="M42.0311 84.2009L36.4831 86.2671H28.9995L41.0047 81.662L42.0311 84.2009Z" fill="#17191D"/>
<path d="M215.338 92.805L200.605 96.7783L200.152 95.0906L214.879 91.1191L215.338 92.805Z" fill="#3A414F"/>
<path d="M212.196 86.3613L201.156 83.0479L201.657 81.3722L212.698 84.6874L212.196 86.3613Z" fill="#3A414F"/>
<path d="M196.108 66.8438L180.878 34.1123L179.823 34.6008L195.054 67.3405C195.75 68.8328 196.118 70.5015 196.118 72.1515V81.3726H197.284V72.1515C197.284 70.3286 196.876 68.4971 196.108 66.8438Z" fill="#7C2225"/>
<path d="M182.643 36.8758L178.35 38.896L167.715 16.3641L171.998 14.3424L182.643 36.8758Z" fill="#3A414F"/>
<path d="M178.512 38.8188L180.495 37.8861V37.8865L178.512 38.8188Z" fill="#282C34"/>
<path d="M178.35 38.896L178.292 38.7751L174.912 31.6119L173.328 28.257L169.883 20.958L168.369 17.7509L167.715 16.3641L169.855 15.355L180.495 37.8869L178.512 38.8193L178.35 38.896Z" fill="#343A46"/>
<path d="M108.558 75.1592L95.9148 71.4636L97.6662 63.9116L110.622 66.2431L108.558 75.1592Z" fill="#54364A"/>
<path d="M108.741 74.3735L96.0623 70.8079L97.5 64.5869L110.437 67.0333L108.741 74.3735Z" fill="#644B5D"/>
<path d="M108.919 73.6211L96.2131 70.1793L97.3507 65.231L110.261 67.7823L108.919 73.6211Z" fill="#54364A"/>
<path d="M109.109 72.7769L96.374 69.4736L97.1844 65.9577L110.069 68.6269L109.109 72.7769Z" fill="#644B5D"/>
<path d="M109.289 72.0054L96.5197 68.8256L97.0306 66.622L109.892 69.4028L109.289 72.0054Z" fill="#54364A"/>
<path d="M109.464 71.2344L96.6738 68.1849L96.8793 67.282L109.714 70.1702L109.464 71.2344Z" fill="#644B5D"/>
<path d="M105.422 75.048L106.275 75.3066L108.594 65.085L107.716 64.9327L105.422 75.048Z" fill="#75576D"/>
<path d="M97.1107 72.5299L97.966 72.79L100.046 63.6202L99.1702 63.4697L97.1107 72.5299Z" fill="#75576D"/>
<path d="M168.652 24.3183C167.885 19.934 163.99 19.2592 163.99 19.2592C157.956 18.5016 144.822 18.082 144.822 18.082C112.921 19.0364 100.717 34.3498 99.0125 37.1047C98.8808 37.3211 98.7812 37.5486 98.7112 37.7938L96.6638 45.3923C96.374 46.8832 99.3157 46.9067 99.3157 46.9067H164.907C170.105 46.9067 170.326 41.9348 170.326 41.9348L168.652 24.3183Z" fill="#34455D"/>
<path d="M164.907 46.9067C168.173 46.9067 169.477 44.9416 169.991 43.4803C170.253 42.7538 170.333 41.9812 170.259 41.2116L169.543 33.6798L161.224 46.9067H164.907Z" fill="#24303E"/>
<path d="M144.246 21.5333C144.246 21.5333 157.921 21.951 164.199 22.7086C164.199 22.7086 167.929 23.3356 168.931 27.2658L168.652 24.3189C167.885 19.9346 163.99 19.2597 163.99 19.2597C157.956 18.5021 144.822 18.0825 144.822 18.0825C112.922 19.037 100.717 34.3503 99.0126 37.1053C98.8808 37.3216 98.7812 37.5492 98.7112 37.7944L98.6577 37.9946C103.601 32.7416 117.039 22.3144 144.246 21.5333Z" fill="#40566A"/>
<path d="M168.491 45.5757H96.648C96.6293 46.8832 99.3157 46.9067 99.3157 46.9067H164.907C166.549 46.9067 167.693 46.4119 168.491 45.7348V45.5757Z" fill="#24303E"/>
<path d="M170.326 41.9355L170.273 41.3745C170.272 41.3685 170.272 41.3621 170.271 41.3561L170.326 41.9355Z" fill="#17171B"/>
<path d="M169.976 38.2373L169.833 36.7345L169.836 36.7322L169.977 38.2369L169.976 38.2373Z" fill="#E5E5E3"/>
<path d="M170.095 39.4893L169.976 38.2376L169.977 38.2372L170.095 39.4893Z" fill="#17171B"/>
<path d="M169.833 36.7344L169.6 34.2782H169.605L169.836 36.7321L169.833 36.7344Z" fill="#282C34"/>
<path d="M164.907 46.9067C164.913 46.9067 164.918 46.9067 164.924 46.9067C164.919 46.9067 164.913 46.9067 164.907 46.9067ZM99.3157 46.9067C99.3157 46.9067 96.6432 46.885 96.6436 45.5925C96.6439 45.5289 96.6503 45.4623 96.6638 45.3923L98.7112 37.7938L98.6577 37.9941C99.6616 36.9277 101.016 35.6475 102.764 34.2779H169.167L162.061 45.5757H96.648C96.6293 46.8832 99.3157 46.9067 99.3157 46.9067ZM168.491 45.7337V45.7329C169.283 45.0603 169.735 44.2076 169.991 43.4803C170.234 42.8047 170.321 42.0894 170.273 41.3737L170.326 41.9348C170.326 41.9348 170.223 44.2637 168.491 45.7337Z" fill="#2F3D51"/>
<path d="M168.491 45.7334V45.5762H162.061L169.167 34.2784H169.6L169.833 36.7346L169.976 38.2375L170.095 39.4892L170.271 41.3558C170.272 41.3618 170.272 41.3682 170.273 41.3742C170.321 42.0899 170.234 42.8052 169.991 43.4808C169.735 44.2081 169.283 45.0608 168.491 45.7334Z" fill="#212B37"/>
<path d="M98.6577 37.9946L98.7112 37.7944C98.7812 37.5492 98.8808 37.3216 99.0126 37.1053C99.345 36.576 100.076 35.5635 101.262 34.2785H102.764C101.016 35.6481 99.6616 36.9282 98.6577 37.9946Z" fill="#384C5D"/>
<path d="M165.026 46.9062C165.029 46.9062 165.031 46.9063 165.034 46.9058C165.031 46.9063 165.028 46.9062 165.026 46.9062Z" fill="#2F3D51"/>
<path d="M164.907 46.9067H99.3157C99.3157 46.9067 96.6293 46.8832 96.648 45.5757H162.061H168.491V45.7329V45.7337C167.713 46.3943 166.606 46.8813 165.032 46.9056C165.03 46.906 165.028 46.906 165.026 46.906C165.023 46.906 165.019 46.906 165.016 46.906C165.013 46.906 165.011 46.906 165.008 46.906C165.005 46.906 165.002 46.9064 164.999 46.9064C164.996 46.9064 164.993 46.9064 164.99 46.9064C164.986 46.9064 164.983 46.9064 164.98 46.9064C164.975 46.9064 164.971 46.9064 164.966 46.9064C164.964 46.9064 164.962 46.9067 164.96 46.9067C164.956 46.9067 164.952 46.9067 164.949 46.9067C164.946 46.9067 164.944 46.9067 164.942 46.9067C164.938 46.9067 164.934 46.9067 164.93 46.9067C164.928 46.9067 164.926 46.9067 164.924 46.9067C164.918 46.9067 164.913 46.9067 164.907 46.9067Z" fill="#212B37"/>
<path d="M102.537 43.9343C102.537 43.9343 100.143 42.93 102.14 40.0722C102.14 40.0722 112.575 26.1535 133.685 24.6252C133.685 24.6252 137.867 24.4332 138.023 28.2436C138.023 28.2436 138.338 35.4311 134.837 39.0769C134.837 39.0769 133.159 41.3864 128.036 42.0856C128.036 42.0856 112.03 43.9616 102.537 43.9343Z" fill="#293747"/>
<path d="M138.023 28.2441C137.867 24.4336 133.685 24.6256 133.685 24.6256C115.518 25.9413 105.261 36.4336 102.751 39.3311C106.433 35.4915 116.367 26.9247 132.657 25.7445C132.657 25.7445 136.849 25.5543 136.997 29.3629C136.997 29.3629 137.283 35.8287 134.319 39.6104C134.672 39.2933 134.836 39.0773 134.836 39.0773C138.338 35.4316 138.023 28.2441 138.023 28.2441Z" fill="#24303E"/>
<path d="M214.666 78.9274C214.666 79.5529 214.165 80.0601 213.538 80.0601C212.919 80.0601 212.411 79.5529 212.411 78.9274C212.411 78.3038 212.919 77.7985 213.538 77.7985C214.165 77.7985 214.666 78.3038 214.666 78.9274Z" fill="#6D8181"/>
<path d="M215.426 90.7426C215.426 92.0362 214.37 93.0933 213.072 93.0933C211.778 93.0933 210.721 92.0362 210.721 90.7426C210.721 89.4389 211.778 88.3833 213.072 88.3833C214.37 88.3833 215.426 89.4389 215.426 90.7426Z" fill="#ABCBC0"/>
<path d="M214.768 90.7421C214.768 91.6756 214.01 92.4385 213.072 92.4385C212.138 92.4385 211.375 91.6756 211.375 90.7421C211.375 89.8033 212.138 89.0443 213.072 89.0443C214.01 89.0443 214.768 89.8033 214.768 90.7421Z" fill="#80A79E"/>
<path d="M37.9429 90.2373C37.9429 91.2891 37.0966 92.1392 36.0395 92.1392C34.9945 92.1392 34.1497 91.2891 34.1497 90.2373C34.1497 89.1904 34.9945 88.3403 36.0395 88.3403C37.0966 88.3403 37.9429 89.1904 37.9429 90.2373Z" fill="#ABCBC0"/>
<path d="M37.4137 90.237C37.4137 90.9976 36.8021 91.604 36.0396 91.604C35.291 91.604 34.6779 90.9976 34.6779 90.237C34.6779 89.4865 35.291 88.873 36.0396 88.873C36.8021 88.873 37.4137 89.4865 37.4137 90.237Z" fill="#80A79E"/>
<path d="M203.345 81.3229L200.062 96.8833L193.012 95.3943L196.291 79.8305L203.345 81.3229Z" fill="#8E6B4F"/>
<path d="M200.815 84.0793L203.907 84.7339C204.147 84.78 204.375 84.6291 204.432 84.3877L204.914 82.107C204.969 81.869 204.812 81.6309 204.568 81.5778L201.478 80.925L200.815 84.0793Z" fill="#8E6B4F"/>
<path d="M202.756 90.1632C202.999 90.2144 203.236 90.0569 203.285 89.8203L203.765 87.5366C203.816 87.2986 203.662 87.062 203.426 87.0107L200.331 86.3576L199.665 89.5085L202.756 90.1632Z" fill="#8E6B4F"/>
<path d="M201.288 97.14C201.522 97.1931 201.76 97.0371 201.81 96.799L202.291 94.5183C202.343 94.2735 202.189 94.0441 201.949 93.9924L198.855 93.3415L198.189 96.4887L201.288 97.14Z" fill="#8E6B4F"/>
<path d="M194.917 79.5063L193.793 84.7938C193.735 85.085 193.918 85.3728 194.217 85.4365L199.129 86.4726C199.425 86.5343 199.71 86.3476 199.769 86.0548L200.881 80.7673C200.95 80.4746 200.754 80.1917 200.468 80.1318L195.558 79.0901C195.262 79.0283 194.972 79.2136 194.917 79.5063Z" fill="#C7906A"/>
<path d="M193.862 88.1793L192.329 95.4502C192.262 95.7452 192.45 96.033 192.745 96.0944L196.913 96.9737C197.203 97.0317 197.491 96.8486 197.556 96.5571L199.088 89.2809C199.151 88.9896 198.966 88.7014 198.671 88.64L194.503 87.7593C194.207 87.7009 193.918 87.8828 193.862 88.1793Z" fill="#C7906A"/>
<path d="M47.1932 79.6143L32.6199 77.3781L33.6305 70.7753L48.2057 73.0111L47.1932 79.6143Z" fill="#8E6B4F"/>
<path d="M44.5101 77.4076L44.0666 80.3063C44.0269 80.5327 44.183 80.742 44.4121 80.7742L46.5456 81.1013C46.7717 81.1391 46.981 80.9815 47.0184 80.7607L47.4571 77.865L44.5101 77.4076Z" fill="#8E6B4F"/>
<path d="M38.9799 79.5255C38.9402 79.7497 39.0944 79.9638 39.3242 79.9945L41.4537 80.322C41.6816 80.3579 41.8995 80.2022 41.9268 79.9791L42.3703 77.0872L39.4287 76.635L38.9799 79.5255Z" fill="#8E6B4F"/>
<path d="M32.4436 78.5211C32.4125 78.7457 32.5596 78.9598 32.7891 78.9976L34.9189 79.3195C35.1468 79.3554 35.3542 79.2012 35.3916 78.9751L35.8446 76.0866L32.8871 75.6307L32.4436 78.5211Z" fill="#8E6B4F"/>
<path d="M48.4303 71.7159L43.4823 70.9534C43.2031 70.9141 42.9523 71.1009 42.91 71.3749L42.1988 75.9751C42.1632 76.2495 42.3564 76.5029 42.6203 76.5474L47.5769 77.3084C47.8531 77.3492 48.108 77.1609 48.1428 76.8884L48.8518 72.2882C48.8982 72.0157 48.7028 71.7555 48.4303 71.7159Z" fill="#C7906A"/>
<path d="M40.3569 71.1922L33.5415 70.1472C33.2675 70.1041 33.0074 70.2928 32.9748 70.5701L32.3751 74.4678C32.3302 74.7403 32.5189 74.999 32.7981 75.0386L39.6034 76.0871C39.8755 76.1264 40.1364 75.9396 40.181 75.6637L40.7769 71.7608C40.8124 71.4887 40.6298 71.2349 40.3569 71.1922Z" fill="#C7906A"/>
<path d="M91.6971 88.1309L59.4657 48.3014L62.1746 46.1068L94.4037 85.9397L91.6971 88.1309Z" fill="#2D313B"/>
<path d="M93.054 87.0361L62.1885 48.8959L64.5564 49.0487L94.4037 85.9398L93.054 87.0361Z" fill="#363D48"/>
<path d="M99.8933 87.2026C99.8933 89.7865 97.7965 91.8818 95.2175 91.8818C92.6336 91.8818 90.5315 89.7865 90.5315 87.2026C90.5315 84.6191 92.6336 82.5237 95.2175 82.5237C97.7965 82.5237 99.8933 84.6191 99.8933 87.2026Z" fill="#2D313B"/>
<path d="M212.982 122.285C218.582 122.285 224.068 120.82 228.895 118.036L228.229 117.373C223.607 119.997 218.331 121.382 212.982 121.382C195.902 121.382 182.016 107.493 182.016 90.4186C182.016 85.0645 183.402 79.7961 186.029 75.1614L185.367 74.5019C182.585 79.3264 181.108 84.816 181.108 90.4186C181.108 107.989 195.407 122.285 212.982 122.285Z" fill="#404044"/>
<path d="M169.331 10.6451C169.331 10.6451 171.609 9.58618 173.631 9.89648C173.631 9.89648 175.796 10.2614 176.309 12.4474C176.309 12.4474 176.838 15.0878 175.068 16.8081L175.003 19.405C174.995 19.5918 174.928 19.7719 174.801 19.9107C174.549 20.1933 174.073 20.7245 173.439 21.3193L167.362 26.7108C166.834 27.1701 166.728 27.6653 166.71 28.3589C166.71 28.6486 166.719 28.9436 166.74 29.1711C166.763 29.3819 166.512 29.7659 166.375 29.925C166.224 30.0792 166.012 30.1702 165.719 29.901C165.719 29.901 164.581 28.0302 165.676 26.5517L171.662 21.2609C171.662 21.2609 173.407 19.1277 172.773 17.846L169.331 10.6451Z" fill="#262932"/>
<path d="M174.279 14.861C174.285 17.3779 172.269 19.4182 169.75 19.4336C167.235 19.4388 165.183 17.4119 165.176 14.897C165.162 12.3868 167.189 10.3397 169.704 10.3293C172.222 10.3154 174.272 12.3457 174.279 14.861Z" fill="#667283"/>
<path d="M169.742 17.9181C168.061 17.9211 166.695 16.5695 166.69 14.8941C166.682 13.2149 168.039 11.8513 169.712 11.8461C171.396 11.8375 172.759 13.191 172.766 14.8634C172.766 16.544 171.417 17.9077 169.742 17.9181ZM169.712 11.0031C167.566 11.0166 165.839 12.7542 165.856 14.8975C165.861 17.0374 167.602 18.7629 169.742 18.7558C171.881 18.7439 173.609 17.0029 173.6 14.8634C173.595 12.7197 171.851 10.9945 169.712 11.0031Z" fill="#3A414F"/>
<path d="M158.074 21.1485L168.592 13.3153C168.592 13.3153 170.326 12.719 171.106 14.2166C171.106 14.2166 171.756 15.4174 171.294 16.3854L161.9 25.1816L158.074 21.1485Z" fill="#262932"/>
<path d="M162.87 23.0613C162.879 24.6031 161.636 25.8541 160.096 25.8623C158.556 25.866 157.307 24.6271 157.3 23.0905C157.293 21.5484 158.531 20.2974 160.075 20.2907C161.608 20.2821 162.86 21.5241 162.87 23.0613Z" fill="#667283"/>
<path d="M160.089 24.516C159.292 24.5208 158.644 23.88 158.644 23.0801C158.644 22.2851 159.285 21.6394 160.075 21.6375C160.868 21.6308 161.519 22.2716 161.526 23.0715C161.526 23.868 160.885 24.5107 160.089 24.516ZM160.075 20.9847C158.922 20.99 157.983 21.9287 157.993 23.085C158 24.2382 158.941 25.1688 160.096 25.165C161.245 25.1635 162.181 24.2229 162.174 23.0681C162.172 21.9119 161.23 20.9829 160.075 20.9847Z" fill="#3A414F"/>
<path d="M160.08 22.3618C159.69 22.3636 159.376 22.6874 159.376 23.0778C159.376 23.4705 159.69 23.7871 160.089 23.7871C160.479 23.7852 160.796 23.4686 160.796 23.0711C160.796 22.6788 160.473 22.3618 160.08 22.3618Z" fill="#3A414F"/>
<path d="M95.2878 37.8127C91.5855 36.7557 88.7838 37.715 88.7685 37.7203C85.7718 36.6905 82.3386 37.4631 82.33 37.4684H82.3248C79.4826 36.43 76.1932 37.0402 76.1693 37.045C72.7885 35.8701 70.2099 36.4113 70.1826 36.4166C67.8577 34.9979 63.9271 35.3917 63.9155 35.3969C61.052 33.8308 57.8364 33.7489 57.8364 33.7489L55.0197 31.0744C54.0689 30.1611 52.7547 29.7138 51.4443 29.8579C46.0677 30.4542 31.8814 32.9471 25.9602 43.004L84.4699 46.8691H96.3075L98.7113 37.794C97.3046 37.3553 95.3013 37.8056 95.2878 37.8127Z" fill="#C59655"/>
<path d="M52.5234 30.9903L55.5183 34.3209C55.5183 34.3209 58.9436 34.4238 61.9912 36.3718C62.0047 36.3718 66.1939 35.8702 68.6614 37.6399H68.6696C68.6921 37.6362 71.4369 36.9613 75.0347 38.4263C75.0587 38.4226 78.5626 37.6553 81.5848 38.9504C81.5997 38.9504 85.2492 37.9805 88.4413 39.2674C88.4604 39.2622 91.4377 38.0595 95.3837 39.3823C95.3908 39.3771 96.9393 38.9642 98.3343 39.1783L98.7041 37.7941C97.2889 37.3554 95.2878 37.8057 95.2792 37.8128C91.5702 36.7558 88.7685 37.7151 88.7614 37.7204C85.7602 36.6907 82.33 37.4632 82.3147 37.4685C79.4688 36.4301 76.179 37.0403 76.1569 37.0451C72.7698 35.8702 70.1945 36.4114 70.1754 36.4167C67.8525 34.998 63.9155 35.3918 63.8983 35.397C61.0356 33.8309 57.8229 33.749 57.8229 33.749L55.0114 31.0745C54.0498 30.1612 52.7461 29.7139 51.4353 29.858C51.3327 29.8715 51.2216 29.8801 51.1082 29.8958C51.6273 30.1545 52.1143 30.5243 52.5234 30.9903Z" fill="#DBAE71"/>
<path d="M96.3075 46.8691L96.8899 44.6727C74.0615 44.9676 38.6833 40.7683 28.6002 39.5057C27.615 40.5557 26.7189 41.7194 25.9602 43.004L84.4699 46.8691H96.3075Z" fill="#AD783D"/>
<path d="M181.454 2.54425L180.216 3.12891L179.395 1.39811L180.637 0.812322L181.454 2.54425Z" fill="#4D5563"/>
<path d="M179.635 3.40259L178.704 3.84277L177.883 2.10898L178.818 1.67217L179.635 3.40259Z" fill="#4D5563"/>
<path d="M174.152 5.98796L172.613 6.71973L171.793 4.9908L173.335 4.25903L174.152 5.98796Z" fill="#4D5563"/>
<path d="M89.7863 96.4001L89.1286 94.176L96.3363 93.3004L89.7863 96.4001ZM99.2712 91.4723L92.3323 92.0342V90.7683L87.0007 89.2998L78.0895 91.8201V92.9441L79.1944 93.7885L82.4412 93.0673L86.9322 98.2657L87.3211 99.0933L99.4547 93.3551C99.4547 93.3551 101.012 91.9675 99.2712 91.4723Z" fill="#ABCBC0"/>
<path d="M167.576 81.6976C167.362 78.1151 165.044 74.6662 162.707 73.3385C161.256 72.5109 158.896 72.0228 157.228 71.9233L152.029 71.61L152.992 76.2735C155.693 76.114 158.79 76.9278 158.79 76.9278C160.383 77.7692 161.326 78.9977 161.882 80.2808C163.055 82.9912 162.493 86.1403 160.572 88.3779L150.589 100.799C146.223 106.467 138.124 105.136 138.124 105.136L94.4894 100.416C86.7704 99.7647 82.4037 95.5601 82.4037 95.5601L68.7452 81.3996C66.3174 78.9977 64.8419 78.1855 63.485 77.8684C62.1525 77.5585 60.3685 77.968 59.8651 79.2459C58.5729 82.5012 62.7708 86.1661 62.7708 86.1661L75.6257 98.4281C81.1015 104.877 88.2669 105.4 88.2669 105.4C88.2669 105.4 128.316 110.699 136.997 111.304C143.355 111.749 148.178 109.404 150.301 108.114C151.024 107.678 151.659 107.117 152.197 106.466L161.814 94.6846C168.07 87.1288 167.576 81.6976 167.576 81.6976Z" fill="#80A79E"/>
<path d="M60.8487 78.4686C62.2108 78.7875 63.6875 79.5945 66.1048 81.9983L79.7618 96.1621C79.7618 96.1621 84.1307 100.362 91.8423 101.016L135.482 105.738C135.482 105.738 138.936 106.303 142.549 105.118C140.057 105.454 138.124 105.136 138.124 105.136L94.4897 100.416C86.7704 99.7652 82.4037 95.5606 82.4037 95.5606L68.7452 81.4001C66.3174 78.9982 64.8419 78.186 63.485 77.8689C62.5069 77.6462 61.287 77.8057 60.5059 78.4068C60.6223 78.4259 60.7353 78.4446 60.8487 78.4686Z" fill="#98BBB1"/>
<path d="M167.576 81.6974C167.362 78.1149 165.044 74.666 162.707 73.3383C161.256 72.5107 158.896 72.0226 157.228 71.9231L152.029 71.6098L152.182 72.3719L154.586 72.5179C156.255 72.6238 158.612 73.1089 160.068 73.9346C162.411 75.266 164.722 78.713 164.934 82.2955C164.934 82.2955 165.426 87.7253 159.172 95.2807L149.547 107.065C149.017 107.718 148.384 108.278 147.659 108.712C146.547 109.385 144.696 110.351 142.272 111.054C146.004 110.437 148.822 109.018 150.301 108.114C151.024 107.678 151.66 107.116 152.197 106.465L161.815 94.6848C168.07 87.1286 167.576 81.6974 167.576 81.6974Z" fill="#98BBB1"/>
<path d="M77.4194 90.3914L72.218 95.1785L72.845 95.771L78.0894 91.0903L77.4194 90.3914Z" fill="#6A8D87"/>
<path d="M73.6127 96.5044L74.231 97.0991L79.4227 92.4697L78.7542 91.7705L73.6127 96.5044Z" fill="#6A8D87"/>
<path d="M98.5843 100.858L97.4124 106.591C97.692 106.627 97.9813 106.668 98.2673 106.702L99.5452 100.959L98.5843 100.858Z" fill="#6A8D87"/>
<path d="M99.321 106.839C99.604 106.877 99.8934 106.912 100.178 106.952L101.456 101.166L100.505 101.062L99.321 106.839Z" fill="#6A8D87"/>
<path d="M151.123 100.142L154.993 103.043L155.532 102.386L151.702 99.4137L151.123 100.142Z" fill="#6A8D87"/>
<path d="M152.324 98.6458L156.2 101.562L156.741 100.899L152.907 97.9211L152.324 98.6458Z" fill="#6A8D87"/>
<path d="M162.426 82.2854C162.471 82.5987 162.484 82.9157 162.484 83.2309L167.48 83.3525C167.523 83.0187 167.55 82.7308 167.566 82.4942L162.426 82.2854Z" fill="#6A8D87"/>
<path d="M162.25 85.143L167.066 85.2598C167.153 84.9599 167.23 84.6687 167.287 84.3996L162.426 84.2057C162.392 84.5213 162.331 84.8331 162.25 85.143Z" fill="#6A8D87"/>
<path d="M158.442 76.844C158.668 76.8952 158.791 76.9278 158.791 76.9278C158.974 77.0255 159.147 77.1284 159.311 77.2344L161.718 72.8759C161.453 72.7715 161.175 72.6772 160.885 72.5862L158.442 76.844Z" fill="#6A8D87"/>
<path d="M158.946 72.1288L156.452 76.47C156.813 76.5251 157.154 76.5831 157.447 76.6362L159.846 72.3103C159.544 72.2419 159.239 72.1782 158.946 72.1288Z" fill="#6A8D87"/>
<path d="M68.774 86.2533C67.6057 87.5829 64.8561 87.0791 62.6319 85.1293C60.4014 83.1795 59.5394 80.5171 60.7128 79.1838C61.8781 77.8527 64.6262 78.3565 66.8567 80.3059C69.0843 82.2576 69.9395 84.9167 68.774 86.2533Z" fill="#434347"/>
<path d="M122.8 69.6533C122.8 69.6533 128.281 63.8515 131.23 62.4864C131.23 62.4864 139.764 63.1182 146.727 66.0637L147.78 67.8573L152.522 70.1792C152.522 70.1792 155.156 76.5009 155.368 80.0871C155.368 80.0871 152.624 84.0911 148.834 88.2029C148.834 88.2029 136.923 89.3614 126.592 86.2004C126.592 86.2004 122.687 79.4564 121.949 77.1316C121.949 77.1316 121.634 73.4461 122.8 69.6533Z" fill="#ABCBC0"/>
<path d="M125.261 83.8632C126.014 85.2133 126.58 86.2004 126.58 86.2004C136.904 89.3614 148.822 88.2029 148.822 88.2029C149.799 87.1373 150.714 86.0768 151.525 85.0935C147.41 85.2631 136.277 85.5097 125.261 83.8632Z" fill="#89A69E"/>
<path d="M121.949 77.1315C121.986 77.231 122.017 77.3355 122.06 77.4504L153.369 82.7959C154.625 81.1733 155.368 80.087 155.368 80.087C155.31 79.0831 155.06 77.8633 154.726 76.6277C141.643 73.2458 122.8 69.6532 122.8 69.6532C121.634 73.446 121.949 77.1315 121.949 77.1315Z" fill="#C5D3C0"/>
<path d="M122.8 69.6531C122.74 69.8466 122.679 70.0368 122.627 70.2318L154.903 77.313C154.853 77.1109 154.801 76.9054 154.749 76.698L154.536 76.5797C141.46 73.2065 122.8 69.6531 122.8 69.6531Z" fill="#A2B8AC"/>
<path d="M153.835 82.1824L121.928 76.7066C121.938 76.9791 121.949 77.1315 121.949 77.1315C121.986 77.231 122.017 77.3355 122.06 77.4504L153.369 82.7959C153.53 82.5818 153.696 82.3778 153.835 82.1824Z" fill="#A2B8AC"/>
<path d="M149.956 75.5033L154.558 75.9951C153.71 73.0347 152.522 70.1787 152.522 70.1787L147.781 67.8569L146.727 66.0632C139.764 63.1178 131.23 62.4859 131.23 62.4859C130.639 62.7547 129.952 63.2035 129.229 63.75C137.811 65.1087 144.69 67.5743 144.69 67.5743L149.956 75.5033Z" fill="#BEDCD0"/>
<path d="M127.55 73.9949C127.55 75.2574 126.53 76.2856 125.261 76.2856C124.003 76.2856 122.984 75.2574 122.984 73.9949C122.984 72.7391 124.003 71.7112 125.261 71.7112C126.53 71.7112 127.55 72.7391 127.55 73.9949Z" fill="#80A79E"/>
<path d="M126.907 73.9945C126.907 74.9078 126.175 75.6411 125.261 75.6411C124.356 75.6411 123.616 74.9078 123.616 73.9945C123.616 73.0898 124.356 72.3532 125.261 72.3532C126.175 72.3532 126.907 73.0898 126.907 73.9945Z" fill="#688B85"/>
<path d="M124.894 75.5966C125.011 75.6273 125.137 75.6411 125.261 75.6411C125.396 75.6411 125.521 75.6273 125.637 75.5966V72.3943C125.521 72.367 125.396 72.3532 125.261 72.3532C125.137 72.3532 125.011 72.367 124.894 72.3943V75.5966Z" fill="#506E6A"/>
<path d="M149.505 78.3878C149.505 79.6455 148.48 80.6719 147.216 80.6719C145.957 80.6719 144.933 79.6455 144.933 78.3878C144.933 77.1249 145.957 76.0989 147.216 76.0989C148.48 76.0989 149.505 77.1249 149.505 78.3878Z" fill="#80A79E"/>
<path d="M148.863 78.3874C148.863 79.2936 148.123 80.0269 147.216 80.0269C146.311 80.0269 145.574 79.2936 145.574 78.3874C145.574 77.4759 146.311 76.7427 147.216 76.7427C148.123 76.7427 148.863 77.4759 148.863 78.3874Z" fill="#688B85"/>
<path d="M146.849 79.9876C146.969 80.0168 147.094 80.0269 147.216 80.0269C147.352 80.0269 147.475 80.0168 147.594 79.9876V76.7838C147.475 76.7528 147.352 76.7427 147.216 76.7427C147.094 76.7427 146.969 76.7528 146.849 76.7838V79.9876Z" fill="#506E6A"/>
<path d="M152.521 70.1794L147.825 67.8834C148.593 70.203 150.39 75.967 150.566 79.5715C150.566 79.5715 148.163 83.7282 144.69 88.4019C147.224 88.3558 148.834 88.2031 148.834 88.2031C152.624 84.0913 155.368 80.0873 155.368 80.0873C155.156 76.5011 152.521 70.1794 152.521 70.1794Z" fill="#9BB9B0"/>
<path d="M99.5216 92.5756C99.5216 93.0569 99.1327 93.4492 98.6528 93.4492C98.1643 93.4492 97.7739 93.0569 97.7739 92.5756C97.7739 92.0942 98.1643 91.7016 98.6528 91.7016C99.1327 91.7016 99.5216 92.0942 99.5216 92.5756Z" fill="#80A79E"/>
<path d="M99.2798 92.5757C99.2798 92.9201 98.9972 93.2061 98.6529 93.2061C98.3048 93.2061 98.0188 92.9201 98.0188 92.5757C98.0188 92.2295 98.3048 91.9469 98.6529 91.9469C98.9972 91.9469 99.2798 92.2295 99.2798 92.5757Z" fill="#688B85"/>
<path d="M88.2804 91.001C88.2804 91.6007 87.7975 92.082 87.196 92.082C86.5982 92.082 86.1146 91.6007 86.1146 91.001C86.1146 90.4033 86.5982 89.92 87.196 89.92C87.7975 89.92 88.2804 90.4033 88.2804 91.001Z" fill="#80A79E"/>
<path d="M87.9805 91.001C87.9805 91.433 87.6261 91.7788 87.196 91.7788C86.7607 91.7788 86.4144 91.433 86.4144 91.001C86.4144 90.5691 86.7607 90.2217 87.196 90.2217C87.6261 90.2217 87.9805 90.5691 87.9805 91.001Z" fill="#688B85"/>
<path d="M98.4253 87.2028C98.4253 88.9777 96.9842 90.4136 95.2175 90.4136C93.4376 90.4136 91.998 88.9777 91.998 87.2028C91.998 85.4278 93.4376 83.9923 95.2175 83.9923C96.9842 83.9923 98.4253 85.4278 98.4253 87.2028Z" fill="#ABCBC0"/>
<path d="M97.4569 87.2024C97.4569 88.4414 96.453 89.4468 95.2174 89.4468C93.9687 89.4468 92.9645 88.4414 92.9645 87.2024C92.9645 85.962 93.9687 84.9599 95.2174 84.9599C96.453 84.9599 97.4569 85.962 97.4569 87.2024Z" fill="#80A79E"/>
<path d="M95.2433 89.4468C95.2436 89.4468 95.2444 89.4468 95.2451 89.4468C95.2444 89.4468 95.244 89.4468 95.2433 89.4468ZM95.2799 89.446C95.2803 89.446 95.2807 89.446 95.2814 89.446C95.2811 89.446 95.2803 89.446 95.2799 89.446ZM95.335 89.4438H95.3353C95.3353 89.4438 95.3354 89.4438 95.335 89.4438Z" fill="#8DAAA2"/>
<path d="M95.2174 89.4468C93.9687 89.4468 92.9645 88.4414 92.9645 87.2024C92.9645 87.1991 92.9645 87.196 92.9645 87.1927C92.9645 87.1919 92.9645 87.1912 92.9645 87.1904C92.9645 87.1871 92.9645 87.1837 92.9649 87.1803C92.9649 87.177 92.9649 87.1736 92.9649 87.1702C92.9649 87.1695 92.9649 87.1691 92.9649 87.1687C92.9649 87.1616 92.9652 87.1545 92.9652 87.1474V87.147C92.9765 86.6941 93.1217 86.2786 93.362 85.9346L97.0815 88.4414C96.7027 89.0144 96.0697 89.4026 95.3443 89.4434H95.344C95.341 89.4434 95.3383 89.4438 95.3353 89.4438H95.335C95.3264 89.4442 95.3178 89.4449 95.3088 89.4449C95.3084 89.4453 95.3076 89.4453 95.3073 89.4453C95.3047 89.4453 95.3024 89.4453 95.3002 89.4453C95.2994 89.4453 95.299 89.4453 95.2983 89.4456C95.2957 89.4456 95.293 89.4456 95.2904 89.4456H95.2901C95.2871 89.446 95.2841 89.446 95.2814 89.446C95.2807 89.446 95.2803 89.446 95.2799 89.446C95.2777 89.446 95.2755 89.446 95.2728 89.4464C95.2721 89.4464 95.2713 89.4464 95.2706 89.4464C95.2687 89.4464 95.2665 89.4464 95.2642 89.4464C95.2635 89.4464 95.2627 89.4464 95.262 89.4464C95.2594 89.4464 95.2567 89.4464 95.2541 89.4468H95.2537C95.2508 89.4468 95.2481 89.4468 95.2451 89.4468C95.2444 89.4468 95.2436 89.4468 95.2433 89.4468C95.241 89.4468 95.2392 89.4468 95.2369 89.4468C95.2362 89.4468 95.235 89.4468 95.2343 89.4468C95.232 89.4468 95.2302 89.4468 95.2279 89.4468C95.2272 89.4468 95.2264 89.4468 95.2257 89.4468C95.2231 89.4468 95.2201 89.4468 95.2174 89.4468Z" fill="#6B8E88"/>
<path d="M153.835 65.3833C153.835 67.1579 152.396 68.5938 150.626 68.5938C148.846 68.5938 147.414 67.1579 147.414 65.3833C147.414 63.6065 148.846 62.1706 150.626 62.1706C152.396 62.1706 153.835 63.6065 153.835 65.3833Z" fill="#ABCBC0"/>
<path d="M152.866 65.3836C152.866 66.6222 151.868 67.6279 150.626 67.6279C149.386 67.6279 148.375 66.6222 148.375 65.3836C148.375 64.1446 149.386 63.1388 150.626 63.1388C151.868 63.1388 152.866 64.1446 152.866 65.3836Z" fill="#80A79E"/>
<path d="M150.635 67.6279C150.636 67.6279 150.636 67.6279 150.637 67.6279C150.637 67.6279 150.636 67.6279 150.635 67.6279ZM150.653 67.6275C150.654 67.6275 150.654 67.6275 150.654 67.6275C150.654 67.6275 150.653 67.6275 150.653 67.6275ZM151.888 67.2398C152.129 67.0751 152.336 66.8643 152.497 66.6203L152.499 66.6222C152.337 66.8651 152.129 67.0751 151.888 67.2398Z" fill="#8DAAA2"/>
<path d="M150.626 67.6279C149.386 67.6279 148.375 66.6222 148.375 65.3836C148.375 65.3798 148.375 65.3765 148.375 65.3727C148.375 65.3727 148.375 65.3723 148.375 65.372C148.378 64.9037 148.534 64.4691 148.776 64.1139L152.497 66.6203C152.336 66.8643 152.129 67.0751 151.888 67.2398C151.535 67.4797 151.111 67.6223 150.654 67.6275C150.654 67.6275 150.654 67.6275 150.653 67.6275C150.651 67.6279 150.649 67.6279 150.646 67.6279C150.645 67.6279 150.644 67.6279 150.644 67.6279C150.641 67.6279 150.639 67.6279 150.637 67.6279C150.636 67.6279 150.636 67.6279 150.635 67.6279C150.632 67.6279 150.629 67.6279 150.626 67.6279Z" fill="#6B8E88"/>
<path d="M147.977 32.7602C147.977 33.4456 147.681 33.7023 147.206 33.7023C146.727 33.7023 146.42 33.4456 146.42 32.7602V31.0365C146.42 30.3564 146.727 30.1078 147.206 30.1078C147.681 30.1078 147.977 30.3564 147.977 31.0365V32.7602ZM147.206 28.7285C145.73 28.7285 144.917 29.604 144.917 31.1342V32.8852C144.917 34.29 145.485 35.0712 146.59 35.0712C147.254 35.0712 147.72 34.7699 147.977 34.2249V35.9725C147.977 36.8926 147.681 37.1512 147.152 37.1512C146.673 37.1512 146.371 36.8926 146.371 36.2072V35.8662H144.947V36.1076C144.947 37.6449 145.713 38.5186 147.188 38.5186C148.743 38.5186 149.483 37.6449 149.483 36.029V31.1342C149.483 29.604 148.676 28.7285 147.206 28.7285Z" fill="white"/>
<path d="M153.392 32.7602C153.392 33.4456 153.095 33.7023 152.609 33.7023C152.139 33.7023 151.836 33.4456 151.836 32.7602V31.0365C151.836 30.3564 152.139 30.1078 152.609 30.1078C153.095 30.1078 153.392 30.3564 153.392 31.0365V32.7602ZM152.609 28.7285C151.145 28.7285 150.333 29.604 150.333 31.1342V32.8852C150.333 34.29 150.892 35.0712 151.997 35.0712C152.67 35.0712 153.133 34.7699 153.392 34.2249V35.9725C153.392 36.8926 153.095 37.1512 152.567 37.1512C152.076 37.1512 151.784 36.8926 151.784 36.2072V35.8662H150.359V36.1076C150.359 37.6449 151.123 38.5186 152.6 38.5186C154.159 38.5186 154.895 37.6449 154.895 36.029V31.1342C154.895 29.604 154.092 28.7285 152.609 28.7285Z" fill="white"/>
<path d="M149.895 41.3201C145.625 41.3201 142.15 37.8506 142.15 33.5828C142.15 29.3164 145.625 25.842 149.895 25.842C154.159 25.842 157.634 29.3164 157.634 33.5828C157.634 37.8506 154.159 41.3201 149.895 41.3201ZM149.895 25.1821C145.264 25.1821 141.494 28.9514 141.494 33.5828C141.494 38.2156 145.264 41.9849 149.895 41.9849C154.526 41.9849 158.295 38.2156 158.295 33.5828C158.295 28.9514 154.526 25.1821 149.895 25.1821Z" fill="white"/>
<path d="M127.14 101.364L135.176 102.929L134.252 105.376L127.14 101.364ZM123.64 101.174L136.56 108.464L137.307 107.7L142.769 102.225L146.363 103.29L147.668 102.441L148.137 101.097L137.956 97.6244L131.847 98.8443L131.744 100.265L123.995 99.0737C122 99.4899 123.64 101.174 123.64 101.174Z" fill="#3A414F"/>
<path d="M136.701 99.3398C136.664 99.9361 137.108 100.452 137.706 100.498C138.3 100.542 138.816 100.092 138.862 99.4993C138.907 98.8993 138.456 98.3805 137.857 98.3393C137.268 98.2963 136.743 98.7451 136.701 99.3398Z" fill="#80A79E"/>
<path d="M137.004 99.3606C136.973 99.7888 137.298 100.164 137.727 100.193C138.155 100.226 138.529 99.9018 138.563 99.4703C138.59 99.0436 138.272 98.67 137.834 98.6393C137.408 98.6101 137.033 98.932 137.004 99.3606Z" fill="#688B85"/>
<path d="M135.129 106.155C135.087 106.75 135.535 107.274 136.126 107.312C136.723 107.356 137.247 106.906 137.283 106.313C137.329 105.715 136.884 105.201 136.288 105.157C135.691 105.112 135.176 105.561 135.129 106.155Z" fill="#80A79E"/>
<path d="M135.432 106.178C135.395 106.608 135.727 106.979 136.157 107.014C136.575 107.046 136.951 106.717 136.983 106.291C137.018 105.861 136.697 105.49 136.265 105.455C135.836 105.427 135.463 105.749 135.432 106.178Z" fill="#688B85"/>
<path d="M142.973 102.879C142.845 104.647 144.171 106.184 145.942 106.313C147.712 106.437 149.249 105.11 149.381 103.338C149.505 101.57 148.178 100.031 146.406 99.903C144.635 99.7795 143.095 101.108 142.973 102.879Z" fill="#4F5768"/>
<path d="M143.934 102.948C143.848 104.185 144.779 105.26 146.019 105.347C147.246 105.438 148.325 104.505 148.412 103.27C148.501 102.033 147.571 100.957 146.334 100.87C145.101 100.779 144.025 101.709 143.934 102.948Z" fill="#80A79E"/>
<path d="M146.184 105.353C146.132 105.353 146.081 105.351 146.029 105.348C146.081 105.351 146.133 105.353 146.184 105.353ZM146.012 105.346C145.232 105.289 144.577 104.843 144.217 104.211L144.219 104.21C144.576 104.842 145.232 105.289 146.012 105.346ZM148.412 103.27C148.441 102.869 148.363 102.484 148.201 102.145C148.363 102.484 148.443 102.866 148.412 103.27Z" fill="#424957"/>
<path d="M146.184 105.353H146.184C146.133 105.353 146.081 105.351 146.03 105.348C146.026 105.347 146.023 105.347 146.019 105.347C146.017 105.347 146.014 105.347 146.012 105.346C145.232 105.289 144.576 104.842 144.219 104.21L148.111 101.975C148.144 102.03 148.174 102.087 148.201 102.145C148.363 102.484 148.441 102.869 148.412 103.27C148.412 103.281 148.411 103.292 148.41 103.303C148.409 103.309 148.409 103.315 148.408 103.32C148.302 104.475 147.326 105.352 146.186 105.353C146.186 105.353 146.185 105.353 146.184 105.353Z" fill="#6B8E88"/>
</svg>
