<svg width="146" height="194" viewBox="0 0 146 194" fill="none" xmlns="http://www.w3.org/2000/svg">
<path d="M2.18623e-05 181.518C2.18623e-05 188.412 32.6027 194 72.8185 194C113.035 194 145.637 188.412 145.637 181.518C145.637 174.625 113.035 169.036 72.8185 169.036C32.6027 169.036 2.18623e-05 174.625 2.18623e-05 181.518Z" fill="#DB956F"/>
<path d="M33.9122 184.447C41.2607 187.731 55.7141 189.966 72.3229 189.966C88.939 189.966 103.385 187.731 110.734 184.447C112.953 183.463 114.522 182.374 115.311 181.228C115.701 180.667 115.904 180.09 115.904 179.505V182.951C115.904 183.26 115.847 183.561 115.733 183.862C113.815 189.219 95.1096 194 72.3229 194C49.5443 194 30.8305 189.219 28.9115 183.862C28.7985 183.561 28.7407 183.26 28.7407 182.951V179.505L33.9122 184.447Z" fill="#393430"/>
<path d="M33.9122 184.447C41.2607 187.731 55.7141 189.966 72.3229 189.966C88.939 189.966 103.385 187.731 110.734 184.447C112.953 183.463 114.522 182.374 115.311 181.228C115.701 180.667 115.904 180.09 115.904 179.505V182.951C115.904 183.26 115.847 183.561 115.733 183.862C113.815 189.219 95.1096 194 72.3229 194C49.5443 194 30.8305 189.219 28.9115 183.862C28.7985 183.561 28.7407 183.26 28.7407 182.951V179.505L33.9122 184.447Z" fill="#1F1D1A"/>
<path d="M28.7407 179.505C28.7407 180.09 28.9444 180.667 29.3349 181.229C31.9042 184.96 42.6993 188.025 57.0965 189.308C61.8357 189.739 66.9655 189.967 72.3229 189.967C88.939 189.967 103.385 187.731 110.734 184.447C112.953 183.463 114.522 182.374 115.311 181.229C115.701 180.667 115.904 180.09 115.904 179.505C115.904 173.732 96.3934 169.043 72.3229 169.043C68.6077 169.043 65.0064 169.156 61.5679 169.368C42.6993 170.514 28.7407 174.627 28.7407 179.505Z" fill="#393430"/>
<path d="M43.7378 183.778C46.4121 183.778 48.9493 183.488 50.6742 182.959L66.4242 174.925C66.1155 174.49 65.8765 173.994 65.7193 173.434C63.2447 174.253 52.9612 176.953 52.9612 176.953C47.9285 178.608 44.3496 179.099 41.8846 179.099C38.5126 179.099 37.2248 178.179 37.1478 178.055C33.3717 174.607 48.8419 172.203 59.3539 170.852C62.4131 170.458 64.2896 170.385 65.2622 170.385C65.3497 170.385 65.429 170.385 65.502 170.387V169.204C64.2302 169.246 63.0715 169.296 62.1581 169.352C44.3184 170.428 30.205 174.864 31.1344 178.931C31.2587 179.474 31.8056 180.611 32.2763 181.051C34.3099 182.95 39.2191 183.778 43.7378 183.778Z" fill="#5D5A58"/>
<path d="M41.8845 179.099C44.3495 179.099 47.9284 178.608 52.9611 176.952C52.9611 176.952 63.2446 174.253 65.7192 173.434C65.5773 172.929 65.5019 172.371 65.5019 171.759V170.387C65.429 170.385 65.3496 170.385 65.2622 170.385C64.2895 170.385 62.413 170.458 59.3538 170.852C48.8418 172.203 33.3716 174.607 37.1477 178.055C37.2247 178.179 38.5126 179.099 41.8845 179.099Z" fill="#8C8A88"/>
<path d="M100.69 183.778C105.209 183.778 110.117 182.95 112.151 181.051C112.622 180.611 113.169 179.474 113.293 178.931C114.222 174.864 100.109 170.428 82.2696 169.352C81.6554 169.315 80.9305 169.279 80.135 169.248V170.405C81.2167 170.446 82.8262 170.562 85.0739 170.852C95.5867 172.203 111.056 174.607 107.281 178.055C107.203 178.179 105.915 179.099 102.543 179.099C100.078 179.099 96.4993 178.608 91.4666 176.953C91.4666 176.953 83.3602 174.825 79.8102 173.774C79.5913 174.385 79.2697 174.913 78.8616 175.362L93.7544 182.959C95.4784 183.488 98.0156 183.778 100.69 183.778Z" fill="#5D5A58"/>
<path d="M102.543 179.099C105.915 179.099 107.203 178.179 107.281 178.055C111.056 174.607 95.5867 172.203 85.0739 170.852C82.8261 170.562 81.2167 170.446 80.135 170.405V171.759C80.135 172.512 80.0211 173.182 79.8102 173.774C83.3602 174.825 91.4666 176.952 91.4666 176.952C96.4993 178.608 100.078 179.099 102.543 179.099Z" fill="#8C8A88"/>
<path d="M72.8185 177.449C76.8593 177.449 80.135 175.8 80.135 171.758V132.98H65.502V171.758C65.502 175.8 68.7778 177.449 72.8185 177.449Z" fill="#393430"/>
<path d="M52.7984 36.7004L90.6454 79.9033L114.573 58.9442C121.02 53.2972 124.335 45.4042 124.378 37.4566C124.378 36.5713 124.345 35.6965 124.258 34.8112C124.161 33.6877 124 32.5651 123.762 31.4528C123.287 29.1859 122.542 26.9606 121.506 24.834C121.128 24.0562 120.707 23.2895 120.253 22.5341C119.4 21.0979 118.396 19.7267 117.262 18.4309C114.466 15.2449 111.139 12.8264 107.522 11.1849C97.5666 6.6823 85.4844 8.08641 76.7374 15.7421L52.7984 36.7004Z" fill="#1F1D1A"/>
<path d="M72.0021 56.5376C72.2242 55.848 72.5009 55.1656 72.8329 54.4968C75.3893 49.3494 80.5672 46.3688 85.9495 46.3672L98.7646 35.1029C104.62 30.0831 110.617 22.2053 106.275 15.7893C106.275 15.7893 103.695 10.6332 94.8898 10.6332C93.0807 10.6332 91.0078 10.8504 88.6414 11.3757C84.6729 12.257 80.5487 14.0035 77.212 16.9104L56.2497 35.4109C55.5152 36.0596 55.4358 37.1775 56.0725 37.9224L71.8265 56.358C71.8818 56.4229 71.9404 56.4831 72.0021 56.5376ZM92.9725 12.0244C95.0943 12.0244 96.1247 12.7389 96.5233 13.204C96.5233 13.204 102.112 16.6265 91.8995 25.3888L66.8131 46.6607C66.5685 46.8676 66.2702 46.9686 65.9743 46.9686C65.6078 46.9686 65.2446 46.8146 64.988 46.5155L57.5247 37.8085C57.0604 37.2681 57.1197 36.4533 57.6578 35.9858L76.4238 19.6536C79.0668 17.3538 82.0202 15.4148 85.2358 14.0235C88.7289 12.5112 91.2219 12.0244 92.9725 12.0244Z" fill="#474545"/>
<path d="M65.9743 46.9683C66.2702 46.9683 66.5685 46.8672 66.8131 46.6603L91.8995 25.3885C102.112 16.6262 96.5233 13.2037 96.5233 13.2037C96.1247 12.7386 95.0943 12.0241 92.9725 12.0241C91.222 12.0241 88.7289 12.5108 85.2358 14.0232C82.0202 15.4145 79.0668 17.3535 76.4238 19.6533L57.6578 35.9855C57.1198 36.453 57.0604 37.2677 57.5247 37.8082L64.988 46.5152C65.2446 46.8143 65.6078 46.9683 65.9743 46.9683Z" fill="#7B7B7B"/>
<path d="M110.513 50.5974C109.327 51.6367 109.208 53.4401 110.247 54.6261C111.285 55.8121 113.089 55.9316 114.275 54.8931C115.461 53.8539 115.58 52.0504 114.542 50.8644C113.503 49.6784 111.699 49.559 110.513 50.5974Z" fill="#1F1D1A"/>
<path d="M100.583 39.2576C99.3973 40.2968 99.2778 42.0995 100.316 43.2863C101.355 44.4723 103.159 44.5918 104.345 43.5533C105.531 42.5149 105.65 40.7106 104.612 39.5246C103.574 38.3386 101.769 38.2191 100.583 39.2576Z" fill="#1F1D1A"/>
<path d="M90.6534 27.9182C89.4666 28.9575 89.3472 30.7609 90.3864 31.9469C91.4249 33.1329 93.2283 33.2524 94.4143 32.214C95.6011 31.1755 95.7206 29.372 94.6814 28.1852C93.6429 26.9992 91.8394 26.8797 90.6534 27.9182Z" fill="#1F1D1A"/>
<path d="M80.7228 16.5783C79.5368 17.6176 79.4173 19.4211 80.4558 20.6071C81.4943 21.7931 83.2985 21.9126 84.4845 20.8741C85.6705 19.8348 85.79 18.0314 84.7516 16.8454C83.7131 15.6594 81.9088 15.5399 80.7228 16.5783Z" fill="#1F1D1A"/>
<path d="M113.985 27.5222C112.799 28.5607 112.679 30.3649 113.718 31.5509C114.756 32.7369 116.559 32.8564 117.746 31.818C118.932 30.7787 119.052 28.9752 118.012 27.7892C116.975 26.6032 115.171 26.4838 113.985 27.5222Z" fill="#1F1D1A"/>
<path d="M104.055 16.1832C102.869 17.2208 102.748 19.0251 103.788 20.2111C104.826 21.3971 106.63 21.5166 107.816 20.4781C109.002 19.4389 109.122 17.6354 108.083 16.4494C107.044 15.2634 105.241 15.1439 104.055 16.1832Z" fill="#1F1D1A"/>
<path d="M97.1119 62.3329C95.9259 63.3713 95.8072 65.1748 96.8457 66.3616C97.8841 67.5476 99.6876 67.6671 100.874 66.6278C102.06 65.5894 102.179 63.7859 101.141 62.5999C100.102 61.4139 98.2979 61.2944 97.1119 62.3329Z" fill="#1F1D1A"/>
<path d="M87.1821 50.9934C85.9961 52.0319 85.8766 53.8361 86.915 55.0221C87.9543 56.2081 89.7577 56.3276 90.9437 55.2892C92.1297 54.2499 92.2492 52.4464 91.2108 51.2604C90.1715 50.0744 88.3681 49.9549 87.1821 50.9934Z" fill="#1F1D1A"/>
<path d="M77.2513 39.6536C76.0653 40.6928 75.9458 42.4963 76.9851 43.6823C78.0235 44.8683 79.827 44.9878 81.013 43.9493C82.199 42.9101 82.3193 41.1066 81.28 39.9206C80.2416 38.7346 78.4381 38.6151 77.2513 39.6536Z" fill="#1F1D1A"/>
<path d="M67.3223 28.315C66.1355 29.3535 66.016 31.1569 67.0552 32.3429C68.0929 33.5289 69.8972 33.6484 71.0832 32.61C72.2692 31.5715 72.3886 29.7672 71.3502 28.5812C70.3117 27.3952 68.5075 27.2757 67.3223 28.315Z" fill="#1F1D1A"/>
<path d="M86.134 61.9293C84.948 62.9677 84.8285 64.7712 85.8669 65.9572C86.9054 67.1432 88.7088 67.2627 89.8948 66.2242C91.0808 65.1858 91.2011 63.3823 90.1619 62.1963C89.1234 61.0103 87.32 60.89 86.134 61.9293Z" fill="#1F1D1A"/>
<path d="M76.2033 50.5899C75.0173 51.6284 74.8978 53.4318 75.9371 54.6178C76.9755 55.8038 78.779 55.9233 79.965 54.8849C81.151 53.8464 81.2705 52.0421 80.232 50.8561C79.1936 49.6701 77.3893 49.5514 76.2033 50.5899Z" fill="#1F1D1A"/>
<path d="M66.2734 39.2509C65.0866 40.2894 64.9679 42.0929 66.0063 43.2789C67.0456 44.4657 68.8491 44.5851 70.0351 43.5459C71.2211 42.5074 71.3406 40.704 70.3013 39.5172C69.2628 38.332 67.4594 38.2117 66.2734 39.2509Z" fill="#1F1D1A"/>
<path d="M98.8479 50.7952C97.6619 51.8344 97.5425 53.6379 98.5809 54.8239C99.6194 56.0099 101.423 56.1294 102.609 55.0909C103.795 54.0516 103.915 52.2482 102.876 51.0622C101.837 49.8762 100.034 49.7567 98.8479 50.7952Z" fill="#1F1D1A"/>
<path d="M88.9173 39.4558C87.7313 40.4951 87.6118 42.2985 88.6511 43.4845C89.6895 44.6705 91.493 44.79 92.679 43.7516C93.865 42.7123 93.9845 40.9088 92.946 39.7228C91.9076 38.5368 90.1041 38.4173 88.9173 39.4558Z" fill="#1F1D1A"/>
<path d="M78.9874 28.116C77.8014 29.1544 77.682 30.9587 78.7204 32.1447C79.7589 33.3307 81.5623 33.4502 82.7483 32.4117C83.9351 31.3733 84.0546 29.569 83.0154 28.383C81.9769 27.197 80.1734 27.0775 78.9874 28.116Z" fill="#1F1D1A"/>
<path d="M112.249 39.0594C111.063 40.0979 110.944 41.9022 111.982 43.0882C113.021 44.2742 114.824 44.3937 116.01 43.3544C117.196 42.3159 117.316 40.5125 116.277 39.3265C115.239 38.1405 113.435 38.021 112.249 39.0594Z" fill="#1F1D1A"/>
<path d="M102.319 27.7201C101.133 28.7586 101.013 30.5628 102.052 31.7488C103.091 32.9348 104.894 33.0543 106.08 32.015C107.266 30.9766 107.386 29.1731 106.347 27.9871C105.309 26.8011 103.505 26.6816 102.319 27.7201Z" fill="#1F1D1A"/>
<path d="M92.3887 16.3801C91.2027 17.4194 91.0832 19.2228 92.1217 20.4088C93.1601 21.5948 94.9636 21.7143 96.1496 20.6759C97.3364 19.6366 97.4559 17.8332 96.4166 16.6472C95.3782 15.4611 93.5747 15.3417 92.3887 16.3801Z" fill="#1F1D1A"/>
<path d="M84.741 51.5303C84.741 51.5303 83.8774 57.2679 87.3287 59.9326C88.9838 61.2108 91.6421 61.7673 95.8713 60.6695C96.2674 60.5588 113.592 46.3525 124.343 37.4963C125.592 36.4667 126.283 34.8974 126.142 33.284C125.816 29.5568 124.764 25.8809 122.965 22.4728C122.712 21.9917 117.672 13.7611 108.77 11.7932C109.506 12.1829 114.719 15.2766 117.62 18.8908C119.174 20.8282 118.869 23.6588 116.944 25.2306L84.741 51.5303Z" fill="#1F1D1A"/>
<path d="M87.3304 59.9274C88.9823 61.2121 91.6389 61.7622 95.8713 60.6724C96.2707 60.5537 113.591 46.3538 124.345 37.5C125.587 36.4632 126.278 34.8979 126.138 33.2885C126.084 32.6085 125.997 31.9172 125.878 31.2477C125.749 30.4161 125.587 29.5853 125.371 28.7642C124.939 27.0369 124.345 25.3417 123.578 23.7106C123.384 23.2897 123.179 22.8791 122.963 22.4693C122.715 21.9938 117.672 13.7655 108.775 11.7897C109.509 12.1786 114.725 15.2779 117.619 18.8953C119.174 20.8278 118.871 23.6569 116.949 25.2334L84.7387 51.526C84.7387 51.526 83.875 57.2707 87.3304 59.9274Z" fill="#393430"/>
<path d="M90.2606 47.0195L99.1239 39.784L113.544 28.0074C113.573 27.9665 113.604 27.9264 113.635 27.8871L90.2261 47.0083C90.2373 47.0123 90.2493 47.0155 90.2606 47.0195ZM114.564 27.1285C114.609 27.1053 114.654 27.0836 114.701 27.0628L116.944 25.2304C117.436 24.8295 117.822 24.3459 118.098 23.8167C117.824 24.3163 117.452 24.7718 116.983 25.1527L114.564 27.1285Z" fill="#5B5B5C"/>
<path d="M113.544 28.0068L114.701 27.0622C114.654 27.0831 114.609 27.1047 114.564 27.128L113.635 27.8866C113.604 27.9258 113.573 27.9659 113.544 28.0068Z" fill="#5B5B5C"/>
<path d="M120.028 18.6353C119.84 18.3546 119.623 18.0876 119.375 17.8382C116.964 15.414 113.398 12.7341 108.808 11.7237C108.863 11.7518 108.941 11.7943 109.042 11.8512C111.535 12.4446 113.718 13.5264 115.572 14.7797C117.376 15.9986 118.868 17.3811 120.028 18.6353Z" fill="#FDFEFE"/>
<path d="M99.1239 39.7837L116.949 25.2333C117.474 24.8019 117.879 24.2766 118.158 23.7017C118.138 23.7402 118.118 23.7787 118.098 23.8164C117.822 24.3456 117.436 24.8292 116.944 25.2301L114.701 27.0624L113.544 28.0071L99.1239 39.7837ZM120.029 18.6369C120.028 18.6369 120.028 18.6361 120.028 18.6353C118.868 17.3812 117.376 15.9987 115.572 14.7798C117.377 15.9995 118.869 17.3828 120.029 18.6369Z" fill="#5B5B5C"/>
<path d="M92.0231 47.6919L118.959 25.6687C121.106 23.9125 121.506 20.8533 120.029 18.6369C118.869 17.3827 117.377 15.9994 115.572 14.7797C113.718 13.5264 111.535 12.4446 109.043 11.8512C110.305 12.5625 114.974 15.4638 117.661 18.8173C118.805 20.2463 118.941 22.1652 118.158 23.7016C117.879 24.2766 117.474 24.8018 116.949 25.2332L99.1239 39.7836L90.2605 47.0191C90.8547 47.2027 91.4433 47.4273 92.0231 47.6919Z" fill="#706F6D"/>
<path d="M40.0515 113.67C41.1357 114.932 42.3385 116.095 43.66 117.141C43.9952 117.417 44.3304 117.673 44.6848 117.91C46.8347 119.507 49.2604 120.789 51.8834 121.735C52.7896 122.051 53.7174 122.327 54.6243 122.543C55.3933 122.761 56.1423 122.919 56.9113 123.017C57.3051 123.096 57.7196 123.155 58.1142 123.195L58.0949 123.155C57.9169 123.057 57.7597 122.958 57.5817 122.839C57.799 122.958 58.0155 123.076 58.2521 123.214C63.6753 123.885 69.0584 122.938 73.8305 120.671C74.9347 120.138 76.0197 119.547 77.0445 118.876V70.4058L78.6226 70.1492V69.0843H84.4003L45.2967 55.0639L34.5697 84.9979C33.662 87.4829 33.1295 90.0065 32.9523 92.5108C32.3605 100.32 34.9635 107.951 40.0515 113.67Z" fill="#F14A28"/>
<path d="M78.6226 69.0847V70.1496L78.8391 70.1103V117.634C83.1773 114.4 86.6287 109.884 88.6005 104.382L92.6629 93.0637L99.3475 74.4485L92.6629 72.0429L84.4002 69.0847H78.6226Z" fill="#F14A28"/>
<path d="M78.8391 70.1105L77.0445 70.4064V118.877C77.6563 118.502 78.2481 118.088 78.8391 117.634V70.1105Z" fill="#F9AC0C"/>
<path d="M57.3844 122.722C57.621 122.879 57.8575 123.018 58.0949 123.156L58.1142 123.195L58.2521 123.214C57.9562 123.037 57.6803 122.879 57.3844 122.722Z" fill="#F9AC0C"/>
<path d="M48.3743 103.92C54.1022 103.92 59.4733 100.37 61.519 94.6685L66.7457 80.1069L40.4572 70.6709L35.2305 85.2334C32.6251 92.4929 36.3972 100.49 43.6576 103.096C45.2157 103.654 46.809 103.92 48.3743 103.92ZM42.7418 72.9988C43.0024 72.9988 43.267 73.0429 43.5269 73.136L52.375 76.3123C53.5826 76.7453 54.2097 78.0757 53.7767 79.2833L51.6003 85.3464C50.5715 88.214 47.8707 89.999 44.9895 89.999C44.2021 89.999 43.401 89.8659 42.6175 89.5844C38.9665 88.2741 37.0692 84.2518 38.3795 80.6016L40.5558 74.5377C40.8966 73.589 41.7891 72.9988 42.7418 72.9988Z" fill="#F36644"/>
<path d="M44.9896 89.999C47.8708 89.999 50.5716 88.214 51.6004 85.3464L53.7768 79.2833C54.2098 78.0757 53.5827 76.7453 52.3751 76.3123L43.5269 73.136C43.2671 73.043 43.0025 72.9989 42.7419 72.9989C41.7892 72.9989 40.8967 73.589 40.5559 74.5377L38.3796 80.6016C37.0693 84.2518 38.9666 88.2742 42.6176 89.5845C43.4011 89.8659 44.2021 89.999 44.9896 89.999Z" fill="#F78D75"/>
<path d="M39.4413 67.1997L96.3742 87.6336C97.3349 87.9784 98.3942 87.4788 98.739 86.5173L103.771 72.4978C104.116 71.5363 103.616 70.477 102.655 70.1322L45.7225 49.6983C44.7619 49.3535 43.7018 49.8523 43.3569 50.8146L38.3251 64.8341C37.9802 65.7956 38.4798 66.8541 39.4413 67.1997Z" fill="#393430"/>
<path d="M68.2781 75.8384L72.0005 65.4675C71.4921 63.8789 71.2539 62.2038 71.3092 60.5158L46.2548 51.5233C46.0961 51.4664 45.9333 51.4391 45.7729 51.4391C45.1875 51.4391 44.6382 51.8024 44.4289 52.3854L40.1757 64.235C39.9095 64.9767 40.2944 65.7947 41.0369 66.0609L68.2781 75.8384ZM47.9236 53.0878C48.108 53.0878 48.2957 53.1191 48.4793 53.1849L58.3931 56.7437C59.2472 57.05 59.6914 57.9914 59.3843 58.8454L55.8263 68.7593C55.5857 69.4305 54.953 69.8482 54.2794 69.8482C54.095 69.8482 53.9073 69.817 53.7245 69.7512L43.8099 66.1924C42.9559 65.8861 42.5116 64.9446 42.8187 64.0906L46.3767 54.1768C46.6173 53.5056 47.25 53.0878 47.9236 53.0878Z" fill="#5D5A58"/>
<path d="M54.2795 69.8486C54.9531 69.8486 55.5858 69.4309 55.8264 68.7597L59.3844 58.8458C59.6915 57.9918 59.2473 57.0504 58.3933 56.7441L48.4794 53.1853C48.2958 53.1195 48.1082 53.0882 47.9237 53.0882C47.2501 53.0882 46.6174 53.506 46.3769 54.1772L42.8189 64.091C42.5117 64.945 42.956 65.8865 43.81 66.1928L53.7246 69.7516C53.9075 69.8174 54.0951 69.8486 54.2795 69.8486Z" fill="#8C8A88"/>
<path d="M43.66 117.142V120.276C43.66 135.697 54.1303 137.195 68.1514 137.195C79.2136 137.195 88.6006 134.908 91.6373 126.646C92.3077 124.832 92.663 122.722 92.663 120.276V69.0848H78.6226V120.276C78.6226 122.683 77.8143 124.871 76.4535 126.646C76.3548 126.784 76.2161 126.941 76.1183 127.06L76.0589 127.139C75.9402 127.257 75.8416 127.375 75.7438 127.474L75.6452 127.573C75.5658 127.671 75.4671 127.751 75.3886 127.829L75.2113 127.987C74.9347 128.263 74.6388 128.52 74.3036 128.736C74.1857 128.835 74.0478 128.933 73.9291 129.012L73.8104 129.091C73.6733 129.19 73.5346 129.269 73.3966 129.328L73.3573 129.367C73.2194 129.446 73.1007 129.524 72.9628 129.585C72.8842 129.624 72.7856 129.663 72.7263 129.702L72.5875 129.762C72.4697 129.821 72.3518 129.88 72.2331 129.92L72.2138 129.939C72.0559 129.998 71.9179 130.058 71.76 130.116C71.6221 130.156 71.4833 130.215 71.3462 130.255C71.1289 130.313 70.9316 130.373 70.7151 130.432C70.5964 130.471 70.4585 130.491 70.3206 130.531L70.1827 130.55C70.0447 130.57 69.8867 130.609 69.7488 130.629L69.2749 130.689C69.1177 130.708 68.9606 130.728 68.7825 130.728L68.5853 130.747H68.1514C67.9341 130.747 67.7369 130.747 67.5203 130.728L67.0865 130.689C66.9093 130.689 66.7313 130.649 66.5541 130.629C66.4354 130.609 66.2975 130.59 66.1796 130.57C66.1002 130.55 66.0417 130.531 65.9823 130.531C65.6864 130.471 65.4298 130.393 65.1339 130.313C65.0361 130.274 64.9174 130.235 64.7987 130.196L64.7001 130.156C64.6215 130.136 64.5229 130.116 64.4443 130.058C64.3457 130.038 64.247 129.998 64.1684 129.958L64.0498 129.9C63.9311 129.86 63.8332 129.821 63.7146 129.762C63.5373 129.682 63.3794 129.585 63.2022 129.505C63.0835 129.446 62.9656 129.367 62.8461 129.289C62.7282 129.229 62.6296 129.17 62.531 129.111C62.4131 129.032 62.3345 128.973 62.2359 128.894C62.1565 128.855 62.0779 128.795 61.9993 128.736C61.6633 128.5 61.3281 128.224 61.0523 127.947C60.9536 127.868 60.8751 127.789 60.7756 127.691L60.7171 127.652C60.6385 127.553 60.5399 127.454 60.4605 127.375L60.3819 127.277C60.3033 127.178 60.2047 127.099 60.1445 127.001C59.928 126.744 59.7115 126.468 59.5142 126.193C59.4549 126.114 59.3964 126.015 59.337 125.917C59.2769 125.817 59.2183 125.719 59.159 125.601C59.1005 125.522 59.0403 125.443 59.0018 125.345L58.9224 125.226C58.8639 125.088 58.8046 124.95 58.7252 124.812C58.6859 124.733 58.6466 124.674 58.6273 124.595C58.548 124.398 58.4694 124.221 58.39 124.043C58.3314 123.885 58.2721 123.727 58.2128 123.55C58.1727 123.432 58.1342 123.313 58.1141 123.195C57.7196 123.156 57.305 123.096 56.9113 123.018C56.1423 122.919 55.3933 122.761 54.6243 122.544C53.7173 122.327 52.7895 122.052 51.8834 121.736C49.2604 120.789 46.8347 119.507 44.6848 117.911C44.3303 117.673 43.9952 117.417 43.66 117.142Z" fill="#393430"/>
<path d="M43.66 117.142V120.276C43.66 135.697 54.1303 137.195 68.1514 137.195C79.2136 137.195 88.6006 134.908 91.6373 126.646C88.5893 130.812 69.6839 134.294 69.6839 134.294L77.3805 126.804L76.4535 126.646C76.3548 126.784 76.2161 126.941 76.1183 127.06L76.0589 127.139C75.9402 127.257 75.8416 127.375 75.7438 127.474L75.6451 127.573C75.5658 127.671 75.4671 127.751 75.3885 127.829L75.2113 127.987C74.9347 128.263 74.6388 128.52 74.3036 128.736C74.1857 128.835 74.0478 128.933 73.9291 129.012L73.8104 129.091C73.6733 129.19 73.5346 129.269 73.3966 129.328L73.3573 129.367C73.2194 129.446 73.1007 129.524 72.9628 129.585C72.8842 129.624 72.7856 129.663 72.7263 129.702L72.5875 129.762C72.4697 129.821 72.3518 129.88 72.2331 129.92L72.2138 129.939C72.0559 129.998 71.9179 130.058 71.76 130.116C71.622 130.156 71.4833 130.215 71.3462 130.255C71.1289 130.313 70.9316 130.373 70.7151 130.432C70.5964 130.471 70.4585 130.491 70.3206 130.531L70.1827 130.55C70.0447 130.57 69.8867 130.609 69.7488 130.629L69.2749 130.689C69.1177 130.708 68.9605 130.728 68.7825 130.728L68.5853 130.747H68.1514C67.9341 130.747 67.7369 130.747 67.5203 130.728L67.0865 130.689C66.9093 130.689 66.7313 130.649 66.5541 130.629C66.4354 130.609 66.2975 130.59 66.1796 130.57C66.1002 130.55 66.0417 130.531 65.9823 130.531C65.6864 130.471 65.4298 130.393 65.1339 130.313C65.0361 130.274 64.9174 130.235 64.7987 130.196L64.7001 130.156C64.6215 130.136 64.5229 130.116 64.4443 130.058C64.3457 130.038 64.247 129.998 64.1684 129.958L64.0498 129.9C63.9311 129.86 63.8332 129.821 63.7146 129.762C63.5373 129.682 63.3794 129.585 63.2022 129.505C63.0835 129.446 62.9656 129.367 62.8461 129.289C62.7282 129.229 62.6296 129.17 62.531 129.111C62.4131 129.032 62.3345 128.973 62.2359 128.894C62.1565 128.855 62.0779 128.795 61.9993 128.736C61.6633 128.5 61.3281 128.224 61.0523 127.947C60.9536 127.868 60.8751 127.789 60.7756 127.691L60.7171 127.652C60.6385 127.553 60.5399 127.454 60.4605 127.375L60.3819 127.277C60.3033 127.178 60.2047 127.099 60.1445 127.001C59.928 126.744 59.7115 126.468 59.5142 126.193C59.4549 126.114 59.3964 126.015 59.337 125.917C59.2769 125.817 59.2183 125.719 59.159 125.601C59.1004 125.522 59.0403 125.443 59.0018 125.345L58.9224 125.226C58.8639 125.088 58.8046 124.95 58.7252 124.812C58.6859 124.733 58.6466 124.674 58.6273 124.595C58.548 124.398 58.4694 124.221 58.39 124.043C58.3314 123.885 58.2721 123.727 58.2128 123.55C58.1727 123.432 58.1342 123.313 58.1141 123.195C57.7196 123.156 57.305 123.096 56.9113 123.018C56.1423 122.919 55.3933 122.761 54.6243 122.544C53.7173 122.327 52.7895 122.052 51.8834 121.736C49.2604 120.789 46.8347 119.507 44.6848 117.911C44.3303 117.673 43.9952 117.417 43.66 117.142Z" fill="#1F1D1A"/>
<path d="M43.3392 116.875V120.125C43.3392 123.105 43.7827 125.707 44.6463 127.921C44.6896 128.04 44.7434 128.158 44.7979 128.277C45.283 129.443 45.931 130.415 46.6872 131.246L46.7842 131.376C51.0823 137.088 61.9552 137.833 69.546 134.388C69.9782 134.194 70.3775 133.989 70.7664 133.773L70.9389 133.676C71.2845 133.482 71.6189 133.277 71.9324 133.06L72.1265 132.931C74.5891 131.246 76.0036 129.368 76.0036 129.335C76.5321 128.558 76.9972 127.726 77.3853 126.809C77.439 126.69 77.4935 126.571 77.5368 126.452C78.4005 124.239 78.8431 121.636 78.8431 118.656V70.1083L78.6274 70.1412L77.0397 70.4114V119.055C77.0397 119.519 77.018 119.963 76.9859 120.384C76.6082 126.247 73.8112 128.633 73.8112 128.633C73.8112 128.633 69.7841 133.438 61.7612 134.388C55.1207 135.176 46.8708 133.212 45.3055 122.911C45.2077 122.176 45.1427 121.388 45.1427 120.524V118.235C44.9919 118.127 44.8404 118.019 44.6896 117.911C44.3336 117.674 43.9984 117.415 43.664 117.144C43.5557 117.058 43.4475 116.972 43.3392 116.875Z" fill="#393430"/>
<path d="M59.5832 136.461C63.0105 136.462 66.5356 135.755 69.546 134.389C69.9782 134.194 70.3775 133.989 70.7664 133.773L70.9389 133.676C71.2845 133.482 71.6189 133.277 71.9324 133.061L72.1265 132.932C74.5891 131.247 76.0036 129.368 76.0036 129.336C76.5321 128.558 76.9972 127.726 77.3853 126.809C77.439 126.69 77.4935 126.571 77.5368 126.452C78.4005 124.239 78.8431 121.637 78.8431 118.656V73.811C78.2056 73.4582 77.6034 73.0628 77.0397 72.6322V80.6937V118.88V119.056C77.0397 119.52 77.018 119.963 76.9859 120.384C76.6082 126.248 73.8112 128.633 73.8112 128.633C73.8112 128.633 69.7841 133.438 61.7612 134.389C60.9192 134.489 60.0507 134.544 59.1743 134.545C53.1352 134.545 46.6719 131.906 45.3055 122.911C45.2077 122.176 45.1427 121.388 45.1427 120.525V118.235C44.9919 118.128 44.8404 118.019 44.6896 117.911C44.3336 117.674 43.9984 117.415 43.664 117.145C43.5557 117.058 43.4475 116.972 43.3392 116.875V120.125C43.3392 123.105 43.7827 125.707 44.6463 127.921C44.6896 128.04 44.7434 128.159 44.7979 128.277C45.283 129.443 45.931 130.415 46.6872 131.247L46.7842 131.377C49.3775 134.823 54.3669 136.461 59.5832 136.461Z" fill="#757371"/>
<path d="M80.0155 116.701C80.0155 116.701 90.74 108.297 89.9309 95.5961L90.0095 75.5247C90.0095 75.3747 89.9959 75.2272 89.971 75.0836C88.9879 75.3651 87.9751 75.5447 86.9487 75.6161L86.8974 88.6894C87.4587 97.5046 80.0155 103.338 80.0155 103.338V116.701Z" fill="#5D5A58"/>
<path d="M80.0155 103.338V75.525C80.0155 75.1561 80.0957 74.8065 80.2384 74.4913C80.1759 74.4649 80.1133 74.4376 80.0508 74.4103C80.0275 74.5234 80.0155 74.6405 80.0155 74.76V86.5414V103.338Z" fill="#706F6D"/>
<path d="M80.0156 103.338C80.0156 103.338 87.4587 97.5049 86.8974 88.6897L86.9487 75.6164C86.6111 75.6396 86.2727 75.6517 85.9327 75.6517C84.025 75.6517 82.0901 75.2772 80.2385 74.4913C80.0957 74.8065 80.0156 75.1561 80.0156 75.525V92.5003V103.338Z" fill="#8C8A88"/>
<path d="M72.8329 54.4964C69.2364 61.7375 72.1906 70.5231 79.4317 74.1196C86.6728 77.7169 95.4584 74.7619 99.0549 67.5208C102.651 60.2797 99.6972 51.4941 92.4561 47.8984C85.215 44.3011 76.4294 47.2561 72.8329 54.4964Z" fill="#1F1D1A"/>
<path d="M87.8388 74.1582C92.4754 74.1582 96.9371 71.5914 99.1399 67.1569C102.237 60.9205 99.6924 53.3547 93.4569 50.2569C91.655 49.3628 89.7417 48.9386 87.858 48.9386C85.4572 48.9386 83.1036 49.6266 81.0852 50.9065C83.1004 49.6298 85.4499 48.9418 87.8468 48.9418C87.9198 48.9418 87.9944 48.9426 88.0673 48.9442V53.4677C84.1036 53.9938 81.0051 57.2727 80.7693 61.3199L75.2394 61.4297C75.1985 66.1056 77.7718 70.6202 82.2408 72.8391C84.0418 73.734 85.9552 74.1582 87.8388 74.1582ZM89.6246 54.6369C93.8346 54.6369 97.2466 58.0497 97.2466 62.2597C97.2466 66.4696 93.8346 69.8817 89.6246 69.8817C85.4147 69.8817 82.0018 66.4696 82.0018 62.2597C82.0018 58.0497 85.4147 54.6369 89.6246 54.6369ZM75.7863 57.8757C75.9138 57.4595 76.0646 57.0458 76.237 56.636C76.0638 57.0458 75.9138 57.4587 75.7863 57.8757Z" fill="#474545"/>
<path d="M89.6246 69.8823C93.8345 69.8823 97.2466 66.4703 97.2466 62.2603C97.2466 58.0504 93.8345 54.6375 89.6246 54.6375C85.4146 54.6375 82.0018 58.0504 82.0018 62.2603C82.0018 66.4703 85.4146 69.8823 89.6246 69.8823ZM91.0447 58.1658C93.5162 58.1658 95.5241 60.1658 95.5241 62.6372C95.5241 65.1167 93.5162 67.1166 91.0447 67.1166C90.914 67.1166 90.7841 67.1086 90.663 67.0997C88.3704 66.9049 86.5653 64.9867 86.5653 62.6372C86.5653 62.0454 86.6808 61.4809 86.8901 60.9636C86.3175 61.3309 85.6464 61.5635 84.9191 61.6132L82.3634 61.784C82.2455 61.7904 82.1341 61.7968 82.0226 61.7968C82.2391 58.1402 85.0377 55.1772 88.6158 54.7057C88.6422 54.8436 88.6615 54.9807 88.6687 55.1251L88.8058 57.1699C88.8467 57.7889 88.7505 58.3847 88.5436 58.9292C89.1587 58.5147 89.8828 58.2484 90.663 58.1819C90.7841 58.1738 90.914 58.1658 91.0447 58.1658Z" fill="#686869"/>
<path d="M82.0226 61.7959C82.1341 61.7959 82.2455 61.7895 82.3634 61.7831L84.919 61.6123C85.6464 61.5625 86.3175 61.33 86.8901 60.9627C87.2269 60.1312 87.8075 59.4231 88.5436 58.9283C88.7505 58.3838 88.8467 57.788 88.8058 57.169L88.6687 55.1241C88.6615 54.9798 88.6422 54.8427 88.6158 54.7047C85.0377 55.1763 82.2391 58.1393 82.0226 61.7959ZM86.0641 56.3534C86.6904 56.3534 87.263 56.8298 87.3087 57.5138L87.3504 58.1232C87.3961 58.8088 86.8781 59.4022 86.1924 59.4479L85.4306 59.4993C85.4018 59.5009 85.3729 59.5017 85.3448 59.5017C84.4684 59.5025 83.8277 58.5971 84.1965 57.784C84.4171 57.2997 84.8156 56.8169 85.5197 56.4785C85.6985 56.3927 85.8829 56.3534 86.0641 56.3534Z" fill="#868586"/>
<path d="M85.3449 59.5024C85.373 59.5024 85.4019 59.5016 85.4307 59.5L86.1925 59.4487C86.8782 59.403 87.3962 58.8096 87.3505 58.124L87.3088 57.5146C87.2631 56.8305 86.6905 56.3542 86.0642 56.3542C85.883 56.3542 85.6986 56.3935 85.5198 56.4793C84.8157 56.8177 84.4171 57.3004 84.1966 57.7848C83.8278 58.5979 84.4685 59.5032 85.3449 59.5024Z" fill="#A9A7A6"/>
<path d="M86.5654 62.6368C86.5654 64.9864 88.3705 66.9045 90.6631 67.0994C90.7842 67.1082 90.9141 67.1162 91.0448 67.1162C93.5162 67.1162 95.5242 65.1163 95.5242 62.6368C95.5242 60.1654 93.5162 58.1655 91.0448 58.1655C90.9141 58.1655 90.7842 58.1735 90.6631 58.1815C88.3705 58.3771 86.5654 60.2953 86.5654 62.6368Z" fill="#1F1D1A"/>
<path d="M86.5654 62.6371C86.5654 64.9866 88.3704 66.9047 90.663 67.0996C92.9637 66.9128 94.7679 64.9866 94.7679 62.6371C94.7679 60.2955 92.9637 58.3694 90.663 58.1817C88.3704 58.3774 86.5654 60.2955 86.5654 62.6371Z" fill="#272626"/>
<path d="M90.7401 65.3062C92.2404 65.3062 93.4569 64.0897 93.4569 62.5893C93.4569 61.089 92.2404 59.8725 90.7401 59.8725C89.2397 59.8725 88.0233 61.089 88.0233 62.5893C88.0233 64.0897 89.2397 65.3062 90.7401 65.3062ZM89.4506 60.753C90.0488 60.753 90.5332 61.2381 90.5332 61.8364C90.5332 62.4346 90.0488 62.9197 89.4506 62.9197C88.8524 62.9197 88.3673 62.4346 88.3673 61.8364C88.3673 61.2381 88.8524 60.753 89.4506 60.753Z" fill="#78797B"/>
<path d="M89.4505 62.9199C90.0487 62.9199 90.5331 62.4348 90.5331 61.8366C90.5331 61.2383 90.0487 60.7532 89.4505 60.7532C88.8523 60.7532 88.3672 61.2383 88.3672 61.8366C88.3672 62.4348 88.8523 62.9199 89.4505 62.9199Z" fill="#ACABAA"/>
<path d="M75.2354 61.4297H75.2394C75.249 60.2445 75.4278 59.0473 75.7863 57.8757C75.4262 59.0473 75.2442 60.2413 75.2354 61.4297ZM76.237 56.636C76.3364 56.4026 76.443 56.1701 76.5577 55.9399C77.6194 53.8021 79.2064 52.098 81.0852 50.9064C79.2056 52.0972 77.6178 53.8013 76.5569 55.9375C76.443 56.1685 76.3364 56.4018 76.237 56.636Z" fill="#474545"/>
<path d="M75.2394 61.4297L80.7692 61.3198C81.005 57.2727 84.1035 53.9937 88.0673 53.4677V48.9442C87.9943 48.9426 87.9197 48.9418 87.8467 48.9418C85.4499 48.9418 83.1003 49.6298 81.0852 50.9064C79.2063 52.098 77.6194 53.8021 76.5577 55.9399C76.443 56.1701 76.3364 56.4026 76.2369 56.636C76.0645 57.0457 75.9138 57.4595 75.7862 57.8757C75.4278 59.0473 75.249 60.2445 75.2394 61.4297ZM81.8831 51.0403C81.8943 51.0403 81.9047 51.0403 81.9151 51.0411C81.9151 51.0411 82.1421 51.0917 82.2495 51.1358C82.9239 51.4261 83.4347 52.0692 83.4917 52.8951L83.5606 53.9103C83.6304 55.057 82.7732 56.0474 81.6257 56.1228L80.3522 56.211C80.3017 56.215 80.2528 56.2166 80.2031 56.2166C79.4589 56.2166 78.8142 55.8204 78.4413 55.2463C78.1895 54.8558 78.1767 54.3578 78.3788 53.948C78.6426 53.1886 81.0868 51.0403 81.8831 51.0403Z" fill="#686869"/>
<path d="M80.2032 56.2168C80.2529 56.2168 80.3018 56.2152 80.3523 56.2112L81.6258 56.123C82.7733 56.0476 83.6305 55.0573 83.5607 53.9105L83.4918 52.8954C83.4348 52.0694 82.924 51.4263 82.2496 51.136C82.1422 51.0919 81.9152 51.0414 81.9152 51.0414C81.9048 51.0406 81.8944 51.0406 81.8832 51.0406C81.0869 51.0406 78.6427 53.1888 78.3789 53.9482C78.1768 54.358 78.1896 54.856 78.4414 55.2465C78.8143 55.8207 79.459 56.2168 80.2032 56.2168Z" fill="#949492"/>
<path d="M3.5003 47.6157H25.3599C26.6895 47.6157 27.7656 46.5388 27.7656 45.21C27.7656 43.8821 26.6895 42.8044 25.3599 42.8044H3.5003C2.17076 42.8044 1.09461 43.8821 1.09461 45.21C1.09461 46.5388 2.17076 47.6157 3.5003 47.6157Z" fill="#F14A28"/>
<path d="M32.7823 34.1147C33.3982 34.1147 34.0132 33.8806 34.4831 33.4107C35.423 32.4717 35.423 30.9481 34.4839 30.0082L17.7348 13.2486C16.795 12.3072 15.2714 12.308 14.3323 13.247C13.3925 14.1861 13.3925 15.7097 14.3315 16.6495L31.0807 33.4099C31.5506 33.8798 32.1673 34.1147 32.7823 34.1147Z" fill="#F14A28"/>
<path d="M65.947 173.315C65.947 173.315 73.3205 168.55 72.7648 161.008L72.8185 137.398H67.8997C67.7321 137.383 67.5749 137.377 67.4289 137.377C66.4266 137.377 65.947 137.712 65.947 138.428C65.947 137.859 66.4811 137.398 67.1403 137.398H70.7159C70.7159 137.398 70.7159 137.859 70.7159 138.428L70.6782 150.641C71.0647 155.876 65.947 159.339 65.947 159.339V173.315Z" fill="#5D5A58"/>
<path d="M65.9471 159.339C65.9471 159.339 71.0648 155.875 70.6783 150.641L70.7159 138.428C70.7159 137.859 70.7159 137.397 70.7159 137.397H67.1403C66.4811 137.397 65.9471 137.859 65.9471 138.428V152.904V159.339Z" fill="#7C7A79"/>
<path d="M103.169 44.8716C107.669 44.8716 114.188 43.8732 119.416 39.0506L124.21 35.1959C124.113 34.0725 123.951 32.9498 123.714 31.8376C123.239 29.5698 122.493 27.3462 121.457 25.2187L120.172 26.2548L107.733 36.3402L97.82 44.3736C97.82 44.3736 99.9915 44.8716 103.169 44.8716ZM121.457 25.2187C122.493 27.3462 123.239 29.5698 123.714 31.8376L122.72 32.6363C119.093 35.9922 114.568 36.6858 111.444 36.6858C109.24 36.6858 107.733 36.3402 107.733 36.3402L120.172 26.2548L121.457 25.2187Z" fill="#5D5A58"/>
<path d="M111.444 36.686C114.568 36.686 119.093 35.9924 122.72 32.6365L123.714 31.8378C123.239 29.57 122.494 27.3464 121.457 25.2189L120.172 26.255L107.733 36.3404C107.733 36.3404 109.24 36.686 111.444 36.686Z" fill="#8C8A88"/>
<path d="M46.3055 27.5542C47.6342 27.5542 48.7112 26.4773 48.7112 25.1485V2.40599C48.7112 1.07725 47.6342 0.000305046 46.3055 0.000305046C44.976 0.000305046 43.8998 1.07725 43.8998 2.40599V25.1485C43.8998 26.4773 44.976 27.5542 46.3055 27.5542Z" fill="#F14A28"/>
</svg>
