<svg width="1446" height="350" viewBox="0 0 1446 350" fill="none" xmlns="http://www.w3.org/2000/svg">
<rect width="1442" height="350" fill="#F8F7F2"/>
<path fill-rule="evenodd" clip-rule="evenodd" d="M251 350L301 341.901C351 333.802 450 317.604 550 309.505C649 301.406 749 301.406 849 301.406C948 301.406 1048 301.406 1147 273.059C1247 244.712 1346 188.693 1396 160.347L1446 132V350H1396C1346 350 1247 350 1147 350C1048 350 948 350 849 350C749 350 649 350 550 350C450 350 351 350 301 350H251Z" fill="#F49F72"/>
</svg>
