<svg width="2185" height="731" viewBox="0 0 2185 731" fill="none" xmlns="http://www.w3.org/2000/svg">
<line y1="48.3052" x2="1516.62" y2="48.3052" stroke="#E7E7E7" stroke-dasharray="2 2"/>
<line y1="391.305" x2="1516.62" y2="391.305" stroke="#E7E7E7" stroke-dasharray="2 2"/>
<line y1="194.72" x2="1516.62" y2="194.72" stroke="#E7E7E7" stroke-dasharray="2 2"/>
<line y1="537.72" x2="1516.62" y2="537.72" stroke="#E7E7E7" stroke-dasharray="2 2"/>
<line y1="97.1099" x2="1516.62" y2="97.1099" stroke="#E7E7E7" stroke-dasharray="2 2"/>
<line y1="440.11" x2="1516.62" y2="440.11" stroke="#E7E7E7" stroke-dasharray="2 2"/>
<line y1="243.525" x2="1516.62" y2="243.525" stroke="#E7E7E7" stroke-dasharray="2 2"/>
<line y1="586.525" x2="1516.62" y2="586.525" stroke="#E7E7E7" stroke-dasharray="2 2"/>
<line y1="145.916" x2="1516.62" y2="145.916" stroke="#E7E7E7" stroke-dasharray="2 2"/>
<line y1="488.916" x2="1516.62" y2="488.916" stroke="#E7E7E7" stroke-dasharray="2 2"/>
<line y1="292.33" x2="1516.62" y2="292.33" stroke="#E7E7E7" stroke-dasharray="2 2"/>
<line y1="635.33" x2="1516.62" y2="635.33" stroke="#E7E7E7" stroke-dasharray="2 2"/>
<line y1="341.135" x2="1516.62" y2="341.135" stroke="#E7E7E7" stroke-dasharray="2 2"/>
<line y1="684.135" x2="1516.62" y2="684.135" stroke="#E7E7E7" stroke-dasharray="2 2"/>
<line x1="54.4058" y1="388" x2="54.4058" y2="-2.18557e-08" stroke="#E7E7E7" stroke-dasharray="2 2"/>
<line x1="54.4058" y1="731" x2="54.4058" y2="343" stroke="#E7E7E7" stroke-dasharray="2 2"/>
<line x1="640.066" y1="388" x2="640.066" y2="-2.18557e-08" stroke="#E7E7E7" stroke-dasharray="2 2"/>
<line x1="640.066" y1="731" x2="640.066" y2="343" stroke="#E7E7E7" stroke-dasharray="2 2"/>
<line x1="1225.73" y1="388" x2="1225.73" y2="-2.18557e-08" stroke="#E7E7E7" stroke-dasharray="2 2"/>
<line x1="1225.73" y1="731" x2="1225.73" y2="343" stroke="#E7E7E7" stroke-dasharray="2 2"/>
<line x1="200.821" y1="388" x2="200.821" y2="-2.18557e-08" stroke="#E7E7E7" stroke-dasharray="2 2"/>
<line x1="200.821" y1="731" x2="200.821" y2="343" stroke="#E7E7E7" stroke-dasharray="2 2"/>
<line x1="786.481" y1="388" x2="786.481" y2="-2.18557e-08" stroke="#E7E7E7" stroke-dasharray="2 2"/>
<line x1="786.481" y1="731" x2="786.481" y2="343" stroke="#E7E7E7" stroke-dasharray="2 2"/>
<line x1="1372.14" y1="388" x2="1372.14" y2="-2.18557e-08" stroke="#E7E7E7" stroke-dasharray="2 2"/>
<line x1="1372.14" y1="731" x2="1372.14" y2="343" stroke="#E7E7E7" stroke-dasharray="2 2"/>
<line x1="347.236" y1="388" x2="347.236" y2="-2.18557e-08" stroke="#E7E7E7" stroke-dasharray="2 2"/>
<line x1="347.236" y1="731" x2="347.236" y2="343" stroke="#E7E7E7" stroke-dasharray="2 2"/>
<line x1="932.896" y1="388" x2="932.896" y2="-2.18557e-08" stroke="#E7E7E7" stroke-dasharray="2 2"/>
<line x1="932.896" y1="731" x2="932.896" y2="343" stroke="#E7E7E7" stroke-dasharray="2 2"/>
<line x1="493.651" y1="388" x2="493.651" y2="-2.18557e-08" stroke="#E7E7E7" stroke-dasharray="2 2"/>
<line x1="493.651" y1="731" x2="493.651" y2="343" stroke="#E7E7E7" stroke-dasharray="2 2"/>
<line x1="1079.31" y1="388" x2="1079.31" y2="-2.18557e-08" stroke="#E7E7E7" stroke-dasharray="2 2"/>
<line x1="1079.31" y1="731" x2="1079.31" y2="343" stroke="#E7E7E7" stroke-dasharray="2 2"/>
<line x1="103.211" y1="388" x2="103.211" y2="-2.18557e-08" stroke="#E7E7E7" stroke-dasharray="2 2"/>
<line x1="103.211" y1="731" x2="103.211" y2="343" stroke="#E7E7E7" stroke-dasharray="2 2"/>
<line x1="688.871" y1="388" x2="688.871" y2="-2.18557e-08" stroke="#E7E7E7" stroke-dasharray="2 2"/>
<line x1="688.871" y1="731" x2="688.871" y2="343" stroke="#E7E7E7" stroke-dasharray="2 2"/>
<line x1="1274.53" y1="388" x2="1274.53" y2="-2.18557e-08" stroke="#E7E7E7" stroke-dasharray="2 2"/>
<line x1="1274.53" y1="731" x2="1274.53" y2="343" stroke="#E7E7E7" stroke-dasharray="2 2"/>
<line x1="249.626" y1="388" x2="249.626" y2="-2.18557e-08" stroke="#E7E7E7" stroke-dasharray="2 2"/>
<line x1="249.626" y1="731" x2="249.626" y2="343" stroke="#E7E7E7" stroke-dasharray="2 2"/>
<line x1="835.286" y1="388" x2="835.286" y2="-2.18557e-08" stroke="#E7E7E7" stroke-dasharray="2 2"/>
<line x1="835.286" y1="731" x2="835.286" y2="343" stroke="#E7E7E7" stroke-dasharray="2 2"/>
<line x1="1420.95" y1="388" x2="1420.95" y2="-2.18557e-08" stroke="#E7E7E7" stroke-dasharray="2 2"/>
<line x1="1420.95" y1="731" x2="1420.95" y2="343" stroke="#E7E7E7" stroke-dasharray="2 2"/>
<line x1="396.041" y1="388" x2="396.041" y2="-2.18557e-08" stroke="#E7E7E7" stroke-dasharray="2 2"/>
<line x1="396.041" y1="731" x2="396.041" y2="343" stroke="#E7E7E7" stroke-dasharray="2 2"/>
<line x1="981.701" y1="388" x2="981.701" y2="-2.18557e-08" stroke="#E7E7E7" stroke-dasharray="2 2"/>
<line x1="981.701" y1="731" x2="981.701" y2="343" stroke="#E7E7E7" stroke-dasharray="2 2"/>
<line x1="542.455" y1="388" x2="542.455" y2="-2.18557e-08" stroke="#E7E7E7" stroke-dasharray="2 2"/>
<line x1="542.455" y1="731" x2="542.455" y2="343" stroke="#E7E7E7" stroke-dasharray="2 2"/>
<line x1="1128.12" y1="388" x2="1128.12" y2="-2.18557e-08" stroke="#E7E7E7" stroke-dasharray="2 2"/>
<line x1="1128.12" y1="731" x2="1128.12" y2="343" stroke="#E7E7E7" stroke-dasharray="2 2"/>
<line x1="152.016" y1="388" x2="152.016" y2="-2.18557e-08" stroke="#E7E7E7" stroke-dasharray="2 2"/>
<line x1="152.016" y1="731" x2="152.016" y2="343" stroke="#E7E7E7" stroke-dasharray="2 2"/>
<line x1="737.677" y1="388" x2="737.677" y2="-2.18557e-08" stroke="#E7E7E7" stroke-dasharray="2 2"/>
<line x1="737.677" y1="731" x2="737.677" y2="343" stroke="#E7E7E7" stroke-dasharray="2 2"/>
<line x1="1323.34" y1="388" x2="1323.34" y2="-2.18557e-08" stroke="#E7E7E7" stroke-dasharray="2 2"/>
<line x1="1323.34" y1="731" x2="1323.34" y2="343" stroke="#E7E7E7" stroke-dasharray="2 2"/>
<line x1="298.431" y1="388" x2="298.431" y2="-2.18557e-08" stroke="#E7E7E7" stroke-dasharray="2 2"/>
<line x1="298.431" y1="731" x2="298.431" y2="343" stroke="#E7E7E7" stroke-dasharray="2 2"/>
<line x1="884.091" y1="388" x2="884.091" y2="-2.18557e-08" stroke="#E7E7E7" stroke-dasharray="2 2"/>
<line x1="884.091" y1="731" x2="884.091" y2="343" stroke="#E7E7E7" stroke-dasharray="2 2"/>
<line x1="1469.75" y1="388" x2="1469.75" y2="-2.18557e-08" stroke="#E7E7E7" stroke-dasharray="2 2"/>
<line x1="1469.75" y1="731" x2="1469.75" y2="343" stroke="#E7E7E7" stroke-dasharray="2 2"/>
<line x1="444.846" y1="388" x2="444.846" y2="-2.18557e-08" stroke="#E7E7E7" stroke-dasharray="2 2"/>
<line x1="444.846" y1="731" x2="444.846" y2="343" stroke="#E7E7E7" stroke-dasharray="2 2"/>
<line x1="1030.51" y1="388" x2="1030.51" y2="-2.18557e-08" stroke="#E7E7E7" stroke-dasharray="2 2"/>
<line x1="1030.51" y1="731" x2="1030.51" y2="343" stroke="#E7E7E7" stroke-dasharray="2 2"/>
<line x1="591.26" y1="388" x2="591.26" y2="-2.18557e-08" stroke="#E7E7E7" stroke-dasharray="2 2"/>
<line x1="591.26" y1="731" x2="591.26" y2="343" stroke="#E7E7E7" stroke-dasharray="2 2"/>
<line x1="1176.92" y1="388" x2="1176.92" y2="-2.18557e-08" stroke="#E7E7E7" stroke-dasharray="2 2"/>
<line x1="1176.92" y1="731" x2="1176.92" y2="343" stroke="#E7E7E7" stroke-dasharray="2 2"/>
<line x1="1469" y1="48.5" x2="2185" y2="48.5" stroke="#E7E7E7" stroke-dasharray="2 2"/>
<line x1="1469" y1="391.5" x2="2185" y2="391.5" stroke="#E7E7E7" stroke-dasharray="2 2"/>
<line x1="1469" y1="194.5" x2="2185" y2="194.5" stroke="#E7E7E7" stroke-dasharray="2 2"/>
<line x1="1469" y1="537.5" x2="2185" y2="537.5" stroke="#E7E7E7" stroke-dasharray="2 2"/>
<line x1="1469" y1="97.5" x2="2185" y2="97.5" stroke="#E7E7E7" stroke-dasharray="2 2"/>
<line x1="1469" y1="440.5" x2="2185" y2="440.5" stroke="#E7E7E7" stroke-dasharray="2 2"/>
<line x1="1469" y1="243.5" x2="2185" y2="243.5" stroke="#E7E7E7" stroke-dasharray="2 2"/>
<line x1="1469" y1="586.5" x2="2185" y2="586.5" stroke="#E7E7E7" stroke-dasharray="2 2"/>
<line x1="1469" y1="145.5" x2="2185" y2="145.5" stroke="#E7E7E7" stroke-dasharray="2 2"/>
<line x1="1469" y1="488.5" x2="2185" y2="488.5" stroke="#E7E7E7" stroke-dasharray="2 2"/>
<line x1="1469" y1="292.5" x2="2185" y2="292.5" stroke="#E7E7E7" stroke-dasharray="2 2"/>
<line x1="1469" y1="635.5" x2="2185" y2="635.5" stroke="#E7E7E7" stroke-dasharray="2 2"/>
<line x1="1469" y1="341.5" x2="2185" y2="341.5" stroke="#E7E7E7" stroke-dasharray="2 2"/>
<line x1="1469" y1="684.5" x2="2185" y2="684.5" stroke="#E7E7E7" stroke-dasharray="2 2"/>
<line x1="1523.41" y1="388" x2="1523.41" y2="-2.18557e-08" stroke="#E7E7E7" stroke-dasharray="2 2"/>
<line x1="1523.41" y1="731" x2="1523.41" y2="343" stroke="#E7E7E7" stroke-dasharray="2 2"/>
<line x1="2109.07" y1="388" x2="2109.07" y2="-2.18557e-08" stroke="#E7E7E7" stroke-dasharray="2 2"/>
<line x1="2109.07" y1="731" x2="2109.07" y2="343" stroke="#E7E7E7" stroke-dasharray="2 2"/>
<line x1="1669.82" y1="388" x2="1669.82" y2="-2.18557e-08" stroke="#E7E7E7" stroke-dasharray="2 2"/>
<line x1="1669.82" y1="731" x2="1669.82" y2="343" stroke="#E7E7E7" stroke-dasharray="2 2"/>
<line x1="1816.24" y1="388" x2="1816.24" y2="-2.18557e-08" stroke="#E7E7E7" stroke-dasharray="2 2"/>
<line x1="1816.24" y1="731" x2="1816.24" y2="343" stroke="#E7E7E7" stroke-dasharray="2 2"/>
<line x1="1962.65" y1="388" x2="1962.65" y2="-2.18557e-08" stroke="#E7E7E7" stroke-dasharray="2 2"/>
<line x1="1962.65" y1="731" x2="1962.65" y2="343" stroke="#E7E7E7" stroke-dasharray="2 2"/>
<line x1="1572.21" y1="388" x2="1572.21" y2="-2.18557e-08" stroke="#E7E7E7" stroke-dasharray="2 2"/>
<line x1="1572.21" y1="731" x2="1572.21" y2="343" stroke="#E7E7E7" stroke-dasharray="2 2"/>
<line x1="2157.87" y1="388" x2="2157.87" y2="-2.18557e-08" stroke="#E7E7E7" stroke-dasharray="2 2"/>
<line x1="2157.87" y1="731" x2="2157.87" y2="343" stroke="#E7E7E7" stroke-dasharray="2 2"/>
<line x1="1718.63" y1="388" x2="1718.63" y2="-2.18557e-08" stroke="#E7E7E7" stroke-dasharray="2 2"/>
<line x1="1718.63" y1="731" x2="1718.63" y2="343" stroke="#E7E7E7" stroke-dasharray="2 2"/>
<line x1="1865.04" y1="388" x2="1865.04" y2="-2.18557e-08" stroke="#E7E7E7" stroke-dasharray="2 2"/>
<line x1="1865.04" y1="731" x2="1865.04" y2="343" stroke="#E7E7E7" stroke-dasharray="2 2"/>
<line x1="2011.46" y1="388" x2="2011.46" y2="-2.18557e-08" stroke="#E7E7E7" stroke-dasharray="2 2"/>
<line x1="2011.46" y1="731" x2="2011.46" y2="343" stroke="#E7E7E7" stroke-dasharray="2 2"/>
<line x1="1621.02" y1="388" x2="1621.02" y2="-2.18557e-08" stroke="#E7E7E7" stroke-dasharray="2 2"/>
<line x1="1621.02" y1="731" x2="1621.02" y2="343" stroke="#E7E7E7" stroke-dasharray="2 2"/>
<line x1="1767.43" y1="388" x2="1767.43" y2="-2.18557e-08" stroke="#E7E7E7" stroke-dasharray="2 2"/>
<line x1="1767.43" y1="731" x2="1767.43" y2="343" stroke="#E7E7E7" stroke-dasharray="2 2"/>
<line x1="1913.85" y1="388" x2="1913.85" y2="-2.18557e-08" stroke="#E7E7E7" stroke-dasharray="2 2"/>
<line x1="1913.85" y1="731" x2="1913.85" y2="343" stroke="#E7E7E7" stroke-dasharray="2 2"/>
<line x1="2060.26" y1="388" x2="2060.26" y2="-2.18557e-08" stroke="#E7E7E7" stroke-dasharray="2 2"/>
<line x1="2060.26" y1="731" x2="2060.26" y2="343" stroke="#E7E7E7" stroke-dasharray="2 2"/>
<rect width="2185" height="343" transform="matrix(1 0 0 -1 0 731)" fill="url(#paint0_linear_208_134)"/>
<defs>
<linearGradient id="paint0_linear_208_134" x1="1092.5" y1="0" x2="1092.5" y2="343" gradientUnits="userSpaceOnUse">
<stop stop-color="white"/>
<stop offset="1" stop-color="white" stop-opacity="0"/>
</linearGradient>
</defs>
</svg>
