<svg width="235" height="62" viewBox="0 0 235 62" fill="none" xmlns="http://www.w3.org/2000/svg">
<path d="M7.78444 35.084V30.3129H16.6738C18.4483 30.3129 19.821 29.8609 20.792 28.9569C21.7964 28.0194 22.2987 26.7304 22.2987 25.0898C22.2987 23.6166 21.8132 22.3778 20.8422 21.3733C19.8713 20.3689 18.4985 19.8667 16.724 19.8667H7.78444V14.8444H16.9751C19.1849 14.8444 21.1268 15.2964 22.8009 16.2004C24.475 17.071 25.764 18.2763 26.668 19.8164C27.6055 21.3231 28.0742 23.0474 28.0742 24.9893C28.0742 27.0317 27.6055 28.8062 26.668 30.3129C25.764 31.8196 24.475 32.9914 22.8009 33.8284C21.1268 34.6655 19.1849 35.084 16.9751 35.084H7.78444ZM3.81689 50V14.8444H9.59245V50H3.81689ZM23.1022 50L10.7978 34.7324L16.1716 32.7738L30.3844 50H23.1022ZM43.2719 50.5022C41.0956 50.5022 39.1202 49.9498 37.3457 48.8449C35.6047 47.74 34.2152 46.2501 33.1773 44.3751C32.1728 42.4667 31.6706 40.3406 31.6706 37.9969C31.6706 35.6197 32.1728 33.4936 33.1773 31.6187C34.2152 29.7102 35.6047 28.2036 37.3457 27.0987C39.1202 25.9603 41.0956 25.3911 43.2719 25.3911C45.1134 25.3911 46.7373 25.7929 48.1435 26.5964C49.5832 27.3665 50.7216 28.4379 51.5586 29.8107C52.3956 31.1834 52.8142 32.7403 52.8142 34.4813V41.412C52.8142 43.153 52.3956 44.7099 51.5586 46.0827C50.755 47.4554 49.6334 48.5436 48.1937 49.3471C46.754 50.1172 45.1134 50.5022 43.2719 50.5022ZM44.1759 45.2791C46.2183 45.2791 47.8589 44.5927 49.0977 43.22C50.37 41.8473 51.0062 40.0895 51.0062 37.9467C51.0062 36.507 50.7216 35.2347 50.1524 34.1298C49.5832 33.0249 48.7796 32.1711 47.7417 31.5684C46.7373 30.9323 45.5487 30.6142 44.1759 30.6142C42.8367 30.6142 41.6481 30.9323 40.6102 31.5684C39.6057 32.1711 38.8022 33.0249 38.1995 34.1298C37.6303 35.2347 37.3457 36.507 37.3457 37.9467C37.3457 39.3864 37.6303 40.6587 38.1995 41.7636C38.8022 42.8684 39.6057 43.739 40.6102 44.3751C41.6481 44.9778 42.8367 45.2791 44.1759 45.2791ZM50.6546 50V43.5213L51.6088 37.6453L50.6546 31.8196V25.8933H56.179V50H50.6546ZM65.6248 50V22.7293C65.6248 20.8878 66.0265 19.264 66.8301 17.8578C67.6671 16.4516 68.8055 15.3467 70.2452 14.5431C71.7184 13.7396 73.4092 13.3378 75.3176 13.3378C76.7908 13.3378 78.0464 13.5889 79.0843 14.0911C80.1222 14.5933 81.0932 15.3132 81.9972 16.2507L78.4314 19.8164C78.0296 19.4147 77.5944 19.0966 77.1256 18.8622C76.6569 18.6279 76.0542 18.5107 75.3176 18.5107C73.9784 18.5107 72.9405 18.879 72.2039 19.6156C71.5008 20.3187 71.1492 21.3399 71.1492 22.6791V50H65.6248ZM59.8492 30.9156V25.8933H78.4314V30.9156H59.8492ZM92.5392 50.5022C90.1285 50.5022 87.9522 49.9665 86.0103 48.8951C84.1018 47.7902 82.5784 46.2836 81.44 44.3751C80.3352 42.4667 79.7827 40.3239 79.7827 37.9467C79.7827 35.5695 80.3352 33.4434 81.44 31.5684C82.5449 29.66 84.0349 28.1533 85.9098 27.0484C87.8183 25.9436 89.9276 25.3911 92.2378 25.3911C94.4811 25.3911 96.4565 25.9101 98.164 26.948C99.9051 27.9859 101.261 29.4089 102.232 31.2169C103.236 33.0249 103.739 35.084 103.739 37.3942C103.739 37.796 103.705 38.2145 103.638 38.6498C103.605 39.0516 103.538 39.5036 103.437 40.0058H83.6498V35.4858H100.575L98.5156 37.2938C98.4486 35.8206 98.164 34.5818 97.6618 33.5773C97.1596 32.5729 96.4397 31.8028 95.5023 31.2671C94.5983 30.7314 93.4766 30.4636 92.1374 30.4636C90.7312 30.4636 89.5091 30.7649 88.4712 31.3676C87.4332 31.9702 86.6297 32.824 86.0605 33.9289C85.4913 35.0003 85.2067 36.2893 85.2067 37.796C85.2067 39.3027 85.508 40.6252 86.1107 41.7636C86.7134 42.9019 87.5672 43.7892 88.672 44.4253C89.7769 45.028 91.0492 45.3293 92.4889 45.3293C93.7277 45.3293 94.8661 45.1117 95.904 44.6764C96.9754 44.2412 97.8794 43.605 98.616 42.768L102.132 46.3338C100.96 47.7065 99.5368 48.7444 97.8627 49.4476C96.1886 50.1507 94.4141 50.5022 92.5392 50.5022ZM119.367 50.5022C116.956 50.5022 114.78 49.9665 112.838 48.8951C110.93 47.7902 109.406 46.2836 108.268 44.3751C107.163 42.4667 106.61 40.3239 106.61 37.9467C106.61 35.5695 107.163 33.4434 108.268 31.5684C109.373 29.66 110.863 28.1533 112.738 27.0484C114.646 25.9436 116.755 25.3911 119.066 25.3911C121.309 25.3911 123.284 25.9101 124.992 26.948C126.733 27.9859 128.089 29.4089 129.06 31.2169C130.064 33.0249 130.566 35.084 130.566 37.3942C130.566 37.796 130.533 38.2145 130.466 38.6498C130.432 39.0516 130.366 39.5036 130.265 40.0058H110.478V35.4858H127.402L125.343 37.2938C125.276 35.8206 124.992 34.5818 124.49 33.5773C123.987 32.5729 123.267 31.8028 122.33 31.2671C121.426 30.7314 120.304 30.4636 118.965 30.4636C117.559 30.4636 116.337 30.7649 115.299 31.3676C114.261 31.9702 113.457 32.824 112.888 33.9289C112.319 35.0003 112.034 36.2893 112.034 37.796C112.034 39.3027 112.336 40.6252 112.938 41.7636C113.541 42.9019 114.395 43.7892 115.5 44.4253C116.605 45.028 117.877 45.3293 119.317 45.3293C120.555 45.3293 121.694 45.1117 122.732 44.6764C123.803 44.2412 124.707 43.605 125.444 42.768L128.959 46.3338C127.787 47.7065 126.364 48.7444 124.69 49.4476C123.016 50.1507 121.242 50.5022 119.367 50.5022ZM145.09 50.5022C142.913 50.5022 140.938 49.9498 139.163 48.8449C137.422 47.74 136.033 46.2501 134.995 44.3751C133.991 42.4667 133.488 40.3406 133.488 37.9969C133.488 35.6197 133.991 33.4936 134.995 31.6187C136.033 29.7102 137.422 28.2036 139.163 27.0987C140.938 25.9603 142.913 25.3911 145.09 25.3911C146.931 25.3911 148.555 25.7929 149.961 26.5964C151.401 27.3665 152.539 28.4379 153.376 29.8107C154.213 31.1834 154.632 32.7403 154.632 34.4813V41.412C154.632 43.153 154.213 44.7099 153.376 46.0827C152.573 47.4554 151.451 48.5436 150.011 49.3471C148.572 50.1172 146.931 50.5022 145.09 50.5022ZM145.994 45.2791C148.036 45.2791 149.677 44.5927 150.915 43.22C152.188 41.8473 152.824 40.0895 152.824 37.9467C152.824 36.507 152.539 35.2347 151.97 34.1298C151.401 33.0249 150.597 32.1711 149.559 31.5684C148.555 30.9323 147.366 30.6142 145.994 30.6142C144.654 30.6142 143.466 30.9323 142.428 31.5684C141.423 32.1711 140.62 33.0249 140.017 34.1298C139.448 35.2347 139.163 36.507 139.163 37.9467C139.163 39.3864 139.448 40.6587 140.017 41.7636C140.62 42.8684 141.423 43.739 142.428 44.3751C143.466 44.9778 144.654 45.2791 145.994 45.2791ZM152.472 60.0444V44.0738L153.427 38.248L152.472 32.372V25.8933H157.997V60.0444H152.472ZM174.022 50.5022C171.979 50.5022 170.154 50.0502 168.547 49.1462C166.974 48.2422 165.735 47.0034 164.831 45.4298C163.96 43.8227 163.525 41.9812 163.525 39.9053V25.8933H169.05V39.6542C169.05 40.8261 169.234 41.8305 169.602 42.6676C170.004 43.4711 170.573 44.0905 171.31 44.5258C172.08 44.961 172.984 45.1787 174.022 45.1787C175.629 45.1787 176.851 44.7099 177.688 43.7724C178.558 42.8015 178.994 41.4287 178.994 39.6542V25.8933H184.518V39.9053C184.518 42.0147 184.066 43.8729 183.162 45.48C182.292 47.0536 181.069 48.2924 179.496 49.1964C177.922 50.067 176.097 50.5022 174.022 50.5022ZM201.272 50.5022C198.862 50.5022 196.685 49.9665 194.743 48.8951C192.835 47.7902 191.311 46.2836 190.173 44.3751C189.068 42.4667 188.516 40.3239 188.516 37.9467C188.516 35.5695 189.068 33.4434 190.173 31.5684C191.278 29.66 192.768 28.1533 194.643 27.0484C196.551 25.9436 198.661 25.3911 200.971 25.3911C203.214 25.3911 205.19 25.9101 206.897 26.948C208.638 27.9859 209.994 29.4089 210.965 31.2169C211.97 33.0249 212.472 35.084 212.472 37.3942C212.472 37.796 212.438 38.2145 212.371 38.6498C212.338 39.0516 212.271 39.5036 212.17 40.0058H192.383V35.4858H209.308L207.249 37.2938C207.182 35.8206 206.897 34.5818 206.395 33.5773C205.893 32.5729 205.173 31.8028 204.235 31.2671C203.331 30.7314 202.21 30.4636 200.87 30.4636C199.464 30.4636 198.242 30.7649 197.204 31.3676C196.166 31.9702 195.363 32.824 194.794 33.9289C194.224 35.0003 193.94 36.2893 193.94 37.796C193.94 39.3027 194.241 40.6252 194.844 41.7636C195.446 42.9019 196.3 43.7892 197.405 44.4253C198.51 45.028 199.782 45.3293 201.222 45.3293C202.461 45.3293 203.599 45.1117 204.637 44.6764C205.709 44.2412 206.613 43.605 207.349 42.768L210.865 46.3338C209.693 47.7065 208.27 48.7444 206.596 49.4476C204.922 50.1507 203.147 50.5022 201.272 50.5022Z" fill="black"/>
<circle cx="216.022" cy="18.0222" r="5.02222" fill="#FF7144"/>
</svg>
